<svg xmlns="http://www.w3.org/2000/svg" xmlns:xlink="http://www.w3.org/1999/xlink" viewBox="0 0 257.15 869.26"><defs><clipPath id="clip-path"><rect class="cls-1" x="23.81" y="248.12" width="122.1" height="87.61" rx="5" transform="translate(33.26 -7.67) rotate(6.44)"></rect></clipPath></defs><g class="cls-2"><g id="Capa_2" data-name="Capa 2"><g id="Capa_2-2" data-name="Capa 2"><path class="cls-3" d="M190.29,867.26c-.59,0-1.18,0-1.77,0-18.83-1-43.56-18.79-45.63-32.76-1.44-9.75.59-19.79,1.53-23.65l.34-1.4-1.22-.76a39.29,39.29,0,0,1-7.84-6.17l-.16-.18.1-.67-.13-.44c-.79-2.51.06-5.67.82-8.45a35.68,35.68,0,0,0,1.43-7.32,11.45,11.45,0,0,1,.59-3.06l.09,0,.43-1.77a5.61,5.61,0,0,1,2.46-2.91l.15-.1.13-.13c.56-.54,1.12-1,1.7-1.53a23.2,23.2,0,0,0,1.78-1.64l.47-.51,1.19-16c.26-6.6.7-16.07,1.7-23l0-.14c1.34-18.06,2.87-38.81,4.28-57.95l.23-3.62c1.63-25.19,3.16-49,3.87-53l0-.1v-.11c.18-2.57.3-4.37.35-5.21.24-4.41-2.12-33.63-5.37-66.51-2.44-20.92-5.6-45.15-8.14-64.62-2.09-16-3.74-28.72-4.08-32.63-.06-.67-.12-1.24-.19-1.76l0-.14-1.49-7.34-2.48,6.28c-.3.77-.61,1.64-.91,2.59,0,.13-.19.67-.19.67l0,.12c-.64,3.78-1.38,7.82-2.21,12A196,196,0,0,1,128,484.52c-.87,3.37-2.44,9.25-4,15.11-5.16,21.35-11,43.07-15.59,60.52-1.93,7.23-3.75,14.06-5.17,19.58-1.37,5.83-2.28,10.14-2.72,12.86-2.74,16.93,7,114.12,9.79,129.85.84,4.76,2.13,15.48,3,26.77l.12,1.53,1.51.28c2.31.44,3.94,1.33,4.7,2.58l1,1.64.09,0,8.45,15.55a.63.63,0,0,1,.06.27c-.18,2.87-1.55,10.41-10.39,18.45l-.79.71.15,1.05a110.62,110.62,0,0,0,2.08,11.31l0,.08h0l.08.31.2.76h0c.11.38.22.74.34,1.08,2.7,7.85-4.93,18.84-5.25,19.3-9.59,14.94-36.1,37-53.16,37a16.79,16.79,0,0,1-2.62-.2c-4.49-.71-7.33-2.78-8.45-6.14C49,847.27,56,835.34,61.51,829.62c3.05-3.15,5.64-8.85,7.69-16.94l.71-2.8L67,810.2a49.55,49.55,0,0,1-5.53.35c-6.21,0-9-1.66-9.52-3.08l-4.44-18.66-.17-1.72c-.08-.82.11-3.89,5.85-9l.86-.76-.22-1.12c-1.88-9.62-3.57-23.4-5-41l-.57-4.3c-1.84-13.76-5.37-68.08-4.32-106-.25-13-.33-21.64-.35-23.25,1.28-66.91,8.78-128.79,20.06-165.48,2.3-7.47,5.06-15.6,8.19-24.17,2.49-7.85,4.93-14.92,7.1-20.54l.69-1.78L77.9,389c-4.26-1.87-6.88-4.32-7-6.55a3.33,3.33,0,0,1,.31-1.56l.07-.17,0-.19c1.1-4.76,4.92-21.88,7.93-42.57l.3-2-46.8-5.28-.11,0h-.16l-8.29-.94a5.51,5.51,0,0,1-4.85-6.08l.72-6.35L18,317.07c-5.1-.38-9.35-3.18-12.28-8.08C0,299.45.31,282.5,10.66,270.63c5-5.69,10.53-12.29,16.55-19.63l.38-.46.46-4.08a5.48,5.48,0,0,1,5.46-4.87h.29l1,.06,3.38-4.22-.77-1.2c-1.2-1.9-2.2-3.51-2.82-4.5a3,3,0,0,1-.44-1.91l0-.24,0-.24a4.55,4.55,0,0,1,0-1.27l0-.13,0-.35a.46.46,0,0,1,.1-.29l.11-.13.09-.14a3.12,3.12,0,0,1,1.31-1.23l.17-.07.29-.13.24-.21a149.9,149.9,0,0,0,14.22-15.22c.75-.9,1.53-1.86,2.34-2.87,9.53-11.79,23.93-29.61,52.09-29.61a69,69,0,0,1,7,.35l1,.1.67-.72a35.51,35.51,0,0,0,9.06-24.35V152l-.92-.58A41.89,41.89,0,0,1,110.43,141l-1.78-2.39-1.53,2.56c-.37.61-.74,1.2-1.12,1.75a36.81,36.81,0,0,1-11,10.75l-.58.33-.15-.65a57.51,57.51,0,0,1-1.63-17.74l.27-3.31-3.05,1.32a37.07,37.07,0,0,1-13.8,3.13l-.82,0,.2-.63a56.59,56.59,0,0,1,8.31-16.86l.73-1L84,117.14a11.11,11.11,0,0,1-1-4.72v-3.29A10.3,10.3,0,0,1,86,101.58l.59-.56,0-.82c0-.37,0-.72,0-1.07l.1-1.8L85,97A9,9,0,0,1,78.1,84.9l1-2.59-2.78-.14a9,9,0,0,1-5.08-16l1.38-1.09-.91-1.51a10.94,10.94,0,0,1,3.71-15L77,47.59,76.21,46a10.83,10.83,0,0,1-1.07-4.69A11,11,0,0,1,88.8,30.63l3.85,1-1.51-3.67a13.3,13.3,0,0,1-1-5.13A13.45,13.45,0,0,1,112.84,13l2.28,2.15,1-3a13.47,13.47,0,0,1,23.17-4.3l1.68,2,1.5-2.16a13.46,13.46,0,0,1,24.48,6.84l.13,2,3.17-.21.54-.85a13.46,13.46,0,0,1,24.57,9.82l-.4,2.09,2.11.27a10.95,10.95,0,0,1,8.81,14.76l-.7,1.83,1.83.73a11,11,0,0,1,4.65,16.85l-1.56,2,2.36,1a9,9,0,0,1-3.07,17.22l-2.78.14,1,2.59a9,9,0,0,1-7.38,12.22l-5.46.59,4.56,3.06a10,10,0,0,1,4.09,8.36v3.29c0,5.26-3.52,9.55-7.85,9.55h-8.12l5.26,3.42-1.23-.19a12.29,12.29,0,0,1-1.36-.31l-.38-.12-.44-.18a4.79,4.79,0,0,1-.81-.45l-.06,0-.31-.29,0,0a1,1,0,0,1-.2-.21l-2-3.41-1.54,3.64-.63,1.51C180.1,134,176,143.84,164,151.4l-.93.58v1.1a35.57,35.57,0,0,0,9,24.25l.42.46,2.9.64h.1c6.68.8,23.25,3.37,32.95,10.09,13.29,9.2,24.94,36.22,33.45,55.95,2.51,5.81,4.88,11.3,6.81,15.15l0,.1c.23.4.44.81.63,1.21l.05.11c.55,1,1,1.86,1.47,2.53l.1.13a2.2,2.2,0,0,1,.39,1.58,6,6,0,0,1-1.72,3.21l-.17.19-.11.22a11.53,11.53,0,0,1-2.44,3l-.93.83.34,1.2c8.67,30.15,11,52.06,6.5,60.13-3.24,5.76-10.19,8.57-21.24,8.57-6.94,0-15.61-1.09-26.5-3.34l-2.39-.49v2.44c-.13,20.06.54,45.63.57,46.71l0,.64-3.94-.74.7,3c8.25,35.38,11.46,100,12.63,135.29.71,14.34,1.08,26.14,1.08,34.17,0,9-.2,30.91-.56,61.8-.47,46.75-1.18,119.11-1.52,153.86l0,4,0,.13c.38,3,.85,6.1,1.34,8.72l.06.34.18.3a11,11,0,0,1,1.43,3.46l.36,2,.18,0,3.6,19.16-.26.18c-.32.23-8.07,5.7-24.26,6.56l-2.91.15,1.19,2.67c1.68,3.75,6.17,6.93,11.37,10.61,2.81,2,6,4.24,8.94,6.77s6,6.7,3.7,12.38C213.49,861.16,201.93,867.26,190.29,867.26Z"></path><path d="M105.76,18.64S89.45,30.28,82.13,41.93,74.47,67.56,75.8,70.22s8.32,11.65,13,14.64,61.57,11.32,61.57,11.32,45.59-6,49.59-11.32,11-21.3,9.31-28.62S197.61,32,192.61,27.29s-12-13.31-16-13.31"></path><path class="cls-4" d="M100.75,388.05s10.13-11.54,3.14-13.29-18.52-.69-27.61,3.15-2.8,11.53,10.14,15.38"></path><path class="cls-5" d="M47.62,226.22s10.83-12.23,21-24.47,31.81-24.11,45.79-19.57c0,0-15-7.69-29.36.35S65.79,193.72,59.85,200s-17.12,19.57-21,23.41"></path><path class="cls-6" d="M88.86,374.41s-1.4-.34-6.06,9.33C76,397.85,58.11,453.17,52.05,501.17S46,583.66,44.59,621.4s2.33,95.54,4.19,109.52,8.39,64.31,9.79,66.17,50.33-11.65,53.59-15.84.47-42.87-2.33-58.72-12.58-112.78-9.78-130,23.3-91.8,27.49-108.11,4.2-26.57,6.53-34,5.12-10.26,6.05.46S151.77,537.52,155,573.4,158.77,613,157.37,620s-6.53,102-8.39,114.64-1.87,34-2.33,37.74-7.92,5.13-8.39,13.05-5.59,14.45,0,18.64S159.7,815.73,178.34,819s38.68-3.27,38.21-8.39-.46-10.25-2.33-14.91-4.19-22.37-3.73-26.1,2.8-177.55,2.8-209.24S207.7,449,204,420.55s-4-28.66-5.71-33.2"></path><path class="cls-7" d="M145.48,808.74s-4,13-2.09,25.63c2.05,13.87,26.45,31.32,45.16,32.34s36.86-14.39,24-25.34c-10-8.57-21.67-13.29-21.2-21.44"></path><path class="cls-7" d="M72.15,799.18S69.89,821.68,61.87,830,44,857.83,60,860.38s44.8-20.22,55.26-36.55c0,0,7.9-11.08,5.21-18.89s-4.6-29.65-4.6-29.65"></path><path class="cls-7" d="M139.29,780.47l-3.22,21.67S149,816.6,180.61,819.9c25.56,2.66,37.68-6.07,37.68-6.07L214.38,793"></path><path class="cls-6" d="M47.56,786.76l4.89,20.54s2.37,6.64,29.6-.63c37.79-10.1,46.13-27,46.67-35.69l-9.41-17.3"></path><path class="cls-6" d="M54.61,777.58s-11.92,9.87-4.14,11.62,50.37-10.67,65.27-26.73c7.74-8.35,2.32-10.6-1.9-11.11"></path><path class="cls-7" d="M114.6,763c-5.2-31.09-19-151.8-14.63-171.94s31.56-112.46,36-154.64"></path><path class="cls-7" d="M86.68,376.36a618.26,618.26,0,0,0-22.52,60c-9.5,30.89-18.58,88.87-20,165.32,0,0,1.39,160.18,13.8,187.14"></path><path class="cls-8" d="M211,796s1.68-172.21,2.08-210-2.18-148.05-13.79-196.16"></path><path class="cls-8" d="M125.86,420.19s4.51,6.79,11.36,19.08,21.07,164.89,20.49,175.41-12.35,168.49-12.35,168.49"></path><path class="cls-8" d="M82.34,228.55s-17.24,28.43-14,41"></path><path class="cls-7" d="M71.39,382.45s11.41-46.71,12.35-88.19"></path><path class="cls-7" d="M210.49,266.76s-7,39.62-7.92,59.19.23,62.1.23,62.1S107,369.75,83.27,375.35s-5.13,14-1.4,14.44"></path><path class="cls-9" d="M73.83,246.84s-23.76-20.62-28.31-26.56c0,0-13.28,6.64-10.48,11.18s14,22,14,22"></path><path class="cls-10" d="M50.65,292.86s-7,18.64-27.5,23.3-28-27-12.11-45.2,32.62-39.61,32.62-39.61,17.94,19,21.78,21.43"></path><path class="cls-9" d="M195.11,257.68s21.32-9.79,48.59-3.5a37.45,37.45,0,0,1,3.84,4.55c1.4,2.09,6.29,9.43-4.54,15.37s-46.14-1.74-46.84-8.38"></path><path class="cls-9" d="M105.17,179.62s3.73,15.84,31.23,19.11,42.52-12.7,45.78-18.3l-20.62-4.54-37.28-1.4"></path><path class="cls-8" d="M37.83,235.31s-5.94-7-1.74-9.09,12.93,15,26.56,20.27"></path><path class="cls-11" d="M31.89,265.77s4.88-6.43,3.62-10.21S30,253.25,30,253.25c-2.39,3.6-10.45,14.83-10.45,14.83s-3.41,4.59-4,9.46"></path><path class="cls-4" d="M163.89,303.11s36.12,2.1,42.41,2.57,8.15-.94,6.52-4.2-9.32-26.56-10.25-29.82-6.29-6.53,3.73-8.39c0,0,18.64-1.63,24-.93s12.12-.47,14.68,7,9.32,36.81,9.55,50.09-1.86,18.88-14,21.21-32.39,1.16-44-2.56-30.52-8.16-34.25-10.72-.47-11.19-.47-11.19"></path><rect class="cls-10" x="32.21" y="249.06" width="122.1" height="87.61" rx="5" transform="translate(33.42 -8.61) rotate(6.44)"></rect><rect class="cls-12" x="23.81" y="248.12" width="122.1" height="87.61" rx="5" transform="translate(33.26 -7.67) rotate(6.44)"></rect><g class="cls-13"><polyline class="cls-14" points="25.72 316.86 33.41 246.73 139.66 258.38"></polyline></g><rect class="cls-7" x="23.81" y="248.12" width="122.1" height="87.61" rx="5" transform="translate(33.26 -7.67) rotate(6.44)"></rect><path class="cls-4" d="M135.7,300.67s3.84,12.4,9.61,13.45,8.74,2.1,9.61,4.9a11.29,11.29,0,0,0,6.64,7c3.67,1.57,8.21-16.26,8.39-22.72s-3-17.3-4.72-22.55-3-8.73-6.29-7.68-3.84,5.94-2.8,8.56,3,5.59-.17,4.72-13.28-1.23-16.25-1.23-7.17,2.63-5.42,10S135.7,300.67,135.7,300.67Z"></path><path class="cls-10" d="M163.42,145.15c-4.26,21.38,9.26,33.5,9.26,33.5S164,189.87,144,190.34h-2.08c-20-.47-28.67-11.69-28.67-11.69s13.51-12.12,9.26-33.5"></path><path class="cls-9" d="M110.75,108.37s-24.41,9.32-16,44.82C94.77,153.19,118.29,139.88,110.75,108.37Z"></path><path class="cls-9" d="M112.68,106S87,101.42,75.94,136.2C75.94,136.2,103,136.88,112.68,106Z"></path><path class="cls-10" d="M101.29,121.47H90.79c-4,0-7.35-4.08-7.35-9v-3.29c0-5,3.31-9,7.35-9h7.76"></path><path class="cls-10" d="M187.52,121.47h8.06c4,0,7.35-4.08,7.35-9v-3.29c0-5-3.3-9-7.35-9h-6.35"></path><path class="cls-10" d="M145.51,44.15l1.46,0a39.31,39.31,0,0,1,31.71,16c13.72,18.37,10,51.77,5.52,62.54-4.32,10.31-8,21.63-23.29,30-6.32,3.43-11.74,4.92-17,4.7h-2c-5.22.22-10.64-1.27-17-4.7-15.31-8.32-19-19.64-23.29-29.95-4.52-10.77-8.2-44.17,5.53-62.54a39.29,39.29,0,0,1,31.7-16l1.46,0Z"></path><path d="M147.33,118.55a5.91,5.91,0,0,1-8.36,8.36Z"></path><line class="cls-15" x1="160.99" y1="100.76" x2="166.09" y2="100.76"></line><line class="cls-8" x1="163.54" y1="93.03" x2="163.54" y2="99.48"></line><line class="cls-15" x1="118.9" y1="100.76" x2="123.99" y2="100.76"></line><line class="cls-8" x1="121.45" y1="93.03" x2="121.45" y2="99.48"></line><path class="cls-16" d="M113,82.13a16.89,16.89,0,0,1,16.4-1.41"></path><path class="cls-16" d="M173.37,82.13A16.89,16.89,0,0,0,157,80.72"></path><path class="cls-17" d="M145.55,36.17C188.06,37.92,192,90,192,90s-10-27.29-49.44-27.29h-1C102.09,62.67,92.11,90,92.11,90s3.89-52,46.4-53.79Z"></path><path class="cls-7" d="M172.68,178.65s23.37,1.9,35.48,10.29c19,13.17,35,63.84,42.41,75,0,0,2.33,2.33-5.13,7.45"></path><path class="cls-7" d="M250.57,264s-31.69-5.59-47.07-.47S204,278,204,278"></path><line class="cls-7" x1="200.24" y1="267.23" x2="213.76" y2="305.91"></line><line class="cls-11" x1="169.6" y1="304.16" x2="225.41" y2="306.38"></line><path class="cls-8" d="M242.65,263.5s18.17,55.46,9.78,70.37-41.64,7.86-86.67-5.13c-9-2.6-10.91-7.6-11.22-10.37-.14-1.28-1.16-1-2.42-1.28a66,66,0,0,0-7.34-1.39c-4.54-.35-8.38-8-9.43-12.24s-5.94-20.27,3.49-18.87,25.52,1.05,28.31,6.64,1.4,18.52,1.4,18.52"></path><path class="cls-4" d="M31.05,267.57c3.26-.21,4.06,1.11,7,1.72s6.47,4,3.25,10.86-2.52,5.19-2.52,5.19-5.75,9.38-11.61,9.21-6.47,0-7.9,2.58-3.17,7.47-7.08,8.25.56-17.74,1.72-24.1c0,0,5.29-17,17.17-13.71"></path><path class="cls-8" d="M24.86,297.06c4.51.59,11.77-5,13.66-8.92s10-18.61.46-19.18-16-3.8-19.88,1.1-5.18,17.84-5.18,17.84"></path><path class="cls-11" d="M167.5,291.58s-3.84-13.28-4.89-17.48c0,0-3.5-2.79-5.94.35s0,10.84,0,10.84"></path><line class="cls-18" x1="134.53" y1="291.46" x2="151.77" y2="292.86"></line><line class="cls-18" x1="135.23" y1="300.08" x2="152.47" y2="301.48"></line><line class="cls-18" x1="140.36" y1="308.94" x2="153.17" y2="310.1"></line><line class="cls-18" x1="27.35" y1="274.8" x2="41.33" y2="276.2"></line><line class="cls-18" x1="26.47" y1="281.97" x2="38.18" y2="283.19"></line><line class="cls-18" x1="24.03" y1="288.96" x2="35.04" y2="290.18"></line><path class="cls-8" d="M34.69,227.62s6.29-4.89,16.42-17.13,26.22-36,62.14-31.84"></path><path class="cls-8" d="M196.51,270a148.27,148.27,0,0,0-5.59-25.63"></path><path class="cls-7" d="M144.72,776.56s-9,3.2-3.88,7.17,32.92,16.18,57.37,15.43c20-.61,17.07-5.67,13.49-11.28"></path><path class="cls-7" d="M51.35,850.69s6.06,4.42,19.57-2.1,45.9-33.55,49.17-47.07"></path><path class="cls-7" d="M142.69,826.22s15.38,23.53,34.72,29.36,33.55-5.36,37.28-10.25"></path><circle class="cls-4" cx="85.66" cy="292.87" r="11.65"></circle><path d="M102,80.9a12.46,12.46,0,0,1-.51,1.27,11.34,11.34,0,0,1-.72,1.21l-.43.57a7.41,7.41,0,0,1-.55.59l-.59.56h0a.16.16,0,0,0-.09,0,.09.09,0,0,0,0,.09v.05h0l.07,0,.66.47.33.24a2.58,2.58,0,0,1,.35.3c.26.24.51.5.75.77l.35.4c.12.17.25.36.36.54a7.18,7.18,0,0,1,1,2.41,8.74,8.74,0,0,1,.22,1.31,9.85,9.85,0,0,1,0,1.33,7.25,7.25,0,0,1-.68,2.49,5.1,5.1,0,0,1-.55,1c-.19.29-.4.57-.62.85a10.94,10.94,0,0,1-1.13,1.13l-.07.06h0l-.22,0a.76.76,0,0,0-.53.27c-.09.18,0,.29.13.4l.21.17.12.12,0,0,.46.33a7.31,7.31,0,0,1,1,.84l.53.57a4,4,0,0,1,.51.68,7.3,7.3,0,0,1,.83,1.68,8.61,8.61,0,0,1,.36,1.86,9.81,9.81,0,0,1-.16,1.88,9.25,9.25,0,0,1-.62,1.69,8.74,8.74,0,0,1-.84,1.27l-.24.29-.2.2-.4.38-.4.36-.06,0c-.29.12-.67.2-1.08.34a1.79,1.79,0,0,0-1.11.74.76.76,0,0,0,.26.94,9.86,9.86,0,0,0,.85.64,5.21,5.21,0,0,1,.49.39s.44.35.76.62l.25.22.28.3c.18.2.36.4.52.61a6,6,0,0,1,.79,1.61,4.84,4.84,0,0,1,.19,1.76,4.38,4.38,0,0,1-.37,1.64,7.94,7.94,0,0,1-.34.72l-.41.54c-.14.16-.29.35-.42.48l-.41.35-.41.32-.37.23a9.18,9.18,0,0,1-1.36.69A37.16,37.16,0,0,1,95,126.05a8.46,8.46,0,0,0-1.71.64c-.37.21-.63.52-1,.55a.5.5,0,0,1-.43-.22,1.35,1.35,0,0,1-.29-.88,3,3,0,0,1,.36-1.46,6.57,6.57,0,0,1,.47-.76c.18-.22.38-.48.61-.72.87-.93,2-1.77,3.08-2.66.47-.42.9-1,.79-1.06a1,1,0,0,0,.18.11,1.26,1.26,0,0,0,.26.13.78.78,0,0,0,.18.11l.12,0h-.11l0,0h0a.34.34,0,0,0,.13,0l0,0-.06,0-.12.06c-.09.06-.07.07-.22.17a2.54,2.54,0,0,0-.48.44l-.1.12s0,0,0,0h0c-.1,0,0,0-.55-.17-.78-.29-1.68-.5-2.52-.79a13.37,13.37,0,0,1-4.37-2.21,6.14,6.14,0,0,1-1.47-1.65,5.91,5.91,0,0,1-.49-1.11c-.08-.2-.13-.42-.2-.64a3,3,0,0,1-.08-.32v-.33a6.51,6.51,0,0,1,.36-2.48,10.27,10.27,0,0,1,.48-1.07,10.71,10.71,0,0,1,.72-1l.42-.53c.15-.17.34-.34.52-.52a10.19,10.19,0,0,1,1.23-1c.47-.35,1-.68,1.54-1s1.12-.67,1.67-1l.41-.27s0,0,0,0,0,0,0,0h0l1,.88c0,.06.11.11.16.16a2.72,2.72,0,0,0,.38.29l.22.12.11,0,0,0a.8.8,0,0,0,.32.13.33.33,0,0,0-.2,0,.28.28,0,0,0,.18,0c.09,0-.06,0-.1,0a.58.58,0,0,0-.15.11s0,0-.08.07l-.21.15a2.89,2.89,0,0,0-.35.35,2.43,2.43,0,0,0-.14.2v0l-1,1.21h0v0s0,0,0,0l-.52-.19c-.68-.26-1.4-.48-2.12-.72a16.11,16.11,0,0,1-3.7-1.75,9.47,9.47,0,0,1-2.32-2.27,8.93,8.93,0,0,1-1.21-3.21,9.29,9.29,0,0,1,.55-3.59,8.47,8.47,0,0,1,2.12-3,20,20,0,0,1,4.22-2.86L92.64,90l-.07.07,0,0h0l1.7,1.46,0,0,0,0a4,4,0,0,0,1,.68.18.18,0,0,0-.11,0h.1l.07,0s.06,0,0,0a.72.72,0,0,0-.21.12l-.08.07-.25.19a2.52,2.52,0,0,0-.42.45l0,.06,0,0v0h0l-1.48,1.78v0l0,0,.07.07-1.28-.47-1.4-.48a17.62,17.62,0,0,1-2.55-1.1,9.61,9.61,0,0,1-3.31-2.81,5.65,5.65,0,0,1-.51-.82l-.24-.43c-.06-.15-.11-.32-.16-.48-.22-.64-.37-1.4-.56-2.16a8.53,8.53,0,0,1,3-7.1,28.57,28.57,0,0,1,4.68-3L91.3,76l-.07.08-.07.08h0"></path><path d="M189.39,78.1h0l-.07-.07c-.06,0-.21-.12,0,0a38.74,38.74,0,0,1,5,2.12,9,9,0,0,1,3,2.8,6.62,6.62,0,0,1,.82,1.69c.19.62.31,1.32.47,2l-.08,1.25,0,.6-.11.57a8.16,8.16,0,0,1-.79,2,10.64,10.64,0,0,1-3.64,3.58c-.87.54-1.79,1-2.7,1.56a3.54,3.54,0,0,0-.33.19l-.16.11c-.06,0,0,0-.06,0h0l-.12-.13c-.2-.21-.24-.3-.38-.45a5.56,5.56,0,0,0-.78-.75l-.22-.17A.65.65,0,0,1,189,95a2.33,2.33,0,0,0-.23-.19l-.26-.16-.24-.11a.44.44,0,0,0-.18-.09l-.09,0,.09,0,.14,0h-.12s-.2.07,0,0a.5.5,0,0,0,.18-.11l0,0,.13-.09.24-.19a2.09,2.09,0,0,0,.2-.22l.09-.11a.64.64,0,0,1,.13-.15,5.72,5.72,0,0,0,.66-.83q.15-.22.27-.45l.06-.11.12-.17h0s0,0,.11.06l.33.15c.91.36,1.85.7,2.71,1.08a11.16,11.16,0,0,1,3.93,2.66A6.92,6.92,0,0,1,199,99.39c.07.34.15.7.21,1l-.09,1.07a5.81,5.81,0,0,1-.43,1.91,8.39,8.39,0,0,1-2.23,3.09,19.15,19.15,0,0,1-4,2.61,11.09,11.09,0,0,0-1.07.62l-.11.06h0l-.06-.07-.32-.33a7.08,7.08,0,0,0-.69-.58,1.76,1.76,0,0,0-.39-.32,1.71,1.71,0,0,0-.23-.13l-.19-.09a.53.53,0,0,0-.15-.08c-.24-.06,0,0,.05,0s0,0-.09,0a2.82,2.82,0,0,0,.76-.63l.15-.19q.16-.16.3-.33c.1-.11.19-.23.28-.34s.2-.29.15-.24,0,0,0,0l.06.05.22.11c.66.31,1.37.56,2,.85a13.47,13.47,0,0,1,3.27,1.86,7.74,7.74,0,0,1,1.92,2.17,7.19,7.19,0,0,1,.84,2.77c-.06,2.55-1.35,4-3.07,5.38a20,20,0,0,1-3,1.8c-.53.27-1.06.52-1.53.81a1.84,1.84,0,0,1-.26.14l-.13,0v0l-.14-.11a2.5,2.5,0,0,0-.35-.21,1,1,0,0,1-.2-.1l-.13-.06h-.07s-.07,0,0,0l.12,0s.17,0,.07,0a.45.45,0,0,0-.2,0,.72.72,0,0,0,.23-.12.63.63,0,0,1,.15-.12c.1-.07.23-.18.18-.13s-.06,0,0,.08a5.9,5.9,0,0,0,1.83,1.37c1.58.92,3.22,1.89,3.9,3.22a2.43,2.43,0,0,1,.3.91,1.27,1.27,0,0,1,0,.68c-.11.36-.28.5-.47.52-.41,0-.81-.43-1.47-.57s-1.79-.31-3.73-.63a12.16,12.16,0,0,1-1.63-.37l-.46-.15-.52-.21a6.21,6.21,0,0,1-1.14-.62,4.67,4.67,0,0,1-.63-.52,3.8,3.8,0,0,1-.61-.69,7.89,7.89,0,0,1-.53-.9,7.75,7.75,0,0,1-.31-1,4,4,0,0,1-.1-1.1,3.94,3.94,0,0,1,.14-1.13,5.73,5.73,0,0,1,.39-1.08c.16-.3.33-.6.53-.9s.37-.46.57-.69a5.29,5.29,0,0,1,.52-.53c.09-.12.19-.22.28-.33l.54-.55c.3-.33.67-.68.43-1.22s-.85-.58-1.29-.64l-.65-.09-.27,0-.06,0-.2-.1a4.31,4.31,0,0,1-.5-.31l-.53-.37-.26-.19-.29-.27c-.2-.19-.38-.39-.57-.59l-.26-.31-.27-.4a6.18,6.18,0,0,1-.83-1.76,6.51,6.51,0,0,1-.29-2,6.28,6.28,0,0,1,.28-2c.1-.32.21-.64.34-1a7,7,0,0,1,.43-.77c.15-.24.31-.48.48-.71a6,6,0,0,1,.46-.53l.48-.5a3.33,3.33,0,0,1,.39-.34l.06-.08c.15-.2.29-.32.32-.48a.27.27,0,0,0-.1-.26.72.72,0,0,0-.31-.11h-.39l-.21-.12a6.33,6.33,0,0,1-.67-.42c-.23-.17-.46-.34-.68-.52a8.73,8.73,0,0,1-.77-.74,6.94,6.94,0,0,1-.72-.89,11.66,11.66,0,0,1-.64-1.15,8.42,8.42,0,0,1-.67-2.55,8.05,8.05,0,0,1,.27-2.64,10.29,10.29,0,0,1,.45-1.25,8,8,0,0,1,.58-1A8.7,8.7,0,0,1,183,88.6a4.8,4.8,0,0,1,.57-.52l.09-.06h0V88a.06.06,0,0,0,0-.09.09.09,0,0,0-.09,0h0a9.06,9.06,0,0,1-2.27-1.76A8.77,8.77,0,0,1,180.4,85c-.26-.37-.44-.78-.66-1.17,0,0-3.76-6.21.23-9.76"></path><circle cx="128.88" cy="16.47" r="15.47"></circle><circle cx="153.51" cy="15.47" r="15.47"></circle><circle cx="103.59" cy="22.8" r="15.47"></circle><circle cx="86.12" cy="41.27" r="12.98"></circle><circle cx="81.13" cy="57.91" r="12.98"></circle><circle cx="76.8" cy="73.21" r="10.98"></circle><circle cx="86.45" cy="88.19" r="10.98"></circle><circle cx="182.13" cy="22.8" r="15.47"></circle><circle cx="195.61" cy="38.6" r="12.98"></circle><circle cx="202.93" cy="55.24" r="12.98"></circle><circle cx="208.92" cy="73.21" r="10.98"></circle><circle cx="199.27" cy="88.19" r="10.98"></circle><path class="cls-15" d="M117.63,91.19a5.38,5.38,0,0,1,7.54,0"></path><path class="cls-15" d="M167.43,91.19a5.38,5.38,0,0,0-7.54,0"></path><path class="cls-19" d="M173.84,60.13s10.21,6.21,14.2,22.19"></path><path class="cls-19" d="M110.57,60.13s-10.2,6.21-14.19,22.19"></path><path class="cls-12" d="M158.09,134.37c1.92,3-4.63,10.1-15.42,10.12s-17.34-7.09-15.41-10.12,8.52-2.83,15.41-3C149.56,131.54,156.25,131.22,158.09,134.37Z"></path><path class="cls-8" d="M126.92,132.54A25.75,25.75,0,0,0,144,137.43"></path><path class="cls-8" d="M158.42,132.54a25.75,25.75,0,0,1-17.08,4.89"></path></g></g></g></svg>