<svg xmlns="http://www.w3.org/2000/svg" xmlns:xlink="http://www.w3.org/1999/xlink" viewBox="0 0 389.81 814.5"><defs><clipPath id="clip-path"><path class="cls-1" d="M189.57,299a119,119,0,0,1-19.76-7.4c-5-2.51-7.57-4.67-8-6.6l-.11-.52-.6-.24a27.39,27.39,0,0,1-13.68-18.44A35.42,35.42,0,0,1,151,241.14c7.06-13.18,21.11-20.59,34.16-18l.81.16,1.83-4.57.08-.14c.84-1.69,5.09-3.65,24.25,1.85s21.73,9.42,21.55,11.27v.13L225.48,277l42.23-35.58a1.5,1.5,0,0,1,1.09-.35l.29,0a1.51,1.51,0,0,1,.73.48l5.47,6.49a1.5,1.5,0,0,1-.18,2.11l-52.44,44.2-.39.3-1.06,5.83h0l0,.08,0,.14,0,.11c-.81,2.2-4.26,2.93-10.87,2.33A117.77,117.77,0,0,1,189.57,299Zm-8.76-66.35c-8.21-.44-16.45,4.75-21,13.24-5.68,10.59-3.78,22.86,4.41,28.55l1,.72,16.94-42.43Z"></path></clipPath></defs><g id="Capa_2" data-name="Capa 2"><g id="Capa_2-2" data-name="Capa 2"><path class="cls-2" d="M152.1,812.5c-4.82,0-9.72-1.23-14.46-2.42s-9.64-2.43-14.47-2.43c-10.77,0-19-4.88-19-7.32a11,11,0,0,0-1.68-5.37c-1-1.85-1.83-3.45-1.17-6.3a10,10,0,0,1,4.33-5.91l.68-.46.16-.8c.39-1.93.91-4.06,1.37-5.93a97.39,97.39,0,0,0,2.66-13.5c.74-7.11,0-17.86-.91-32.73-.85-13.24-1.91-29.7-2.35-49.69-.11-5-.22-10.78-.33-17l0-1.74-1.72-.21c-32.17-4-53.71-8.9-53.92-9a.5.5,0,0,1-.39-.55L81.74,405.7H79.47c-20.43-.06-39.64-.89-54.09-2.33C1.62,401,1.62,398.15,1.62,397.22v-10.7s0-.26,0-.26,0-.27,0-.35c0-3.76,17.26-5.49,23.76-6.14C33,379,41.89,378.41,51.79,378l4-.16-2.56-3.11a17.15,17.15,0,0,1-2.16-3.2.49.49,0,0,1,.13-.57l.07-.07.07-.07a.49.49,0,0,1,.18-.14l1.33-.52-.07-1.43a.59.59,0,0,1,0-.24c.66-1.44,2.42-2,4.12-2.56a15.29,15.29,0,0,0,2.56-1,6.94,6.94,0,0,1,3.57-.79,6.83,6.83,0,0,0,2.28-.3c.63-.21,1.35-.39,2-.57A12.32,12.32,0,0,0,72,361.5a24.76,24.76,0,0,1,5.34-2.73l1.34-.51,0-1.43c-.16-3.79-.47-11.09-.85-17.44l-.07-1.17-1.06-.51c-4.74-2.29-7.82-6.46-9.56-9.55l-.4-.69-.76-.24-.14-.05a1,1,0,0,1-.35-.25l-.45-.46-.62-.11a1.35,1.35,0,0,1-.32-.09l-.46-.15-.47-.15a2.46,2.46,0,0,1-.46-.23l-.42-.27-.49,0a3.55,3.55,0,0,1-.47-.06l-.35-.1-.54-.19-.55.13a1.18,1.18,0,0,1-.3,0,.93.93,0,0,1-.24,0l-.19-.06a3.43,3.43,0,0,1-.82-.27,5.26,5.26,0,0,1-.9-.57,1.15,1.15,0,0,1-.35-.49l-.19-.47-.4-.32a1.72,1.72,0,0,1-.33-.34,1.89,1.89,0,0,1-.24-.56l0-.2-.12-.23-.09-.19L55.4,321l-.51-.31a1.11,1.11,0,0,1-.23-.19l-.24-.25-.31-.15a3.32,3.32,0,0,1-.67-.45l-.06-.05-.07,0a1.32,1.32,0,0,1-.52-.7l-.09-.26-.15-.22a3.35,3.35,0,0,1-.3-.48l-.09-.17-.5-.59-.11-.1a2,2,0,0,1-.57-.74,9.45,9.45,0,0,1-.3-1,1.56,1.56,0,0,1,0-.51l0-.5-.21-.45a1.73,1.73,0,0,1-.16-.49l-.18-1.78-1.68-.12a2.94,2.94,0,0,1-.54-.09l-.35-.09-.41,0-.42,0h-.19a3.67,3.67,0,0,1-.54-.11l-.42-.11-.43.08a3.71,3.71,0,0,1-.48.05,2.83,2.83,0,0,1-.61-.09l-.29-.06h-.19A3.73,3.73,0,0,1,43,311l-.26,0-.31,0a3.39,3.39,0,0,1-.64-.05l-.24,0h-.18a3.16,3.16,0,0,1-.5-.07,5.1,5.1,0,0,1-.5-.19l-.31-.12-.81-.26-.26-.08-.14,0a2.13,2.13,0,0,1-.55-.11,3.7,3.7,0,0,1-.69-.34l-.15-.09a5.35,5.35,0,0,1-.88-.58l-.08-.07-.19-.12a3,3,0,0,1-.64-.47,1.58,1.58,0,0,1-.24-.41l-.21-.49-.43-.32a1.58,1.58,0,0,1-.32-.31,1.6,1.6,0,0,1-.23-.38l-.21-.5-.44-.32a1.25,1.25,0,0,1-.19-.15l.09-3.58-.46,0v-.1a3.19,3.19,0,0,1,.09-.66l0-.29a7.64,7.64,0,0,1,.17-.81l.09-.36a5.07,5.07,0,0,1,.19-.68,1.43,1.43,0,0,0,.09-.27,5.17,5.17,0,0,1,.25-.63,2.94,2.94,0,0,1,.38-.51l.17-.2.08-.11c.13-.2.31-.42.48-.64a7.3,7.3,0,0,1,.73-.81c.15-.13.33-.25.5-.37l.37-.26.15-.17a3.54,3.54,0,0,1,.52-.51c.26-.19.53-.37.79-.54l.38-.26.46-.32a2.82,2.82,0,0,1,.58-.25l.37-.11.31-.24a2.14,2.14,0,0,1,.47-.29l.27-.12.58-.26a2.33,2.33,0,0,1,.51-.11l.48-.09.2-.11.62-.23.24-.11a4.15,4.15,0,0,1,.49-.23,2.52,2.52,0,0,1,.47-.13l.33-.08,1-.45.15-.09a2.2,2.2,0,0,1,.63-.32,1.8,1.8,0,0,1,.51-.07h.39l.25,0a6.48,6.48,0,0,1,.92-.1l.34,0a4.2,4.2,0,0,1,.59-.05h.1c.18,0,.39,0,.59.07l.4.06.55.08.41.07.53.11.38.09.45,0c.12,0,.25,0,.39,0h.2l.49.06.5.06a3.89,3.89,0,0,1,.75.22l.41.14c.21.06.41.13.62.21l6.62,2.75L58.84,288a2.56,2.56,0,0,1-.16-.25l-.28-.59-.58-.3a1.14,1.14,0,0,1-.42-.35,1.19,1.19,0,0,1-.19-.54l-.07-.56-.36-.44a2.18,2.18,0,0,1-.29-.42,1.87,1.87,0,0,1-.19-.6l-.08-.43-.25-.36a2.18,2.18,0,0,1-.49-1.22l-.06-.43-.22-.36a1.36,1.36,0,0,1-.23-.57l-.17-1.59-1.59-.18c-11-1.26-17.27-4.44-19.06-9.71-2.86-8.45,8.78-31.46,35.59-70.36L70.88,197,65.1,193.1a.5.5,0,0,1-.15-.67C73.56,178.2,84.88,167.27,98.59,160l.82-.43.2-.91c3.23-14.74,14.21-65.48,19.76-99.13C125.89,20,144.74,2,159.49,2a17.62,17.62,0,0,1,7.34,1.58l.4.18h3.6l.37-.16a18,18,0,0,1,7-1.44c10.53,0,20.85,9.07,28.33,24.88l.07.14A52,52,0,0,1,212,41.65l0,.13a147.73,147.73,0,0,1,4,17.72c5.53,33.5,18.26,84.1,22,98.8l.21.82.73.42a103.38,103.38,0,0,1,24.18,19.54.49.49,0,0,1,0,.65l-2,2.36,1.72,1.28A195.05,195.05,0,0,1,281,198.62c4.1,4,9,8.83,14.45,14.44l1.39,1.43,1.43-1.39.11-.09a.57.57,0,0,1,.34-.11h.79l.66-.54a.46.46,0,0,1,.16-.11,1.07,1.07,0,0,1,.49-.1h.36l.92-.27.43-.41a.87.87,0,0,1,.59-.3h0a.71.71,0,0,1,.35.06l.63.33.7-.14.21,0a.59.59,0,0,1,.23,0l1,.37.87-.59a1.64,1.64,0,0,1,.54-.22l.24-.06.22-.11.17-.07,1.18-.3.27-1.19a.7.7,0,0,1,.25-.41,1,1,0,0,1,.63-.2l1.08,0,.56-.93a.81.81,0,0,1,.41-.38.84.84,0,0,1,.3-.06,1.12,1.12,0,0,1,.52.15l.43.21h.47a1.2,1.2,0,0,1,.28,0l1.18.31.82-.91a.89.89,0,0,1,.74-.28h.27l.25-.08a1.18,1.18,0,0,1,.31-.05h.12l.36,0,.35-.08.2,0,.86-.12.5-.72c3.72-5.34,10.12-14.64,11-16.81l.12-.27,0-.3a64.74,64.74,0,0,0-.55-9.32l0-.13a23.07,23.07,0,0,1,0-8.14l.11-.49-.13-.49a16.68,16.68,0,0,1,0-8.45c1.52-6.05,5.78-10.45,10.13-10.45h.2l2.53.08-.5-2.48c-3.91-19.23-6.2-31.62-6.61-35.82-.78-7.92,1.52-10.52,3-10.81h.09a.51.51,0,0,1,.49.39l8.56,35.61h3.89l8.57-35.61a.49.49,0,0,1,.48-.39c1.58.3,3.88,2.9,3.1,10.82-.38,3.92-2.41,15.07-5.88,32.24l-.34,1.71,1.65.58a4.52,4.52,0,0,1,.47.18c1.38.69,2.8,2.4,4,4.83l.19.39.34.28a15.85,15.85,0,0,1,5,8.46,16.15,16.15,0,0,1-.25,9.33,11.35,11.35,0,0,1-.47,1.1l-.43.88.54,1.12c0,.08.09.17.13.26a5.09,5.09,0,0,1-1.74,6.2l-1.5,1,.89,1.59a.5.5,0,0,1,.06.33,14,14,0,0,1-.85,2.8l0,.09,0,.09a6.43,6.43,0,0,1-.36.94,3.07,3.07,0,0,1-.35.51l-.11.12-.08.15c-3.25,5.46-9.55,8.55-13.32,10.4a26,26,0,0,0-2.51,1.32l-.26.19-.2.25c-.71.94-3.09,4.94-7.07,11.89l-.71,1.23.93,1.07a1.21,1.21,0,0,1,.22.38l.25.71.84.47a3.66,3.66,0,0,1,.66.41,1.29,1.29,0,0,1,.39.43l.2.33.3.23a.88.88,0,0,1,.38.65l0,1.28,1.17.54a1,1,0,0,1,.33.22l.48.59.79.15a.68.68,0,0,1,.41.19.61.61,0,0,1,.19.35l.16.77.63.45.15.12.19.11a2.56,2.56,0,0,1,.46.28l.18.14.2.1a1.93,1.93,0,0,1,.54.34l.49.51.18.19a.63.63,0,0,1,.21.43l.11.73.55.49a.86.86,0,0,1,.13.14,1.59,1.59,0,0,1,.24.61l.39,2.26,2.18-.7a1.57,1.57,0,0,1,.47-.09.81.81,0,0,1,.37.09l.11.06.11,0c.67.24,1,.52,1.09.92a2.56,2.56,0,0,1-.05.94c0,.16,0,.26-.05.36a1.33,1.33,0,0,1-.32.65l-.15.21-.1.25a1,1,0,0,1-.21.31l-.47.49-.06.68-.17.95.26.56a1,1,0,0,1,.1.35V235l0,.7.43.56a.69.69,0,0,1,.1.19l.06.14.07.12a1.57,1.57,0,0,1,.27.86.58.58,0,0,1-.06.28l-.35.67.18.74a.5.5,0,0,1,0,.17v.78l.34.52a1.68,1.68,0,0,1,.17.32,1.74,1.74,0,0,1,0,.91l0,.18v.19c0,.12,0,.33-.4.65l-.28.23-.18.32a5.64,5.64,0,0,1-.39.55l-.05.06-.43.67.05.67a1.77,1.77,0,0,1,0,.4l-.08.8.5.63a.76.76,0,0,1,.19.49,1.06,1.06,0,0,1-.15.57l-.56,1,.6,1a.72.72,0,0,1,.11.34,1.71,1.71,0,0,1,0,.31l-.16.68.3.63a.82.82,0,0,1,.09.39,2,2,0,0,1-.17.73l-.07.18,0,.2a1.18,1.18,0,0,1-.09.3l-.95,2.59,2.76.1a.68.68,0,0,1,.22.05,2.72,2.72,0,0,1,1.25,1,2.25,2.25,0,0,1,.21.9c0,.14,0,.26.05.37a4.47,4.47,0,0,1,0,1.13,1.63,1.63,0,0,1,0,.18l-.41,1.32,1.08.85.15.15.13.18.17.16a2.06,2.06,0,0,1,.28.3,3.34,3.34,0,0,0,.32.33l.27.27a.76.76,0,0,1,.19.39l.24,1.12,1.09.36a.52.52,0,0,1,.19.11l.12.09.23.13a2,2,0,0,1,.56.44,2.44,2.44,0,0,1,.56,1.57s0,.08,0,.11l-.24.74.32.69c.08.18.19.43-.4.94l-.5.43-.14.65a1.29,1.29,0,0,1-.24.53,2,2,0,0,1-.44.4l-.21.16-.17.2c-.11.13-.21.23-.29.31l-.7.69.12,1a.71.71,0,0,1-.15.62l-.1.11-.08.12a1.9,1.9,0,0,1-.68.7,1.35,1.35,0,0,1-.63.13h-.26l-.25.07a1,1,0,0,1-.32,0l-1.09-.05-.74.89a.75.75,0,0,1-.43.34l-.2,0a1,1,0,0,1-.53-.21l-.86-.58-1,.36a2.42,2.42,0,0,1-.42.12l-.82.16-.46.7a.72.72,0,0,1-.54.38h-.1a.41.41,0,0,1-.16,0l-.73-.22-.7.31-.16,0a4,4,0,0,0-.4.09l-.51.13-.57.06-.32,0-.14,0a5.48,5.48,0,0,1-.57.05h-.25l-.14,0a.82.82,0,0,1-.22,0,2,2,0,0,1-.47-.07l-.26-.08h-.27a3,3,0,0,1-.53,0l-.35-.07-.36.07a1.69,1.69,0,0,1-.35,0H346l-.31,0-.3.06a1.89,1.89,0,0,1-.38,0,.89.89,0,0,1-.44-.09,2.33,2.33,0,0,1-.48-.31l-.32-.23-.45-.15a3.45,3.45,0,0,1-.42-.14.67.67,0,0,1-.2-.12l-.52-.48-.71-.05-.18,0-.18-.09-.63-.46-.79.09a.63.63,0,0,1-.27-.06,1.62,1.62,0,0,1-.63-.67l-.07-.14-.15-.18a.63.63,0,0,1-.11-.19l-.34-.86-.88-.3a30,30,0,0,1-4.18-1.87c-2.07-1.06-3.61-1.8-4.81-1.8a2.58,2.58,0,0,0-.92.16,3.9,3.9,0,0,1-1.39.24c-2.32,0-5.52-1.77-8.79-4.85l-1.61-1.51-1.35,1.75a10.07,10.07,0,0,1-3.85,2.87,11.93,11.93,0,0,1-4,1,13.25,13.25,0,0,0-4.63,1.19l-2.35,1.13,1.71,2a28.88,28.88,0,0,0,3.22,2.89l1.17.95c1.63,1.37,2.79,4.28,3.28,8.19l.2,1.64,1.75.12c5.72,1.31,7,2.47,7.17,2.69l.37.43.54.16a14.76,14.76,0,0,0,2.8.39,17,17,0,0,1,2.74.35c4.78,1.21,9.13,3.53,9.29,5v.11l-.11,1.15.94.67a.41.41,0,0,1,.14.15l.05.07.05.07a.5.5,0,0,1,.06.5,16.17,16.17,0,0,1-1.79,2.73l-2.4,3.08,3.9.15c10.1.41,19.15,1,26.9,1.78,23.75,2.38,23.75,5.21,23.75,6.14a1.09,1.09,0,0,1,0,.18l0,.32,0,.33v10.48c0,3.75-17.25,5.48-23.75,6.14-15.05,1.5-35.05,2.33-56.32,2.33-19.28,0-37.87-.7-52.36-2l-2.63-.23,59.09,312.68a.49.49,0,0,1-.29.55c-21.69,9-48.06,15.18-78.37,18.24l-1.66.16-.14,1.67c-3.35,42.16-6.18,90.65-4.82,97.45.51,2.55,2.63,4.82,6.48,6.93l.51.28.59,0c.49,0,1-.05,1.49-.05a22.69,22.69,0,0,1,3.83.33,2,2,0,0,1,1.63,1.77l.13,1.25,2.75,1,.57-.13a20.71,20.71,0,0,1,4.54-.5,23.58,23.58,0,0,1,3.89.33,2,2,0,0,1,1.64,2.31,1.88,1.88,0,0,1-.22.59l-.75,1.41,1.21,1a4.77,4.77,0,0,1,1.89,3.95l-.06.92.65.64a4.85,4.85,0,0,1,.84,1.93,11.67,11.67,0,0,1-1.39,9.2c-2.49,4.26-7.23,7.47-13,8.79a24.51,24.51,0,0,1-5.57.61c-4.82,0-9.73-1.23-14.47-2.43s-9.63-2.42-14.46-2.42c-10.77,0-19-4.88-19-7.32a11,11,0,0,0-1.67-5.37c-1-1.85-1.83-3.45-1.17-6.3a10,10,0,0,1,4.33-5.92l.67-.45.17-.8c.36-1.81.81-3.67,1.37-5.93a100.11,100.11,0,0,0,2.66-13.5c.74-7.1.05-17.85-.91-32.73-.85-13.23-1.91-29.69-2.35-49.69l-.14-6.8h-2c-1.47,0-2.9,0-4.36,0-11.7,0-23.94-.4-36.38-1.17l-1.95-.12-.16,1.95c-3.63,44.36-6.69,96.5-5.3,103.4.51,2.55,2.62,4.82,6.47,6.93l.52.28.58,0c.49,0,1-.05,1.49-.05a22.69,22.69,0,0,1,3.83.33,2,2,0,0,1,1.64,1.77l.12,1.26,2.75,1,.57-.13a20.78,20.78,0,0,1,4.54-.5,23.79,23.79,0,0,1,3.9.33,2,2,0,0,1,1.63,2.31,1.88,1.88,0,0,1-.22.59l-.75,1.41,1.22,1a4.8,4.8,0,0,1,1.88,4l-.06.91.65.64a4.85,4.85,0,0,1,.84,1.93,11.67,11.67,0,0,1-1.39,9.2c-2.49,4.26-7.22,7.47-13,8.79A24.51,24.51,0,0,1,152.1,812.5Zm87.76-534.21,5.76,30.49,3.1-.31c6.84-.69,14.76-1.23,23.53-1.63l3.91-.18-2.43-3.06a16,16,0,0,1-1.89-2.87.5.5,0,0,1,.12-.57l.08-.07.06-.08a.59.59,0,0,1,.19-.13l1.33-.52-.07-1.43a.55.55,0,0,1,0-.24,4.06,4.06,0,0,1,2.39-1.95l1.56-.65-.38-1.64a6.26,6.26,0,0,1-.15-1.82,126.15,126.15,0,0,0-.38-22.72l-.21-1.94-1.94.17h-.11l-1.16-.06-.65,1a1,1,0,0,1-.29.31l-.61.43-.25.17-.19.23a2.12,2.12,0,0,1-.33.34l-.23.18-.17.24a1.2,1.2,0,0,1-.6.51.62.62,0,0,1-.23,0l-.2,0-.75-.19-.68.35a1.22,1.22,0,0,1-.51.08,6.33,6.33,0,0,1-.95-.09.74.74,0,0,1-.38-.18l-.83-.71-1.05.31a1.61,1.61,0,0,1-.39.07.76.76,0,0,1-.21,0,.85.85,0,0,1-.53-.44l-.52-.86-1-.1a1.61,1.61,0,0,1-.52-.11l-.28-.11-.48-.2-.22-.1-.25-.05a1.77,1.77,0,0,1-.55-.18l-.2-.12-.22-.07a1.3,1.3,0,0,1-.75-.45,1,1,0,0,1-.16-.42l-.63-3.38ZM288.19,258a1.75,1.75,0,0,1-.52.56l-.13.11-.15.16a2.25,2.25,0,0,1-.57.43l-.25.16a2.09,2.09,0,0,1-.47.24l-.43.17-.31.34a1.14,1.14,0,0,1-.5.34l-.16,0-.14.08a2.85,2.85,0,0,1-.39.17l-1.85.72.7,1.85c3.37,8.92,5.3,19.18,6.32,26.22l.45,3.13,2.64-1.76a2.17,2.17,0,0,0,.34-.24A22.83,22.83,0,0,1,298,288l1.9-.74-.77-1.88a4,4,0,0,0-1.58-1.93,18,18,0,0,1-6.7-9.85,6.11,6.11,0,0,1,.62-4.65c2.19-3.36,4.63-3.74,6.78-4.08a17.55,17.55,0,0,0,1.73-.33,29.94,29.94,0,0,0,5.3-2l2.18-1.07L306,259.58l-.21-.34-.37-.28c-1.76-1.22-4.38-2.68-6.84-2.68a5.21,5.21,0,0,0-1.33.16,14.1,14.1,0,0,1-3.35.4,13.21,13.21,0,0,1-3.25-.39l-1.85-.45-.55,1.81Zm28.35,6.85c2.28,2.43,6.52,5.9,9.32,5.9a3.24,3.24,0,0,0,1.13-.2,3.51,3.51,0,0,1,.6-.16l.18,0,.18-.07.1,0a11.75,11.75,0,0,0,4.56-1.87l1.09-.7-.22-1.36,0-.1,0-.54-.42-.48a1,1,0,0,1-.18-.28.81.81,0,0,1-.05-.49l.13-.68-.33-.62-.08-.18-.15-.2a2.88,2.88,0,0,1-.23-.34l-.17-.27-.24-.2a1.32,1.32,0,0,1-.4-.51c0-.13-.13-.37.18-.88l.2-.34.06-.4a1.09,1.09,0,0,1,.07-.25l.09-.28,0-.3a.41.41,0,0,1,0-.19l.63-1.5-1.34-.92-.23-.18-.28-.11a1.47,1.47,0,0,1-.55-.32l-.13-.13-.14-.1a2.72,2.72,0,0,1-.56-.47,1,1,0,0,1-.21-.74v-.38l-.14-.36,0-.12-.35-1.14-1.17-.24a1.07,1.07,0,0,1-.48-.2l-.74-.59-.94.2c-.48.1-.94.16-1.33.21a4.68,4.68,0,0,0-1.82.43l-2,1.13.58.76a12.39,12.39,0,0,1-2.45,2.46,5.74,5.74,0,0,0-1.78,1.88l-.07.15,0,.15a6.6,6.6,0,0,0-.25,2,12.31,12.31,0,0,1-.23,2.33L315.7,264Zm-85.68-47.47.59,1.19a37.53,37.53,0,0,1,3.36,10.19,25.09,25.09,0,0,1-1.37,13.91l-.22.55,4.61,24.41,7.4-6.23-.46-1.3a1.21,1.21,0,0,1-.05-.18l-.2-1.11-1.06-.41a.73.73,0,0,1-.5-.45,2.86,2.86,0,0,1-.12-.75l0-.37-.15-.33a1.47,1.47,0,0,1-.18-.74,1,1,0,0,1,.26-.59l.25-.3.11-.37a1.89,1.89,0,0,1,.06-.18l.15-.39,0-.41a3.79,3.79,0,0,1,0-.58,1.33,1.33,0,0,1,0-.24l.16-.63-.25-.6a.86.86,0,0,1-.05-.56,2.75,2.75,0,0,1,.24-.63c.05-.12.09-.21.12-.3a.94.94,0,0,1,.44-.51l1-.58v-1.12a.66.66,0,0,1,.21-.55,1.55,1.55,0,0,1,.58-.33l.17,0,.28-.16a.76.76,0,0,1,.37-.1l.67,0,.51-.42.18-.12.23-.11.19-.16a1.32,1.32,0,0,1,.62-.34l.15,0,.16,0,4.87,1.17-2.72-4.2-.13-.22-.22-.24a1.75,1.75,0,0,1-.33-.42l-.11-.21-.16-.19a1.45,1.45,0,0,1-.36-.61l0-.15a3.6,3.6,0,0,1-.14-1,2.59,2.59,0,0,1,.54-1.4c.21-.24.43-.48.64-.7a1.52,1.52,0,0,1,.36-.26l.49-.26.29-.47a1.19,1.19,0,0,1,.32-.37.63.63,0,0,1,.39-.13l.71.07.68-.39a.7.7,0,0,1,.17-.09l.21-.07.19-.12a1.8,1.8,0,0,1,.55-.25l.65-.15.44-.5a3.15,3.15,0,0,1,.43-.35l.25-.17.12-.12a.81.81,0,0,1,.23-.17l.68-.31.31-.68a.78.78,0,0,1,.21-.29,2.71,2.71,0,0,1,.67-.39l.26-.12.1-.07a.51.51,0,0,1,.29-.08l6.78.73-5.21-4.27c-11.56-9.33-19.53-15-23.68-16.76l-1.35-.58Zm59.79,33.12a4.61,4.61,0,0,0-2,1.79l-1.2,2,2.21.85a11.94,11.94,0,0,0,4.14.7,13,13,0,0,0,3.16-.37,6,6,0,0,1,.8-.14l1.52-.17.23-1.51a5.51,5.51,0,0,0,.06-.57l.47,0a5,5,0,0,0,1.75.74l.36.06a4.89,4.89,0,0,0,2.57.76,4.66,4.66,0,0,0,1.84-.39l.6.25.93-.88a9.24,9.24,0,0,1,3-1.84,5.53,5.53,0,0,0,2-1.31,4.9,4.9,0,0,0,1.39-3.09,3.29,3.29,0,0,0-.22-1.48l-.42-1.08-1.48-.21a6.58,6.58,0,0,0-.86-.18,5.27,5.27,0,0,0-1.76-.31,4.44,4.44,0,0,0-.63,0l-1,.13a3.85,3.85,0,0,0-.75.16,4.46,4.46,0,0,0-.63-.05l-.43,0a5.34,5.34,0,0,0-1.37.31,5.34,5.34,0,0,0-.8-.13,5,5,0,0,0-1.71-.47,4.37,4.37,0,0,0-.72-.45,4,4,0,0,0-.42-.2,4.62,4.62,0,0,0-2.4-1.23,5.12,5.12,0,0,0-.87-.08,5.29,5.29,0,0,0-2.1.45,5.11,5.11,0,0,0-4,2.91,4.65,4.65,0,0,0-.43,1.94,5.07,5.07,0,0,0-.61,1.29A4.86,4.86,0,0,0,290.65,250.46ZM79.14,248.78l23.36,1-.78-2.68a.44.44,0,0,1,0-.2l3.23-26.72-3.1-2.11Z"></path><path class="cls-2" d="M322.55,111a.51.51,0,0,1-.45-.28l-.47-.93-.23-.49c-.06-.13-.11-.24-.22-.45l-.22-.44c-.08-.13-.14-.25-.26-.49a.5.5,0,0,1,.22-.67.44.44,0,0,1,.22,0,.5.5,0,0,1,.45.27l.24.45c.06.12.13.24.24.48s.18.35.23.47l.22.46.47.94a.5.5,0,0,1-.22.67A.46.46,0,0,1,322.55,111Z"></path><path class="cls-2" d="M352.85,92.76a.5.5,0,0,1-.32-.11.52.52,0,0,1-.07-.71l2.33-2.79a.49.49,0,0,1,.39-.18.53.53,0,0,1,.32.11.51.51,0,0,1,.06.71l-2.33,2.79A.48.48,0,0,1,352.85,92.76Z"></path><path class="cls-2" d="M375.63,127.25a.54.54,0,0,1-.34-.19.46.46,0,0,1-.1-.37l.46-3.73a.49.49,0,0,1,.48-.44.57.57,0,0,1,.41.19.5.5,0,0,1,.1.37l-.46,3.73a.5.5,0,0,1-.49.44Z"></path><path class="cls-2" d="M385.93,177.58a.51.51,0,0,1-.48-.37l-1.4-5.13a.56.56,0,0,1,.05-.38.53.53,0,0,1,.3-.23l.13,0a.51.51,0,0,1,.49.37l1.4,5.13a.51.51,0,0,1-.05.38.49.49,0,0,1-.3.23Z"></path><path class="cls-3" d="M128.16,154.51s-36.7,7.69-55.11,40.55c0,0,1.52,4,2.45,4s2.33,1.86,2.33,1.86-27.49,41-32.15,50.57-9.09,18.64-6.06,21.2c0,0-7.23-4-3.73-13.75s32.85-56.62,32.85-56.62,4.9-4.66,1.87-6.52-4.9-4.66-.47-10.72,26.33-23.54,36.82-28S126.76,150.79,128.16,154.51Z"></path><path class="cls-4" d="M106.31,544.48s.93,92.74,1.86,135.15,4.66,69,3.26,82.49-8.39,27-2.33,30.75,8.86.47,18.18,3.73,17.24,3.73,27,3.26,20.5-7.92,14.44-13.05-26.56-7.45-28.43-16.77S144.52,668.45,151,608.8"></path><path class="cls-5" d="M127.28,799.4s7-23.3,26.09-20"></path><path class="cls-5" d="M140.79,803.12s7-23.3,26.1-20"></path><path d="M107.24,779.82s-6.06,2.33-7.46,8.39,2.8,7.92,2.8,12.12,9.78,9.32,21,9.32,22.83,7,35,4.19,18.17-12.58,15.84-20.5-5.59.93-8.85,3.26-21,4.19-31.69,1.86a163.55,163.55,0,0,0-20-3.26C109.57,794.74,101.18,789.14,107.24,779.82Z"></path><path class="cls-4" d="M189.72,537.48s.93,92.74,1.87,135.15,4.66,69,3.26,82.48-8.39,27-2.33,30.76,8.85.47,18.17,3.73,17.25,3.73,27,3.26,20.51-7.92,14.45-13.05-26.56-7.45-28.43-16.77,4.2-101.6,10.72-161.25"></path><path class="cls-5" d="M210.69,792.4s7-23.3,26.1-20"></path><path class="cls-5" d="M224.21,796.12s7-23.3,26.1-20"></path><path d="M190.65,772.82s-6.05,2.33-7.45,8.39,2.79,7.92,2.79,12.12,9.79,9.32,21,9.32,22.83,7,34.95,4.19,18.17-12.58,15.84-20.5-5.59.93-8.85,3.26-21,4.19-31.69,1.86a163.85,163.85,0,0,0-20-3.26C193,787.74,184.6,782.14,190.65,772.82Z"></path><path class="cls-6" d="M337.21,162.15a20.81,20.81,0,0,0-4.71,7.47c-1.4,4-.35,9.26-.35,9.26s.87,7.52.52,9.79-18,26.91-18,26.91"></path><path class="cls-6" d="M334.25,226.59S348.4,201.25,350,199.51s15.72-5.6,17.82-16.43"></path><ellipse class="cls-7" cx="340.22" cy="163.48" rx="12.32" ry="8.32" transform="translate(98.73 453.58) rotate(-75.89)"></ellipse><ellipse class="cls-7" cx="362.51" cy="163.48" rx="8.32" ry="12.32" transform="translate(-28.92 93.3) rotate(-14.11)"></ellipse><path class="cls-8" d="M355,162.75l-14.53-60.41s-3.54.7-2.6,10.27c.91,9.34,10.69,55.54,10.69,55.54"></path><path class="cls-8" d="M348,162.75l14.52-60.41s3.54.7,2.61,10.27c-.92,9.34-10.7,55.54-10.7,55.54"></path><path class="cls-4" d="M337.21,162.15a23.54,23.54,0,0,1,2-2,13.74,13.74,0,0,1,3.93-2.94c3.67-1.74,6.4,3.24,3.32,6.47s-3.5,5.94-3.5,5.94"></path><path class="cls-4" d="M361.07,170.12s-.18-9.52-2.05-13.89c-1.69-3.94-3.4-7,0-8.5s6.72,4.79,7.93,9.91a37.17,37.17,0,0,1,1.4,12.24"></path><path class="cls-4" d="M367.89,180.19a4.58,4.58,0,0,0,2.23-6c-1.12-2.62-3.29-4.94-5.52-5.5-3.75-.94-10.27-1.26-11.49,1s-.19,5.63,2.81,5.63,9.57,1.88,10.32,4.32C366.49,180.5,367.14,180.52,367.89,180.19Z"></path><path class="cls-6" d="M366.57,186.87a5.36,5.36,0,0,0,0-4.93,8.85,8.85,0,0,0-6.29-4.69c-6-1.13-7.28-1.94-8.73-1.22a3.47,3.47,0,0,0-.7,5.21c1,.94,1.59.81,4.5,2.53,1,.61,4.27,1.83,5.77,3s4.36,2.2,5.49.14Z"></path><path class="cls-6" d="M261.84,182.9A199.5,199.5,0,0,1,281.06,199c11.19,10.84,24.47,24.82,24.47,24.82l-23.38,20.35s-34.71-30.55-44.55-33.84"></path><path class="cls-4" d="M98.62,278.32,51.78,651.25S208.36,686.9,309,645L228.64,219.6l34.6-40.19s-29.36-33.9-64.56-28.46"></path><path class="cls-4" d="M222.46,207.14a37.64,37.64,0,0,1,12.23,21.67,25.15,25.15,0,0,1-16.77,28.31"></path><path class="cls-9" d="M225.84,315.11v10.81c0,4.4,35.63,8,79.57,8s79.57-3.57,79.57-8v-10.4"></path><ellipse class="cls-10" cx="305.41" cy="314.61" rx="79.57" ry="7.98"></ellipse><path class="cls-9" d="M2.5,386.41v10.81c0,4.4,35.63,8,79.57,8s79.58-3.57,79.58-8v-10.4"></path><ellipse class="cls-10" cx="82.07" cy="385.91" rx="79.57" ry="7.98"></ellipse><path class="cls-11" d="M313.22,250.53s-7.87,5.42-6.64,7,3.14,4.19-2.1,6.11-10.49,1.92-12.23,5.59-1.75,5.6,1.05,8.57,10,9.61,3.84,11.71-13.46,3.67-15.55,4.36-10.31,5.77-4.9,7.87c-.17,2.45,5.95,9.44,12.94,11.53s23.06.35,28.66-.87,8.91-3.5,11.35-6.12,5.95-8,1.93-9.61-9.26-3.32-11.71-4-6.47-1.75-8.39-2.1-1.57-6.29-4.54-8.91-7.34-7.86-5.6-8.56,3.5-2.45,6.12-3,6.29-1.4,7-3,.35-8,2.8-10,6.81-4.72,5.94-7.52S320,245.47,313.22,250.53Z"></path><path class="cls-1" d="M287.74,255.83c.08.46.53.35.46.89,0,.26.17.73,0,1s-.55.47-.75.73a4,4,0,0,1-.61.8,5,5,0,0,1-.86.51,6.81,6.81,0,0,1-.95.26c-.28.07-.69-.44-1-.4s-.78.08-1.11.09c-.35.33-.05.54-.22,1.1-.08.27.31.76.18,1.09s-1,.22-1.16.53-.06.65-.24.92a5.77,5.77,0,0,1-.63.68c-.21.24.15,1.12-.11,1.32s-.76.14-1.06.28-.75-.29-1.07-.22-.55.34-.89.34-.57.69-.88.74-.74-.46-1-.36-.8-.16-1.09,0a9.68,9.68,0,0,0-.82.61c-.28.16-.21.87-.47,1.05s-.46.47-.73.65-.95-.28-1.23-.11-.28.8-.57.94-.8-.32-1.11-.21-.39,1.06-.72,1.11-.7-.21-1-.21a6.85,6.85,0,0,1-1,0c-.31,0-.51-.75-.82-.8s-.77.66-1.07.6-.48-.75-.78-.82-.84.68-1.14.59-.31-1.14-.59-1.24-.78.27-1,.15-.63-.2-.89-.34-.27-.74-.5-.91a2.51,2.51,0,0,1-.59-.58c-.19-.28-.72-.37-.72-.68s-.26-.14-.6-.34-.26-.8-.6-.91-.72.4-1,.32-.56-.26-.88-.32-.57-.3-.88-.36-.7.34-1,.28-.5-.7-.8-.76-.64-.05-.94-.12-.49-.53-.79-.62-.52-.33-.8-.44-.77.23-1,.09-.34-.58-.58-.76-.85.06-1.1-.12-.06-1-.3-1.18-.63-.22-.87-.41-.59-.27-.82-.47-1,0-1.2-.18.52-1.18.35-1.44a3.4,3.4,0,0,1-.42-.71c-.1-.29-1-.38-1-.7a5.83,5.83,0,0,1,.1-1c0-.3-.23-.63-.21-1s.46-.61.48-.93-.46-.68-.42-1,.38-.61.43-.92-.21-.73-.14-1,.54-.55.64-.85a8.82,8.82,0,0,1,.41-.88,5.4,5.4,0,0,1,.52-.82,5.67,5.67,0,0,1,.71-.67,5.58,5.58,0,0,1,.66-.72c.26-.17.44-.62.74-.75a9.37,9.37,0,0,1,1-.28c.32-.1.81.54,1.12.48s.53-1,.83-1,.7.94,1,1,.63-.06.92,0,.68,0,.94,0c.6.11,1.38-.16,1.31-.35s-.32-.43-.56-.85c-.14-.24-.71-.27-.89-.57s0-.68-.18-1-.26-.55-.4-.84-1-.25-1.09-.54.63-.93.53-1.22-1-.38-1.09-.66a3.93,3.93,0,0,1-.09-1.05c0-.35.69-.49.88-.71s-.16-1,0-1.2.69-.23.91-.43.93.22,1.17.05.37-.4.65-.52.49,0,.8,0,.47-.46.79-.43.32-.75.63-1a4.35,4.35,0,0,0,.75-.49c.22-.21.44-.44.67-.69s.69-.25.92-.48.22-.78.46-1,.94.09,1.21-.08a3.4,3.4,0,0,1,.9-.23c.31-.09.49.09.83.12s.62-.3.94-.15.52.57.82.64.72-.44,1-.41.62.44.93.43.56-.75.87-.79.73.86,1,.82.54-.61.84-.66.69.36,1,.32.6-.07.9-.09.64-1,.92-1,.34,1.12.59,1.24,1.19-.42,1.34-.13-.06,1,.25,1,.65-.13,1-.21a6.32,6.32,0,0,0,.88-.38c.28-.11.34-.69.63-.84s.71,0,1-.14.74,0,1-.14.52-.39.79-.54.71,0,1-.17.37-.77.65-.87a3.51,3.51,0,0,1,.95-.18c.34,0,.51-.47.82-.57s.92.39,1.19.21.18-.84.42-1.06.28-.57.46-.83a4.83,4.83,0,0,0,.57-.72c.17-.37.79-.57.79-.82a3,3,0,0,1,.17-.82c.09-.27.46-.4.6-.69a3.89,3.89,0,0,1,.4-.72c.19-.26.22-.45.46-.62s.3-.33.6-.32.61-.24.9,0,.86.71,1.14.53a3.67,3.67,0,0,0,.8-.85c.16-.25-.49-1-.32-1.33s.46-.47.61-.76.51-.46.67-.75-.11-.85.07-1.12.54-.47.75-.71,1.05.16,1.3,0,.06-1.07.35-1.21.65-.51,1-.56.85.66,1.14.58a3.1,3.1,0,0,0,.87-.6c.33-.21.08-.78.25-1s.7-.35.86-.64.73,0,1.05-.22.28-.47.68-.55a6.76,6.76,0,0,0,1.09-.1c.32-.15.47-.67.7-.85s.68-.21.91-.39.26-.3.59-.34.54-.51.91-.36.73-.06,1,.14.34.6.66.6a2.37,2.37,0,0,0,.89-.22c.28-.1.89.34,1.17.17s.5-.45.77-.64.58-.3.83-.5,0-1,.24-1.21.38-.55.62-.74,1,.28,1.28.09.34-.59.6-.75.36-.75.63-.86.75-.53,1-.52a2.57,2.57,0,0,1,1.19.54c.36.32.24,1.06.47,1.08a1.47,1.47,0,0,0,1.17-.45c.17-.26-.19-.95,0-1.22a2,2,0,0,1,.94-.55c.26-.1.48.39.88.5s.66-.14,1,.06.7-.06,1,.07.38.72.68.82.53.52.83.6.71-.29,1-.23.68-.29,1-.25.51.78.82.82.75-.83,1.05-.79.52.82.82.86.66-.08.95,0,.73-.27,1-.19a7.43,7.43,0,0,1,1,.25,3.72,3.72,0,0,1,.92.54c.24.22.17.8.25,1.1s.16.79.42.89a2,2,0,0,0,1,0c.29-.05.47-.59.79-.7s.58-.28.89-.37.75.23,1.06.16.65.16,1,.15.5.26.81.35.65-.19.92,0a3.25,3.25,0,0,1,.58.71,7.21,7.21,0,0,0,.56.84c.23.23.65.29.9.49s.62.25.89.42.6.25.88.41.53.37.81.51.43.62.71.76.73,0,1,.18a9.73,9.73,0,0,1,.91.43c.28.21.23.72.4,1s-.18.52-.16.86.87.43,1.05.75-.07.79.15,1.06.25.64.48.88.71.19.94.42.39.5.62.72.23.66.47.88.85,0,1.08.23.81.07,1,.28.29.62.51.84.34.58.55.8,0,.82.25,1.05.85.14,1,.38a3.39,3.39,0,0,1,.37.88c.15.35-.33.5-.41.76-.16.52.56.38.91.4a2.71,2.71,0,0,0,.9.08c.31-.06.72.44,1,.42s.72-.37,1-.23,0,.55.12.95.89.54.85.94-.11.66-.2,1-.92.43-1,.71.73.78.69,1.05-.2.59-.22.86a3.92,3.92,0,0,0,.08.84c0,.37-.29.66-.21.9s.56.47.64.77a3.63,3.63,0,0,1,.19,1,6.31,6.31,0,0,1-.07,1c-.06.36-1,.59-1,.88a5.05,5.05,0,0,0,.2,1c.08.35,0,.74.12,1s.84.46.85.78a2.41,2.41,0,0,1-.32,1c-.12.25.11.84-.13,1.14s-.8.19-.9.53a5.3,5.3,0,0,0-.32,1c0,.31.35.66.34,1s-.18.63-.17,1,.42.63.43.95-.19.66-.17,1-.46.68-.44,1-.21.67-.2,1,1,.65,1,1-.85.62-.88.92a3.67,3.67,0,0,1-.12.88c-.12.35.29,1.08.05,1.26a8.52,8.52,0,0,0-.83.6,5.44,5.44,0,0,0-.68.72c-.28.4-.25.31-.13.55s0,.42.51.42c.31,0,.67.24,1,.16s.64-.16,1-.25.66.09,1,.06.74-.72,1-.62.18.73.37,1.06.53.4.6.79a3.37,3.37,0,0,1,0,.93c0,.58-.58.3-.73.4s-.07.68.31,1.27c.12.2.54.28.77.6s.54.32.75.61.38.46.56.68-.1.92.09,1.13.8.1,1,.3.36.54.56.72.13.83.33,1,.68.17.83.37.53.46.47.78a3.36,3.36,0,0,1-.46.82c-.28.49-.83,1-.75,1.16s.77.29.95.53.72.28.43.78a5.38,5.38,0,0,1-.4,1c-.21.27-.68.29-.84.52s0,.75-.15,1-.81.31-.93.54-.57.26-.8.47-.11.74-.45.92a7.85,7.85,0,0,1-.8.54c-.25.11-.57.19-.9.31s-.66.08-.95.18-.63.17-.92.25-.55.48-.85.55-.76-.44-1.06-.38-.55.55-.86.6-.65-.11-1-.07-.64-.06-1,0-.55.54-.87.59-.6.13-.92.18-.69-.32-1-.25-.58.59-.87.65-.75-.17-1-.11a8.49,8.49,0,0,1-1,0c-.35.06-.66.36-1,.33s-.55-.36-.91-.48-.54-.25-.88-.41-.49-.4-.82-.56-.9.5-1.17.38-.46-.45-.74-.55-.3-1-.57-1.1-.57-.22-.83-.32-.81.37-1.06.24-.14-.74-.33-.93-.21-.15-.25-.47-.25-.4-.15-.74-.46-.81-.37-1.06,1.11-.24,1.22-.47-.34-.88-.23-1.09c.2-.39.58-.6.5-.84s-.69.27-1.19.14c-.28-.08-.5-.56-.85-.67s-.78.22-1.1.09-.28-.94-.57-1.11-.9.08-1.14-.14.2-1,0-1.25-.36-.41-.43-.75-.23-.6-.33-.91-.35-.54-.47-.83,0-.69-.11-1-.66-.39-.79-.68-.08-.65-.2-.93-.57-.45-.69-.73.06-.72-.05-1,.24-.72.17-1-1.16-.53-1.15-.8.53-.71.77-.89a3.66,3.66,0,0,1,.89-.52c.32-.09,0,.46-.63-.09-.18-.17-.49-.35-.79-.64s-.15-.73-.41-1-.63-.34-.85-.59-.37-.57-.58-.82-.43-.54-.63-.79-.59-.42-.78-.68.33-1.05.16-1.31-.54-.47-.66-.74a2.54,2.54,0,0,1-.28-.9c0-.37.07-.59.44-.71s0,.27-.6.12c-.26-.06-.49-.45-.86-.53s-.47-.88-.81-1-.8.71-1.13.64-.56-.51-.87-.59-.81.36-1.12.26-.32-1.06-.61-1.18-1.05.49-1.3.33a3.58,3.58,0,0,1-.89-.83c-.23-.39-.1-.72-.27-.86s-.42-.41-.72-.11-.77.1-1,.39.33,1.17.06,1.41-.78.07-1.07.27-.36.61-.6.75a6.43,6.43,0,0,1-.9.31c-.31.13-.55.53-.81.59s-.73-.53-1-.54-.46-.31-.69-.42-.61.91-1.12,1c-.28,0-.7-.7-1.07-.66s-.66-.14-1-.09-.57.69-.91.73-.7-.29-1-.25-.61.55-.95.58-.66.28-1,.3-.72-.91-1-.9-.68.32-1,.3a5.64,5.64,0,0,1-1-.11c-.38-.08-.45-.46-.66-.64s-.45-.42-.69-.59-.65-.14-.89-.29-.64-.11-.89-.24-.44-.54-.7-.64-.74.43-1,.38a2.1,2.1,0,0,0-.75,0c-.21,0-.88-.31-1.05.08a7.45,7.45,0,0,0-.46.86c-.09.27-.19.58-.28.89s.6.81.51,1.11.06.67,0,1-.49.5-.6.78-.19.63-.33.89-.74.26-.92.48-.05,1-.31,1.16a2.66,2.66,0,0,1-1.14.11"></path><path class="cls-12" d="M287.74,255.83c.08.46.53.35.46.89,0,.26.17.73,0,1s-.55.47-.75.73a4,4,0,0,1-.61.8,5,5,0,0,1-.86.51,6.81,6.81,0,0,1-.95.26c-.28.07-.69-.44-1-.4s-.78.08-1.11.09c-.35.33-.05.54-.22,1.1-.08.27.31.76.18,1.09s-1,.22-1.16.53-.06.65-.24.92a5.77,5.77,0,0,1-.63.68c-.21.24.15,1.12-.11,1.32s-.76.14-1.06.28-.75-.29-1.07-.22-.55.34-.89.34-.57.69-.88.74-.74-.46-1-.36-.8-.16-1.09,0a9.68,9.68,0,0,0-.82.61c-.28.16-.21.87-.47,1.05s-.46.47-.73.65-.95-.28-1.23-.11-.28.8-.57.94-.8-.32-1.11-.21-.39,1.06-.72,1.11-.7-.21-1-.21a6.85,6.85,0,0,1-1,0c-.31,0-.51-.75-.82-.8s-.77.66-1.07.6-.48-.75-.78-.82-.84.68-1.14.59-.31-1.14-.59-1.24-.78.27-1,.15-.63-.2-.89-.34-.27-.74-.5-.91a2.51,2.51,0,0,1-.59-.58c-.19-.28-.72-.37-.72-.68s-.26-.14-.6-.34-.26-.8-.6-.91-.72.4-1,.32-.56-.26-.88-.32-.57-.3-.88-.36-.7.34-1,.28-.5-.7-.8-.76-.64-.05-.94-.12-.49-.53-.79-.62-.52-.33-.8-.44-.77.23-1,.09-.34-.58-.58-.76-.85.06-1.1-.12-.06-1-.3-1.18-.63-.22-.87-.41-.59-.27-.82-.47-1,0-1.2-.18.52-1.18.35-1.44a3.4,3.4,0,0,1-.42-.71c-.1-.29-1-.38-1-.7a5.83,5.83,0,0,1,.1-1c0-.3-.23-.63-.21-1s.46-.61.48-.93-.46-.68-.42-1,.38-.61.43-.92-.21-.73-.14-1,.54-.55.64-.85a8.82,8.82,0,0,1,.41-.88,5.4,5.4,0,0,1,.52-.82,5.67,5.67,0,0,1,.71-.67,5.58,5.58,0,0,1,.66-.72c.26-.17.44-.62.74-.75a9.37,9.37,0,0,1,1-.28c.32-.1.81.54,1.12.48s.53-1,.83-1,.7.94,1,1,.63-.06.92,0,.68,0,.94,0c.6.11,1.38-.16,1.31-.35s-.32-.43-.56-.85c-.14-.24-.71-.27-.89-.57s0-.68-.18-1-.26-.55-.4-.84-1-.25-1.09-.54.63-.93.53-1.22-1-.38-1.09-.66a3.93,3.93,0,0,1-.09-1.05c0-.35.69-.49.88-.71s-.16-1,0-1.2.69-.23.91-.43.93.22,1.17.05.37-.4.65-.52.49,0,.8,0,.47-.46.79-.43.32-.75.63-1a4.35,4.35,0,0,0,.75-.49c.22-.21.44-.44.67-.69s.69-.25.92-.48.22-.78.46-1,.94.09,1.21-.08a3.4,3.4,0,0,1,.9-.23c.31-.09.49.09.83.12s.62-.3.94-.15.52.57.82.64.72-.44,1-.41.62.44.93.43.56-.75.87-.79.73.86,1,.82.54-.61.84-.66.69.36,1,.32.6-.07.9-.09.64-1,.92-1,.34,1.12.59,1.24,1.19-.42,1.34-.13-.06,1,.25,1,.65-.13,1-.21a6.32,6.32,0,0,0,.88-.38c.28-.11.34-.69.63-.84s.71,0,1-.14.74,0,1-.14.52-.39.79-.54.71,0,1-.17.37-.77.65-.87a3.51,3.51,0,0,1,.95-.18c.34,0,.51-.47.82-.57s.92.39,1.19.21.18-.84.42-1.06.28-.57.46-.83a4.83,4.83,0,0,0,.57-.72c.17-.37.79-.57.79-.82a3,3,0,0,1,.17-.82c.09-.27.46-.4.6-.69a3.89,3.89,0,0,1,.4-.72c.19-.26.22-.45.46-.62s.3-.33.6-.32.61-.24.9,0,.86.71,1.14.53a3.67,3.67,0,0,0,.8-.85c.16-.25-.49-1-.32-1.33s.46-.47.61-.76.51-.46.67-.75-.11-.85.07-1.12.54-.47.75-.71,1.05.16,1.3,0,.06-1.07.35-1.21.65-.51,1-.56.85.66,1.14.58a3.1,3.1,0,0,0,.87-.6c.33-.21.08-.78.25-1s.7-.35.86-.64.73,0,1.05-.22.28-.47.68-.55a6.76,6.76,0,0,0,1.09-.1c.32-.15.47-.67.7-.85s.68-.21.91-.39.26-.3.59-.34.54-.51.91-.36.73-.06,1,.14.34.6.66.6a2.37,2.37,0,0,0,.89-.22c.28-.1.89.34,1.17.17s.5-.45.77-.64.58-.3.83-.5,0-1,.24-1.21.38-.55.62-.74,1,.28,1.28.09.34-.59.6-.75.36-.75.63-.86.75-.53,1-.52a2.57,2.57,0,0,1,1.19.54c.36.32.24,1.06.47,1.08a1.47,1.47,0,0,0,1.17-.45c.17-.26-.19-.95,0-1.22a2,2,0,0,1,.94-.55c.26-.1.48.39.88.5s.66-.14,1,.06.7-.06,1,.07.38.72.68.82.53.52.83.6.71-.29,1-.23.68-.29,1-.25.51.78.82.82.75-.83,1.05-.79.52.82.82.86.66-.08.95,0,.73-.27,1-.19a7.43,7.43,0,0,1,1,.25,3.72,3.72,0,0,1,.92.54c.24.22.17.8.25,1.1s.16.79.42.89a2,2,0,0,0,1,0c.29-.05.47-.59.79-.7s.58-.28.89-.37.75.23,1.06.16.65.16,1,.15.5.26.81.35.65-.19.92,0a3.25,3.25,0,0,1,.58.71,7.21,7.21,0,0,0,.56.84c.23.23.65.29.9.49s.62.25.89.42.6.25.88.41.53.37.81.51.43.62.71.76.73,0,1,.18a9.73,9.73,0,0,1,.91.43c.28.21.23.72.4,1s-.18.52-.16.86.87.43,1.05.75-.07.79.15,1.06.25.64.48.88.71.19.94.42.39.5.62.72.23.66.47.88.85,0,1.08.23.81.07,1,.28.29.62.51.84.34.58.55.8,0,.82.25,1.05.85.14,1,.38a3.39,3.39,0,0,1,.37.88c.15.35-.33.5-.41.76-.16.52.56.38.91.4a2.71,2.71,0,0,0,.9.08c.31-.06.72.44,1,.42s.72-.37,1-.23,0,.55.12.95.89.54.85.94-.11.66-.2,1-.92.43-1,.71.73.78.69,1.05-.2.59-.22.86a3.92,3.92,0,0,0,.08.84c0,.37-.29.66-.21.9s.56.47.64.77a3.63,3.63,0,0,1,.19,1,6.31,6.31,0,0,1-.07,1c-.06.36-1,.59-1,.88a5.05,5.05,0,0,0,.2,1c.08.35,0,.74.12,1s.84.46.85.78a2.41,2.41,0,0,1-.32,1c-.12.25.11.84-.13,1.14s-.8.19-.9.53a5.3,5.3,0,0,0-.32,1c0,.31.35.66.34,1s-.18.63-.17,1,.42.63.43.95-.19.66-.17,1-.46.68-.44,1-.21.67-.2,1,1,.65,1,1-.85.62-.88.92a3.67,3.67,0,0,1-.12.88c-.12.35.29,1.08.05,1.26a8.52,8.52,0,0,0-.83.6,5.44,5.44,0,0,0-.68.72c-.28.4-.25.31-.13.55s0,.42.51.42c.31,0,.67.24,1,.16s.64-.16,1-.25.66.09,1,.06.74-.72,1-.62.18.73.37,1.06.53.4.6.79a3.37,3.37,0,0,1,0,.93c0,.58-.58.3-.73.4s-.07.68.31,1.27c.12.2.54.28.77.6s.54.32.75.61.38.46.56.68-.1.92.09,1.13.8.1,1,.3.36.54.56.72.13.83.33,1,.68.17.83.37.53.46.47.78a3.36,3.36,0,0,1-.46.82c-.28.49-.83,1-.75,1.16s.77.29.95.53.72.28.43.78a5.38,5.38,0,0,1-.4,1c-.21.27-.68.29-.84.52s0,.75-.15,1-.81.31-.93.54-.57.26-.8.47-.11.74-.45.92a7.85,7.85,0,0,1-.8.54c-.25.11-.57.19-.9.31s-.66.08-.95.18-.63.17-.92.25-.55.48-.85.55-.76-.44-1.06-.38-.55.55-.86.6-.65-.11-1-.07-.64-.06-1,0-.55.54-.87.59-.6.13-.92.18-.69-.32-1-.25-.58.59-.87.65-.75-.17-1-.11a8.49,8.49,0,0,1-1,0c-.35.06-.66.36-1,.33s-.55-.36-.91-.48-.54-.25-.88-.41-.49-.4-.82-.56-.9.5-1.17.38-.46-.45-.74-.55-.3-1-.57-1.1-.57-.22-.83-.32-.81.37-1.06.24-.14-.74-.33-.93-.21-.15-.25-.47-.25-.4-.15-.74-.46-.81-.37-1.06,1.11-.24,1.22-.47-.34-.88-.23-1.09c.2-.39.58-.6.5-.84s-.69.27-1.19.14c-.28-.08-.5-.56-.85-.67s-.78.22-1.1.09-.28-.94-.57-1.11-.9.08-1.14-.14.2-1,0-1.25-.36-.41-.43-.75-.23-.6-.33-.91-.35-.54-.47-.83,0-.69-.11-1-.66-.39-.79-.68-.08-.65-.2-.93-.57-.45-.69-.73.06-.72-.05-1,.24-.72.17-1-1.16-.53-1.15-.8.53-.71.77-.89a3.66,3.66,0,0,1,.89-.52c.32-.09,0,.46-.63-.09-.18-.17-.49-.35-.79-.64s-.15-.73-.41-1-.63-.34-.85-.59-.37-.57-.58-.82-.43-.54-.63-.79-.59-.42-.78-.68.33-1.05.16-1.31-.54-.47-.66-.74a2.54,2.54,0,0,1-.28-.9c0-.37.07-.59.44-.71s0,.27-.6.12c-.26-.06-.49-.45-.86-.53s-.47-.88-.81-1-.8.71-1.13.64-.56-.51-.87-.59-.81.36-1.12.26-.32-1.06-.61-1.18-1.05.49-1.3.33a3.58,3.58,0,0,1-.89-.83c-.23-.39-.1-.72-.27-.86s-.42-.41-.72-.11-.77.1-1,.39.33,1.17.06,1.41-.78.07-1.07.27-.36.61-.6.75a6.43,6.43,0,0,1-.9.31c-.31.13-.55.53-.81.59s-.73-.53-1-.54-.46-.31-.69-.42-.61.91-1.12,1c-.28,0-.7-.7-1.07-.66s-.66-.14-1-.09-.57.69-.91.73-.7-.29-1-.25-.61.55-.95.58-.66.28-1,.3-.72-.91-1-.9-.68.32-1,.3a5.64,5.64,0,0,1-1-.11c-.38-.08-.45-.46-.66-.64s-.45-.42-.69-.59-.65-.14-.89-.29-.64-.11-.89-.24-.44-.54-.7-.64-.74.43-1,.38a2.1,2.1,0,0,0-.75,0c-.21,0-.88-.31-1.05.08a7.45,7.45,0,0,0-.46.86c-.09.27-.19.58-.28.89s.6.81.51,1.11.06.67,0,1-.49.5-.6.78-.19.63-.33.89-.74.26-.92.48-.05,1-.31,1.16a2.66,2.66,0,0,1-1.14.11"></path><line class="cls-13" x1="101.76" y1="217.86" x2="77.99" y2="250.01"></line><path class="cls-6" d="M145.22,238.83s13.77-4.72,17.9-6c0,0,4.2,1.55,2.77,5.27s-5.88,4.21-5.88,4.21"></path><path class="cls-1" d="M189.57,299a119,119,0,0,1-19.76-7.4c-5-2.51-7.57-4.67-8-6.6l-.11-.52-.6-.24a27.39,27.39,0,0,1-13.68-18.44A35.42,35.42,0,0,1,151,241.14c7.06-13.18,21.11-20.59,34.16-18l.81.16,1.83-4.57.08-.14c.84-1.69,5.09-3.65,24.25,1.85s21.73,9.42,21.55,11.27v.13L225.48,277l42.23-35.58a1.5,1.5,0,0,1,1.09-.35l.29,0a1.51,1.51,0,0,1,.73.48l5.47,6.49a1.5,1.5,0,0,1-.18,2.11l-52.44,44.2-.39.3-1.06,5.83h0l0,.08,0,.14,0,.11c-.81,2.2-4.26,2.93-10.87,2.33A117.77,117.77,0,0,1,189.57,299Zm-8.76-66.35c-8.21-.44-16.45,4.75-21,13.24-5.68,10.59-3.78,22.86,4.41,28.55l1,.72,16.94-42.43Z"></path><g class="cls-14"><line class="cls-15" x1="190.85" y1="227.18" x2="170.04" y2="279.39"></line></g><ellipse class="cls-6" cx="210.69" cy="225.43" rx="3.73" ry="22.37" transform="translate(-64.12 365.73) rotate(-73.98)"></ellipse><path class="cls-6" d="M219.75,300.27c-.85,3-14.18,1.75-29.76-2.73S162.46,287,163.31,284.06"></path><line class="cls-6" x1="163.31" y1="284.06" x2="189.19" y2="219.25"></line><line class="cls-6" x1="219.75" y1="300.27" x2="232.19" y2="231.6"></line><path class="cls-6" d="M161.78,282.88c-13.49-7.23-17.73-25.6-9.46-41,7.16-13.35,21.36-20.12,33.8-17"></path><path class="cls-6" d="M165.09,276.71c-10.07-5.4-13-19.55-6.6-31.55,5.46-10.18,15.95-15.58,25.16-13.69"></path><polyline class="cls-6" points="223.42 280.72 268.68 242.57 274.14 249.06 221.64 293.31"></polyline><path class="cls-2" d="M129.49,274.24s7.46.82,10.14-2,5.36-1.63,8.27-.46,11.3-1.52,14.44-7.81,5.13-13.05,4.08-16.31-14.21-8.39-19.22-8-10.14,7.57-12.12,12.58S129.49,274.24,129.49,274.24Z"></path><line class="cls-6" x1="133.8" y1="251.64" x2="64.01" y2="248.61"></line><path class="cls-16" d="M132.7,256.11s4.57-12.18,9.58-15.92,11.06.15,20.12,3.14,1.66,14.46.29,18.56c-1.63,4.9-7.22,11.94-11.44,10.21a66,66,0,0,0-7.18-2.05c-1.25-.32-2-1-2.74.05-1.51,2.34-4.9,3.95-14.29,4.61-36.46,2.56-86.54,10.38-92-5.83-3.42-10.09,15.73-41.24,36-70.6"></path><line class="cls-17" x1="163.16" y1="251.41" x2="155.28" y2="248.56"></line><line class="cls-17" x1="162.69" y1="261.43" x2="150.78" y2="255.95"></line><line class="cls-17" x1="158.25" y1="268.06" x2="146.28" y2="263.34"></line><path class="cls-6" d="M148.57,117.91c4.26,21.37-9.26,33.49-9.26,33.49H138s9.69,18.33,31,33.71c21.32-15.38,31-33.71,31-33.71h-1.3s-13.51-12.12-9.26-33.49"></path><path class="cls-6" d="M128.73,152.37s12.59,21.9,40.55,43.34a195,195,0,0,0,39.61-42.41"></path><path class="cls-6" d="M138,151S93,147.6,65.76,192.69L105.84,220l-3.26,27"></path><circle class="cls-18" cx="270.69" cy="246.28" r="4.19"></circle><path class="cls-6" d="M308.85,290.73s.06-8.44-3.32-11.27c-3.23-2.71-7.69-5.68-4-7.6s6.12-1,9-2.36,4.54-3,5.24-6.47c.49-2.42,0-2.62.53-4.54s3.49-2.8,4.89-5.6,4.28-.61,7.25-3.4,6.12-1.75,7.34-3.85,1.4-5.07,3.32-4.72"></path><path class="cls-6" d="M299.94,290.2s1.74-4.89-1.75-7.16-8.56-9.79-5.94-13.81,5.41-3.49,8.21-4.19,9.44-3.32,7.86-4.72-6.64-5.42-10.83-4.37-9.44,0-10.66-3"></path><path class="cls-6" d="M308.5,235.86s2.1,6.64,5.07,8.21,2.09,6.64-1.92,8.21-5.25,4.9-4.9,7"></path><path class="cls-6" d="M316.45,265s6.9,7.51,11.1,5.94,11.18,7.69,18.17,2.62"></path><path class="cls-6" d="M336.29,266.26s-3.32,3.76-7.78,4.46"></path><path class="cls-6" d="M311,289.51s6.11,1.39,7,2.62,4.54.87,6.64,1.4,8.73,3,8.91,4.54"></path><path class="cls-6" d="M299.06,288.28a26,26,0,0,0-5.59,2.8c-1.75,1.4-4.72,1.75-6.82,2.45s-3.49-.18-5.76,1-5.59,1.4-6.47,3.32"></path><path class="cls-6" d="M334.54,300.34c0,2.22-13.81,4-30.85,4s-30.84-1.8-30.84-4"></path><path class="cls-6" d="M334.66,300.52s-6.46,13.8-29,13.8h-4c-22.54,0-29-13.8-29-13.8"></path><path class="cls-3" d="M269.62,248.09s7.78,14,5.78,43.4a8.3,8.3,0,0,0,8.29,8.85h0a8.32,8.32,0,0,0,8.24-9.45c-1.84-13.52-6.66-37.62-18.16-45.51,0,0-1.79-1.44-3.54-.74C268.24,245.43,269.35,247.4,269.62,248.09Z"></path><path class="cls-19" d="M280.24,274.47a72.74,72.74,0,0,1,.12,8.16"></path><path class="cls-19" d="M275.24,253a49.21,49.21,0,0,1,3.25,9.79"></path><path class="cls-6" d="M353.82,183.08s-4-1.23-5.59,1c-2.27,3.32-.18,5.59,5.24,7.51,4.13,1.47,10.49,0,9.79-2.79"></path><path class="cls-1" d="M322.55,107.64c.23.46.22.47.46.93s.24.46.47.93.22.47.45.94"></path><path class="cls-12" d="M322.55,107.64c.23.46.22.47.46.93s.24.46.47.93.22.47.45.94"></path><line class="cls-20" x1="356.56" y1="89.47" x2="354.23" y2="92.26"></line><line class="cls-20" x1="377.53" y1="123.02" x2="377.06" y2="126.75"></line><line class="cls-20" x1="385.92" y1="171.95" x2="387.31" y2="177.08"></line><path class="cls-11" d="M84.67,356.21s-6.29,3.15-9.79,4.55S59.16,365,57.93,365.65s-5.59,5.07-3.14,9.44,14.85,8,23.07,9.61,19.57-.87,24.29-3.32,8-5.24,9.26-7,2.27-5.77-2.1-8-12.93-4-15.38-4.72"></path><path class="cls-11" d="M78.26,326.91l.94,34s6.52,1.17,9.55.93l-2.1-37"></path><path class="cls-1" d="M59.3,295.46a2.28,2.28,0,0,0-.08-.95,4.85,4.85,0,0,0-.41-.88,5.44,5.44,0,0,0-.57-.77,5.66,5.66,0,0,0-.73-.62,4,4,0,0,0-.74-.6,6.79,6.79,0,0,0-.9-.29,5.16,5.16,0,0,0-.92-.19c-.33-.05-.64-.23-1-.27s-.67,0-1-.05l-1-.12c-.33-.05-.64-.2-1-.23s-.64-.18-1-.2-.66,0-1,0-.63.24-.95.29a8.05,8.05,0,0,0-1,.07,7.2,7.2,0,0,0-.94.29c-.28.12-.51.33-.78.45s-.58.19-.85.29-.58.19-.86.29l-.85.28c-.29.11-.58.19-.85.28s-.53.36-.78.47a6.72,6.72,0,0,0-.8.37c-.23.14-.56.24-.87.44s-.52.37-.8.56-.55.35-.81.54-.46.49-.71.69-.51.43-.73.63a5.19,5.19,0,0,0-.66.69c-.18.22-.42.41-.59.66a8.33,8.33,0,0,0-.4.79,5.89,5.89,0,0,0-.37.8,6.07,6.07,0,0,0-.31.82,7.2,7.2,0,0,0-.23.86,8.18,8.18,0,0,0-.08.89,8.14,8.14,0,0,1,0,1.08c-.07.44-.37.73-.38,1a2,2,0,0,0,.45,1,5.93,5.93,0,0,0,.61.88c.22.25.4.52.59.75s.54.41.73.64.25.63.46.85a5.33,5.33,0,0,0,.74.61,4.61,4.61,0,0,0,.79.55,6.89,6.89,0,0,0,.89.35c.3.09.59.13.86.22s.54.28.81.37.59.09.87.17l.85.2c.28.05.57.08.87.11s.57-.07.88-.07.67.06,1,.08.66.07,1,.09.65.16,1,.18.67-.09,1-.07.66.06,1,.06a5.57,5.57,0,0,1,1,.09c.33.06.61.26.92.3a3.51,3.51,0,0,0,.95-.13,2.76,2.76,0,0,0,.93-.21c.25-.13.55-.21.82-.33s.5-.37.76-.48l.83-.33c.49-.2.39-.23.8-.38"></path><path class="cls-12" d="M59.3,295.46a2.28,2.28,0,0,0-.08-.95,4.85,4.85,0,0,0-.41-.88,5.44,5.44,0,0,0-.57-.77,5.66,5.66,0,0,0-.73-.62,4,4,0,0,0-.74-.6,6.79,6.79,0,0,0-.9-.29,5.16,5.16,0,0,0-.92-.19c-.33-.05-.64-.23-1-.27s-.67,0-1-.05l-1-.12c-.33-.05-.64-.2-1-.23s-.64-.18-1-.2-.66,0-1,0-.63.24-.95.29a8.05,8.05,0,0,0-1,.07,7.2,7.2,0,0,0-.94.29c-.28.12-.51.33-.78.45s-.58.19-.85.29-.58.19-.86.29l-.85.28c-.29.11-.58.19-.85.28s-.53.36-.78.47a6.72,6.72,0,0,0-.8.37c-.23.14-.56.24-.87.44s-.52.37-.8.56-.55.35-.81.54-.46.49-.71.69-.51.43-.73.63a5.19,5.19,0,0,0-.66.69c-.18.22-.42.41-.59.66a8.33,8.33,0,0,0-.4.79,5.89,5.89,0,0,0-.37.8,6.07,6.07,0,0,0-.31.82,7.2,7.2,0,0,0-.23.86,8.18,8.18,0,0,0-.08.89,8.14,8.14,0,0,1,0,1.08c-.07.44-.37.73-.38,1a2,2,0,0,0,.45,1,5.93,5.93,0,0,0,.61.88c.22.25.4.52.59.75s.54.41.73.64.25.63.46.85a5.33,5.33,0,0,0,.74.61,4.61,4.61,0,0,0,.79.55,6.89,6.89,0,0,0,.89.35c.3.09.59.13.86.22s.54.28.81.37.59.09.87.17l.85.2c.28.05.57.08.87.11s.57-.07.88-.07.67.06,1,.08.66.07,1,.09.65.16,1,.18.67-.09,1-.07.66.06,1,.06a5.57,5.57,0,0,1,1,.09c.33.06.61.26.92.3a3.51,3.51,0,0,0,.95-.13,2.76,2.76,0,0,0,.93-.21c.25-.13.55-.21.82-.33s.5-.37.76-.48l.83-.33c.49-.2.39-.23.8-.38"></path><path class="cls-1" d="M97.32,295.94c.46-.11.41.13,1,0,.27-.07.61-.07.95-.17s.61-.12.93-.21.54-.4.85-.51.58-.25.88-.36.68,0,1-.13.64-.17.92-.29.5-.48.76-.63a5.55,5.55,0,0,0,.82-.48,1.81,1.81,0,0,0,.62-.71c.08-.21-.09-.58,0-1s.38-.54.44-.88.25-.59.3-.92-.31-.68-.26-1,.34-.59.39-.91,0-.64,0-1,.31-.61.35-.93.08-.64.11-1,.12-.64.15-.95-.22-.69-.19-1,.11-.66.14-.95.21-.67.23-.95a3.79,3.79,0,0,0-.06-1,6.64,6.64,0,0,0,0-.94c0-.28,0-.6-.08-.93s.06-.65,0-.95-.21-.65-.24-.93c-.06-.54,0-.45-.07-.92s-.22-.33-.47-.91a4.34,4.34,0,0,0-.5-.83c-.18-.24-.15-.71-.41-1s-.73-.13-.93-.38-.27-.56-.45-.81-.14-.64-.3-.89-.63-.33-.79-.59-.14-.64-.29-.88a6.77,6.77,0,0,0-.64-.66,3.06,3.06,0,0,0-.54-.69,3.09,3.09,0,0,1-.75-.6c-.16-.23-.09-.65-.25-.93s-.39-.48-.54-.74-.29-.54-.45-.79a4.53,4.53,0,0,0-.56-.69c-.26-.26-.11-.6-.16-.89a4.32,4.32,0,0,0-.27-.92c-.11-.23-.44-.36-.73-.6a4.28,4.28,0,0,0-.79-.44,7.22,7.22,0,0,0-.83-.4c-.33-.11-.56-.42-.83-.54s-.68-.14-.95-.27-.59-.31-.86-.45-.49-.47-.78-.62-.66-.06-1-.19-.55-.27-.9-.37-.62,0-1-.11-.6-.17-.94-.23-.68,0-1-.08-.58-.52-.85-.58-.76.3-1,.24-.6-.22-.9-.26a8,8,0,0,0-.92-.05c-.26,0-.58-.32-1-.3s-.58.23-.94.26-.66-.13-1-.13-.67.15-1,.12-.69.12-1,.07S79.34,257,79,257s-.62-.28-.94-.31a6.51,6.51,0,0,0-1,0c-.3,0-.55.44-.89.52a5.78,5.78,0,0,0-.91.23c-.29.12-.71-.08-1,0s-.51.42-.8.52-.57.27-.86.36-.64.08-.94.17-.64.06-.93.15-.53.43-.81.52-.73-.07-1,0a3.58,3.58,0,0,0-.78.58c-.21.16-.52.27-.85.46l-.86.47c-.27.15-.6.26-.89.44s-.54.38-.82.57-.41.54-.67.75-.68.24-.92.47a8.71,8.71,0,0,1-.62.77c-.25.22-.3.68-.56.9s-.59.32-.84.54-.61.31-.85.54-.49.46-.72.71a9.63,9.63,0,0,0-.72.71,8.27,8.27,0,0,0-.59.83c-.17.29,0,.73-.16,1.05s-.48.52-.59.79-.05.69-.14,1-.31.59-.38.89.16.64.11,1-.5.54-.53.89.23.63.21,1-.38.58-.4.93,0,.61,0,1,.23.72.2,1-.28.68-.32,1,.22.76.17,1.06-.29.68-.32,1a3.89,3.89,0,0,0,.13,1,4.43,4.43,0,0,0,.27,1c.11.27,0,.7.16,1.05s.72.43.88.72.2.7.36,1,.12.79.3,1.05.78.32,1,.57.29.65.51.91.23.69.46,1a7.41,7.41,0,0,0,.67.69c.25.24.77.07,1,.23s.43.51.69.64.63.12.91.26.55.5.88.68a7.48,7.48,0,0,0,1.06.27c.34.12.65.53,1,.53"></path><path class="cls-12" d="M97.32,295.94c.46-.11.41.13,1,0,.27-.07.61-.07.95-.17s.61-.12.93-.21.54-.4.85-.51.58-.25.88-.36.68,0,1-.13.64-.17.92-.29.5-.48.76-.63a5.55,5.55,0,0,0,.82-.48,1.81,1.81,0,0,0,.62-.71c.08-.21-.09-.58,0-1s.38-.54.44-.88.25-.59.3-.92-.31-.68-.26-1,.34-.59.39-.91,0-.64,0-1,.31-.61.35-.93.08-.64.11-1,.12-.64.15-.95-.22-.69-.19-1,.11-.66.14-.95.21-.67.23-.95a3.79,3.79,0,0,0-.06-1,6.64,6.64,0,0,0,0-.94c0-.28,0-.6-.08-.93s.06-.65,0-.95-.21-.65-.24-.93c-.06-.54,0-.45-.07-.92s-.22-.33-.47-.91a4.34,4.34,0,0,0-.5-.83c-.18-.24-.15-.71-.41-1s-.73-.13-.93-.38-.27-.56-.45-.81-.14-.64-.3-.89-.63-.33-.79-.59-.14-.64-.29-.88a6.77,6.77,0,0,0-.64-.66,3.06,3.06,0,0,0-.54-.69,3.09,3.09,0,0,1-.75-.6c-.16-.23-.09-.65-.25-.93s-.39-.48-.54-.74-.29-.54-.45-.79a4.53,4.53,0,0,0-.56-.69c-.26-.26-.11-.6-.16-.89a4.32,4.32,0,0,0-.27-.92c-.11-.23-.44-.36-.73-.6a4.28,4.28,0,0,0-.79-.44,7.22,7.22,0,0,0-.83-.4c-.33-.11-.56-.42-.83-.54s-.68-.14-.95-.27-.59-.31-.86-.45-.49-.47-.78-.62-.66-.06-1-.19-.55-.27-.9-.37-.62,0-1-.11-.6-.17-.94-.23-.68,0-1-.08-.58-.52-.85-.58-.76.3-1,.24-.6-.22-.9-.26a8,8,0,0,0-.92-.05c-.26,0-.58-.32-1-.3s-.58.23-.94.26-.66-.13-1-.13-.67.15-1,.12-.69.12-1,.07S79.34,257,79,257s-.62-.28-.94-.31a6.51,6.51,0,0,0-1,0c-.3,0-.55.44-.89.52a5.78,5.78,0,0,0-.91.23c-.29.12-.71-.08-1,0s-.51.42-.8.52-.57.27-.86.36-.64.08-.94.17-.64.06-.93.15-.53.43-.81.52-.73-.07-1,0a3.58,3.58,0,0,0-.78.58c-.21.16-.52.27-.85.46l-.86.47c-.27.15-.6.26-.89.44s-.54.38-.82.57-.41.54-.67.75-.68.24-.92.47a8.71,8.71,0,0,1-.62.77c-.25.22-.3.68-.56.9s-.59.32-.84.54-.61.31-.85.54-.49.46-.72.71a9.63,9.63,0,0,0-.72.71,8.27,8.27,0,0,0-.59.83c-.17.29,0,.73-.16,1.05s-.48.52-.59.79-.05.69-.14,1-.31.59-.38.89.16.64.11,1-.5.54-.53.89.23.63.21,1-.38.58-.4.93,0,.61,0,1,.23.72.2,1-.28.68-.32,1,.22.76.17,1.06-.29.68-.32,1a3.89,3.89,0,0,0,.13,1,4.43,4.43,0,0,0,.27,1c.11.27,0,.7.16,1.05s.72.43.88.72.2.7.36,1,.12.79.3,1.05.78.32,1,.57.29.65.51.91.23.69.46,1a7.41,7.41,0,0,0,.67.69c.25.24.77.07,1,.23s.43.51.69.64.63.12.91.26.55.5.88.68a7.48,7.48,0,0,0,1.06.27c.34.12.65.53,1,.53"></path><path class="cls-1" d="M103.22,307.83a3.23,3.23,0,0,1,.78-.59,7.07,7.07,0,0,1,.88-.46,8.29,8.29,0,0,1,.93-.34c.3-.08.66.06,1,0s.61-.38,1-.39.64.22,1,.26a8.93,8.93,0,0,1,1,.18c.31.08.61.19.93.3s.57.3.88.45.75,0,1,.14.65.22,1,.32.65.23,1,.31.66.33,1,.37.71.05,1,.07h1a4.22,4.22,0,0,1,1,0c.29.11.43.43.67.76s.57.31.85.49a6.47,6.47,0,0,0,.76.6c.29.13.6.23.9.36s.62.23.89.38a4.16,4.16,0,0,1,.78.58,2.52,2.52,0,0,1,.58.78,2.82,2.82,0,0,1,.23.94c0,.34-.11.68-.06,1s.33.6.41.87.14.62.25.9.41.48.53.8.15.57.24.91.06.59.12.93.08.59.13.93,0,.63.08.92.05.63.1.91.22.6.28.87.25.6.31.87a9,9,0,0,1,0,.93,4.43,4.43,0,0,1,0,.89,4,4,0,0,1-.11.87,7.78,7.78,0,0,0,0,1.08c-.05.37,0,.74-.11,1.06s-.42.57-.62.88a3.38,3.38,0,0,1-.7.73,5.63,5.63,0,0,1-.79.68c-.27.16-.52.39-.82.56s-.51.42-.81.58-.6.28-.9.43-.58.33-.88.47l-.9.42c-.31.14-.73,0-1,.13s-.57.39-.87.49-.62.34-.92.41a6.47,6.47,0,0,1-1,.14c-.34,0-.66-.14-.92-.1l-.9.13c-.29,0-.53.29-.85.34l-.89.13c-.27,0-.58-.17-.92-.14s-.55.3-.88.32a6.26,6.26,0,0,1-1-.19,9.31,9.31,0,0,1-1-.2c-.32-.06-.66,0-1-.13s-.67-.1-1-.2-.65-.17-1-.29-.56-.43-.87-.55-.71,0-1-.16-.59-.36-.89-.48-.59-.37-.88-.49-.69-.16-1-.25a2.79,2.79,0,0,0-1-.09,2.44,2.44,0,0,0-.94.38,2.17,2.17,0,0,1-1,.19,4,4,0,0,1-1-.39,5.7,5.7,0,0,1-1-.38c-.27-.16-.46-.44-.7-.61s-.59-.27-.81-.46a9.14,9.14,0,0,1-.59-.7,6.57,6.57,0,0,1-.54-.74,6.88,6.88,0,0,1-.49-.76c-.19-.28-.45-.48-.58-.71s-.16-.71-.28-.89-.51-.41-.62-.67c-.19-.46.07-.48,0-.91"></path><path class="cls-12" d="M103.22,307.83a3.23,3.23,0,0,1,.78-.59,7.07,7.07,0,0,1,.88-.46,8.29,8.29,0,0,1,.93-.34c.3-.08.66.06,1,0s.61-.38,1-.39.64.22,1,.26a8.93,8.93,0,0,1,1,.18c.31.08.61.19.93.3s.57.3.88.45.75,0,1,.14.65.22,1,.32.65.23,1,.31.66.33,1,.37.71.05,1,.07h1a4.22,4.22,0,0,1,1,0c.29.11.43.43.67.76s.57.31.85.49a6.47,6.47,0,0,0,.76.6c.29.13.6.23.9.36s.62.23.89.38a4.16,4.16,0,0,1,.78.58,2.52,2.52,0,0,1,.58.78,2.82,2.82,0,0,1,.23.94c0,.34-.11.68-.06,1s.33.6.41.87.14.62.25.9.41.48.53.8.15.57.24.91.06.59.12.93.08.59.13.93,0,.63.08.92.05.63.1.91.22.6.28.87.25.6.31.87a9,9,0,0,1,0,.93,4.43,4.43,0,0,1,0,.89,4,4,0,0,1-.11.87,7.78,7.78,0,0,0,0,1.08c-.05.37,0,.74-.11,1.06s-.42.57-.62.88a3.38,3.38,0,0,1-.7.73,5.63,5.63,0,0,1-.79.68c-.27.16-.52.39-.82.56s-.51.42-.81.58-.6.28-.9.43-.58.33-.88.47l-.9.42c-.31.14-.73,0-1,.13s-.57.39-.87.49-.62.34-.92.41a6.47,6.47,0,0,1-1,.14c-.34,0-.66-.14-.92-.1l-.9.13c-.29,0-.53.29-.85.34l-.89.13c-.27,0-.58-.17-.92-.14s-.55.3-.88.32a6.26,6.26,0,0,1-1-.19,9.31,9.31,0,0,1-1-.2c-.32-.06-.66,0-1-.13s-.67-.1-1-.2-.65-.17-1-.29-.56-.43-.87-.55-.71,0-1-.16-.59-.36-.89-.48-.59-.37-.88-.49-.69-.16-1-.25a2.79,2.79,0,0,0-1-.09,2.44,2.44,0,0,0-.94.38,2.17,2.17,0,0,1-1,.19,4,4,0,0,1-1-.39,5.7,5.7,0,0,1-1-.38c-.27-.16-.46-.44-.7-.61s-.59-.27-.81-.46a9.14,9.14,0,0,1-.59-.7,6.57,6.57,0,0,1-.54-.74,6.88,6.88,0,0,1-.49-.76c-.19-.28-.45-.48-.58-.71s-.16-.71-.28-.89-.51-.41-.62-.67c-.19-.46.07-.48,0-.91"></path><path class="cls-4" d="M88.05,345.55s11.18-2.33,14.45-11.65"></path><path class="cls-4" d="M65.45,322.25s3.73,13.05,14.68,16.08"></path><path class="cls-4" d="M79.66,360s-.93-25.4-1.86-31.22"></path><path class="cls-4" d="M88.52,360.47s-2.1-21.67-1.4-30.06"></path><path class="cls-1" d="M91.23,325c.32-.38.32-.25.82-.59.23-.17.68-.11,1-.33s.36-.59.63-.8.67-.21.93-.42.53-.4.78-.61.35-.62.58-.84a9.38,9.38,0,0,0,.71-.69c.24-.27.22-.68.38-.93s.49-.51.52-.78.33-.6.54-.85.29-.68.6-.87l.87-.55c.29-.17.83,0,1.09-.25s.26-.69.45-1a3.22,3.22,0,0,0,.49-.9c.07-.28.27-.55.33-.86s-.08-.63,0-.94.14-.59.19-.9.19-.59.23-.89-.25-.65-.22-1,.49-.58.52-.88-.06-.63,0-.93,0-.62.06-.91.13-.65.13-.93,0-.69-.06-.94-.47-.52-.52-.85.11-.62,0-.94-.24-.56-.33-.86a7.58,7.58,0,0,0-.36-.84,5.76,5.76,0,0,0-.31-.88c-.16-.25-.46-.41-.66-.64s-.25-.62-.5-.83-.62-.16-.9-.32a9,9,0,0,1-.78-.54c-.26-.19-.51-.38-.75-.59s-.39-.5-.61-.72-.42-.47-.63-.7-.38-.5-.58-.74-.58-.34-.78-.57-.39-.5-.59-.72-.19-.72-.41-.92a4.5,4.5,0,0,0-.8-.54c-.24-.16-.62-.16-.9-.36s-.47-.4-.74-.59l-.74-.59c-.25-.19-.59-.28-.84-.47s-.39-.54-.65-.72-.6-.27-.85-.43a8.69,8.69,0,0,0-.87-.37,6.39,6.39,0,0,0-.79-.49,4.66,4.66,0,0,1-1-.16c-.27-.1-.46-.54-.79-.67s-.7,0-1-.11-.54-.4-.86-.52-.64-.17-1-.28-.56-.44-.88-.54-.71.09-1,0-.61-.29-.94-.36-.63-.33-1-.37-.7.33-1,.32a7.2,7.2,0,0,0-1-.15,5.31,5.31,0,0,0-1,.09c-.33.11-.66.16-.94.26l-.93.31c-.32.13-.48.58-.76.71s-.71,0-1,.16-.64.18-.92.33-.43.53-.72.69l-.83.49c-.26.15-.59.22-.89.39s-.54.48-.81.59-.74-.1-1,0-.57.43-.89.49-.69-.18-1-.06a9,9,0,0,0-.86.52c-.26.13-.54.29-.85.48s-.38.56-.68.77-.55.34-.79.51-.63.24-.86.4-.66.2-.9.36-.42.52-.65.7-.54.33-.78.53-.34.52-.58.73-.5.34-.74.58-.4.45-.64.69-.56.38-.78.63-.13.74-.33,1-.39.52-.57.79-.58.42-.74.7-.32.59-.47.88,0,.72-.17,1-.27.61-.38.9-.62.53-.7.8-.21.55-.34.89-.07.65-.19,1-.4.55-.51.86.15.74.06,1-.43.57-.49.88a7,7,0,0,0-.13,1,3.68,3.68,0,0,0,0,1c.07.28.22.58.28.92s.08.63.14,1,.26.6.31.92.22.62.28.94-.26.73-.18,1a7.55,7.55,0,0,0,.43.9,3.53,3.53,0,0,0,.46.87,3.79,3.79,0,0,1,.36.79,6.42,6.42,0,0,0,.46.78,3,3,0,0,0,.74.57c.2.14.61,0,.93.16a2.83,2.83,0,0,1,.7.72,6.7,6.7,0,0,1,.6.76c.16.25.09.65.26.93s.29.56.47.82.58.33.79.57.16.73.41.93a5.23,5.23,0,0,0,.81.55,6.74,6.74,0,0,0,1,.15,4.63,4.63,0,0,0,.91.32c.32,0,.63.09,1,.16s.65.08,1,.18.66.09,1,.2.7,0,1,.13.51.49.82.62.73,0,1,.13.43.67.73.81.59.31.89.45.74,0,1,.15.59.32.89.45.62.26.92.37.58.41.88.5a6,6,0,0,0,1,.1c.25,0,.58-.16.95-.13s.58.11.92.12.6.34.93.35.62.07.94.07.62,0,.94-.06.62-.14.93-.15.63,0,.95,0,.59-.42.9-.45.67.41,1,.38l.94-.1c.31,0,.6-.23.91-.27s.63-.06.94-.12.6-.23.9-.29.58-.31.88-.38.7.15,1,.07.54-.4.82-.51a8.2,8.2,0,0,0,.84-.41,9.05,9.05,0,0,0,.91-.26,7.92,7.92,0,0,0,.83-.47,3.81,3.81,0,0,0,.61-.74A2.82,2.82,0,0,0,91.23,325Z"></path><path class="cls-12" d="M91.23,325c.32-.38.32-.25.82-.59.23-.17.68-.11,1-.33s.36-.59.63-.8.67-.21.93-.42.53-.4.78-.61.35-.62.58-.84a9.38,9.38,0,0,0,.71-.69c.24-.27.22-.68.38-.93s.49-.51.52-.78.33-.6.54-.85.29-.68.6-.87l.87-.55c.29-.17.83,0,1.09-.25s.26-.69.45-1a3.22,3.22,0,0,0,.49-.9c.07-.28.27-.55.33-.86s-.08-.63,0-.94.14-.59.19-.9.19-.59.23-.89-.25-.65-.22-1,.49-.58.52-.88-.06-.63,0-.93,0-.62.06-.91.13-.65.13-.93,0-.69-.06-.94-.47-.52-.52-.85.11-.62,0-.94-.24-.56-.33-.86a7.58,7.58,0,0,0-.36-.84,5.76,5.76,0,0,0-.31-.88c-.16-.25-.46-.41-.66-.64s-.25-.62-.5-.83-.62-.16-.9-.32a9,9,0,0,1-.78-.54c-.26-.19-.51-.38-.75-.59s-.39-.5-.61-.72-.42-.47-.63-.7-.38-.5-.58-.74-.58-.34-.78-.57-.39-.5-.59-.72-.19-.72-.41-.92a4.5,4.5,0,0,0-.8-.54c-.24-.16-.62-.16-.9-.36s-.47-.4-.74-.59l-.74-.59c-.25-.19-.59-.28-.84-.47s-.39-.54-.65-.72-.6-.27-.85-.43a8.69,8.69,0,0,0-.87-.37,6.39,6.39,0,0,0-.79-.49,4.66,4.66,0,0,1-1-.16c-.27-.1-.46-.54-.79-.67s-.7,0-1-.11-.54-.4-.86-.52-.64-.17-1-.28-.56-.44-.88-.54-.71.09-1,0-.61-.29-.94-.36-.63-.33-1-.37-.7.33-1,.32a7.2,7.2,0,0,0-1-.15,5.31,5.31,0,0,0-1,.09c-.33.11-.66.16-.94.26l-.93.31c-.32.13-.48.58-.76.71s-.71,0-1,.16-.64.18-.92.33-.43.53-.72.69l-.83.49c-.26.15-.59.22-.89.39s-.54.48-.81.59-.74-.1-1,0-.57.43-.89.49-.69-.18-1-.06a9,9,0,0,0-.86.52c-.26.13-.54.29-.85.48s-.38.56-.68.77-.55.34-.79.51-.63.24-.86.4-.66.2-.9.36-.42.52-.65.7-.54.33-.78.53-.34.52-.58.73-.5.34-.74.58-.4.45-.64.69-.56.38-.78.63-.13.74-.33,1-.39.52-.57.79-.58.42-.74.7-.32.59-.47.88,0,.72-.17,1-.27.61-.38.9-.62.53-.7.8-.21.55-.34.89-.07.65-.19,1-.4.55-.51.86.15.74.06,1-.43.57-.49.88a7,7,0,0,0-.13,1,3.68,3.68,0,0,0,0,1c.07.28.22.58.28.92s.08.63.14,1,.26.6.31.92.22.62.28.94-.26.73-.18,1a7.55,7.55,0,0,0,.43.9,3.53,3.53,0,0,0,.46.87,3.79,3.79,0,0,1,.36.79,6.42,6.42,0,0,0,.46.78,3,3,0,0,0,.74.57c.2.14.61,0,.93.16a2.83,2.83,0,0,1,.7.72,6.7,6.7,0,0,1,.6.76c.16.25.09.65.26.93s.29.56.47.82.58.33.79.57.16.73.41.93a5.23,5.23,0,0,0,.81.55,6.74,6.74,0,0,0,1,.15,4.63,4.63,0,0,0,.91.32c.32,0,.63.09,1,.16s.65.08,1,.18.66.09,1,.2.7,0,1,.13.51.49.82.62.73,0,1,.13.43.67.73.81.59.31.89.45.74,0,1,.15.59.32.89.45.62.26.92.37.58.41.88.5a6,6,0,0,0,1,.1c.25,0,.58-.16.95-.13s.58.11.92.12.6.34.93.35.62.07.94.07.62,0,.94-.06.62-.14.93-.15.63,0,.95,0,.59-.42.9-.45.67.41,1,.38l.94-.1c.31,0,.6-.23.91-.27s.63-.06.94-.12.6-.23.9-.29.58-.31.88-.38.7.15,1,.07.54-.4.82-.51a8.2,8.2,0,0,0,.84-.41,9.05,9.05,0,0,0,.91-.26,7.92,7.92,0,0,0,.83-.47,3.81,3.81,0,0,0,.61-.74A2.82,2.82,0,0,0,91.23,325Z"></path><path class="cls-6" d="M90.2,360.32s6.12,1.4,7,2.62,4.54.88,6.64,1.4,8.74,3,8.91,4.54"></path><path class="cls-6" d="M78.32,359.1a26.3,26.3,0,0,0-5.6,2.79c-1.74,1.4-4.71,1.75-6.81,2.45s-3.5-.17-5.77,1.05-5.59,1.4-6.46,3.32"></path><path class="cls-6" d="M113.79,371.16c0,2.22-13.81,4-30.84,4s-30.85-1.79-30.85-4"></path><path class="cls-6" d="M113.92,371.33s-6.47,13.81-29,13.81h-4c-22.55,0-29-13.81-29-13.81"></path><path class="cls-1" d="M168,106.28a5.77,5.77,0,0,1-.39.92,5.21,5.21,0,0,1-.68.73,6.51,6.51,0,0,1-.76.63,5.25,5.25,0,0,1-.83.56,6.2,6.2,0,0,1-.95.31,8.15,8.15,0,0,1-1,.29,8.49,8.49,0,0,1-1,0,6.68,6.68,0,0,1-1,0,7.14,7.14,0,0,1-1-.29,7.22,7.22,0,0,1-1-.22,7.42,7.42,0,0,1-.89-.45c-.3-.17-.56-.38-.83-.57s-.59-.34-.83-.56a6.78,6.78,0,0,1-.68-.75,7.64,7.64,0,0,1-.57-.83,6.29,6.29,0,0,1-.43-.91,5.77,5.77,0,0,1-.25-1,3.77,3.77,0,0,1-.09-2,5.12,5.12,0,0,1,.35-.94,4.59,4.59,0,0,1,.48-.87,4.65,4.65,0,0,1,.56-.83,5.38,5.38,0,0,1,.81-.58,6,6,0,0,1,.84-.54,5.78,5.78,0,0,1,.93-.36,6.39,6.39,0,0,1,1-.16,7.9,7.9,0,0,1,1-.1,6.81,6.81,0,0,1,1,0,6.9,6.9,0,0,1,1,.27,7,7,0,0,1,1,.27,8.24,8.24,0,0,1,.88.48,6.83,6.83,0,0,1,.88.49,12.72,12.72,0,0,1,1.39,1.42,4.64,4.64,0,0,1,1.36,2.64,6.62,6.62,0,0,1,.09,1,4.75,4.75,0,0,1-.1,1A5.74,5.74,0,0,1,168,106.28Z"></path><path d="M205.16,150.75s-11.85-3.32-14.83-12.93-2.44-19.4.88-22.9,11.18-9.08,11.18-9.08l6.29-17s2.8,53.83,20.28,64.32"></path><path d="M132.81,153.89s11.53-6.46,14.51-16.07,2.44-19.4-.88-22.9-11.18-9.08-11.18-9.08l-6.29-17s-2.8,53.83-20.28,64.32"></path><path class="cls-13" d="M170.38,125.36a35.4,35.4,0,0,0,14.81-4.94c12.16-7.19,20.08-22.56,23.81-33.17,4.94-14,9.26-44.67-5.15-64-12.39-16.58-27-19.09-30.3-19H164c-3.29-.09-17.92,2.42-30.3,19-14.41,19.3-10.09,49.92-5.15,64,3.73,10.61,11.65,26,23.81,33.17a35.4,35.4,0,0,0,14.81,4.94Z"></path><path d="M173.14,84.61a6.21,6.21,0,1,1-8.78,8.78Z"></path><path class="cls-16" d="M140.09,46.36a17.75,17.75,0,0,1,17.22-1.48"></path><path class="cls-16" d="M197.48,46.36a17.74,17.74,0,0,0-17.22-1.48"></path><path class="cls-16" d="M154.54,99.25s4.89,5.83,15.1,5.18"></path><path class="cls-16" d="M144.87,63.63s3.32-4.19,9.87-2.36"></path><path class="cls-16" d="M193.83,63.63s-3.32-4.19-9.87-2.36"></path><path d="M157.28,14s-11.19,27.5-14,66.64-16.78,72.24-16.78,72.24l-29.36,9.32s14.08-63.38,20.62-103c7.92-48,34.72-67,52.43-56.28"></path><path d="M181.44,14s11.19,27.5,14,66.64,16.78,72.24,16.78,72.24l29.36,9.32S225,98.79,218.44,59.18c-7.92-48-31.5-65.95-49.28-56.63"></path><path d="M140.15,51.84h62.91S199.92-6.88,160.77,4"></path><line class="cls-15" x1="120.21" y1="89.19" x2="115.32" y2="114.92"></line><line class="cls-15" x1="123.26" y1="73.16" x2="121.85" y2="80.58"></line></g></g></svg>