<svg xmlns="http://www.w3.org/2000/svg" viewBox="0 0 454.99 871.23"><defs></defs><g id="Capa_2" data-name="Capa 2"><g id="Capa_2-2" data-name="Capa 2"><path class="cls-1" d="M366.34,870.23a32,32,0,0,1-24.94-12.51c-3.06-4-6.46-6.58-10.08-7.84-8.72-3-17.28-6.59-17.81-14-.37-5.17-1.64-40.26-1.89-47.25l0-.76-.75-.18-.71-.15a1.51,1.51,0,0,1-1.15-1.4c-.07-1.84-7.69-185.59-7.69-204.17,0-13.6-5.11-63.42-8.16-91.9h-2c-3,28.48-8.16,78.29-8.16,91.9,0,18.58-7.61,202.33-7.69,204.17a1.51,1.51,0,0,1-1.15,1.4l-1.46.33,0,.77c-.16,4.27-1.51,41.85-1.89,47.24-.53,7.43-9.1,11-17.82,14-3.62,1.26-7,3.89-10.08,7.84a32,32,0,0,1-24.94,12.51c-.51,0-1,0-1.52,0A39.9,39.9,0,0,1,200.08,866a8.71,8.71,0,0,1-4.68-8.13l.22-4.29c1.24-9.46,7.93-15.75,23.08-21.63,8.83-3.43,12.24-14.62,13.55-23.4a92.58,92.58,0,0,0,.67-19,2.16,2.16,0,0,1,0-.35l.14-1-1-.12c-1.86-.24-3-.41-3.24-.45a1.5,1.5,0,0,1-1.28-1.45c0-1.73-2.82-174.42-4.88-205.44-2.08-31.2,1.58-204.57,1.74-211.94a1.58,1.58,0,0,1,.33-.91,23.38,23.38,0,0,0,1.62-2.29l.22-.35-.09-.4c0-.11,0-.15,0-.19l-8.33-84.93L185.48,291.7l-3.73-11.34-1,.38c-9.57,3.68-58.26,22-76.77,22a14.51,14.51,0,0,1-4.41-.54c-6-2-15.88-16.24-29.35-42.32-9.3-18-17.36-36-18.25-38l-.05-.12-6.67-8.32-.09-.07C16,190.28,14.81,188.36,15.26,187c.09-.3.32-1,5-9.42A7,7,0,0,1,26.37,174a6.74,6.74,0,0,1,2.69.55l2.11.89L1.27,93.21A4.5,4.5,0,0,1,4,87.44L18.83,82a4.51,4.51,0,0,1,5.77,2.69l10.14,27.91,1.94-.35V79.58a4.51,4.51,0,0,1,4.5-4.5H57a4.5,4.5,0,0,1,4.49,4.5v3.52l2,.26,1.21-4.53A4.52,4.52,0,0,1,69,75.51a4.64,4.64,0,0,1,1.17.15l15.28,4.1A4.52,4.52,0,0,1,88.3,82l.17.32,12.47,5.28a4.47,4.47,0,0,1,2.41,2.46,4.41,4.41,0,0,1,.31,1.93l0,.59,7,4.33a4.51,4.51,0,0,1,1.47,6.19L70.92,170l-.48,1.13,5.46,17,0,0c2.65,5.94,1.62,15.3,1.24,18l-.06.4,37.36,49.94L167,235.51l-1.17-3.57,1-.63c.3-.19,29.69-19.34,60.06-30l.88-.31-1.16-4.18a1.51,1.51,0,0,1,1-1.84l19.57-5.59a1.4,1.4,0,0,1,.41-.06,1.51,1.51,0,0,1,1.45,1.12l1,3.9,1-.24c4.16-1.05,6.72-1.61,6.74-1.62l.68-.15.55.43a37,37,0,0,0,3.82,2.45l.74.42.53-.65c3.51-4.29,9.11-13.55,7.23-27.35l-.07-.52-.47-.23c-18.58-9.35-24.2-29.41-24.78-31.66l-2.9-13.35h-8.84c-5.31,0-9.63-5.17-9.63-11.51v-3.64c0-4.75,2.4-9,6.12-10.71l.94-.45-.48-.92c-3-5.74-3.91-10.62-2.66-14.5A8.9,8.9,0,0,1,232.6,75l1.41-.71-1.25-1a10.39,10.39,0,0,1-3.87-7.61c-.42-5.15,1.94-11.18,6.16-15.74,7.87-8.49,14.77-10.3,14.83-10.31l.5-.13.19-.48a21,21,0,0,1,14.27-13.14l.43-.13.19-.4a17.39,17.39,0,0,1,1.07-1.89c3.58-5.42,9.07-8.17,16.33-8.17.69,0,1.4,0,2.11.08l1,.08,0-1A20.49,20.49,0,0,0,284.73,7a1.49,1.49,0,0,1,.91-1.91,1.37,1.37,0,0,1,.49-.09,1.58,1.58,0,0,1,.83.25l3.15,2-1.67-3.23A3.12,3.12,0,0,1,291,1h.16c3.18,0,16.84,8,19.35,21.26l0,.07c.09.52.17,1.05.23,1.59l.1.86.87,0c5.87.18,16.42,2.26,21.14,14.2l.19.48.5.13c.07,0,7,1.82,14.83,10.31,4.22,4.56,6.58,10.59,6.17,15.74a10.36,10.36,0,0,1-3.88,7.61l-1.26,1,1.43.71a9,9,0,0,1,4,5.14c1.25,3.81.42,8.59-2.46,14.21l-.52,1,1.07.38c4,1.46,6.87,6,6.87,11v3.64c0,6.34-4.32,11.51-9.63,11.51h-8.45l-2.88,13.29c-.49,1.93-5.36,19.44-20.81,29.43l-.43.28,0,.52c-.3,6.34.2,18.27,6.9,26.89l.55.7.76-.46c1.11-.67,2.25-1.39,3.38-2.15l.37-.24.24-1.61a1.45,1.45,0,0,1,.6-1,1.47,1.47,0,0,1,.87-.29l.25,0,20.09,3.33a1.5,1.5,0,0,1,1.23,1.71l-.36,2.32.76.28c11.11,4.14,27,11.92,39.87,25.42,6.35,6.69,32.86,40.34,34,41.77l1.06,1.34-4,2.4.61.88a421.5,421.5,0,0,1,26.1,43.37c1.44,2.81,3.14,7,3.11,10.88,0,4.24-1.62,7.82-5.47,12.37-15.65,18.51-53.65,45.39-57.93,48.39l-.13.09-.09.12a30.81,30.81,0,0,1-9,8l-.56.33.22,1.84a7.4,7.4,0,0,1-7.35,8.29h-.24l-9.39-.3a6.55,6.55,0,0,1-2.18-.46l-1.39-.53,0,1.48c1.07,57.35,2.64,157,1.11,180-2.08,31.22-4.86,203.71-4.89,205.44a1.49,1.49,0,0,1-1.27,1.45c-.22,0-1.39.21-3.24.44l-1,.13.14,1a1.3,1.3,0,0,1,0,.34,93,93,0,0,0,.68,19c1.31,8.78,4.71,20,13.54,23.4,15.16,5.88,21.84,12.17,23.09,21.7v.17l.2,4.05A8.7,8.7,0,0,1,384.2,866a40,40,0,0,1-16.33,4.24C367.36,870.21,366.85,870.23,366.34,870.23ZM352.88,351.82a1.51,1.51,0,0,1-.17.6l-.2.39.15.41a89.91,89.91,0,0,0,4.15,9.78l.41.8,20.53-7.67,30.85-37-22.66-30.9-.77.43c-2.19,1.22-4.24,2.35-6.07,3.34l-1,.54-20.42-21.34Z"></path><path class="cls-2" d="M379.36,390.87l.17,1.44a5.91,5.91,0,0,1-6,6.61l-9.4-.3a5.12,5.12,0,0,1-4.61-3.28l-8.64-22.58a4.62,4.62,0,0,1,2.7-6l25.11-9.39,35.56-42.66"></path><path class="cls-3" d="M338.7,192.11s31.48,6.25,53.34,29.26c6.36,6.69,33.9,41.67,33.9,41.67s-31.62,19-47.55,27.63l-21-22"></path><path class="cls-3" d="M422.75,266.45a414.74,414.74,0,0,1,26.79,44.33c1.4,2.73,3,6.67,2.95,10.18,0,3.16-.88,6.41-5.11,11.42-16.27,19.23-57.95,48.34-57.95,48.34"></path><line class="cls-4" x1="386.37" y1="286.27" x2="409.63" y2="317.99"></line><path class="cls-5" d="M358.37,368.74l-.69-1.05c-18.88-31.45-19.58-103.8-19.58-103.8L237.44,267s6.29,79.69-11.53,101.71c0,0-3.85,180.35-1.75,211.81s4.9,205.51,4.9,205.51,27.26,4.2,44.73,0c0,0,7.69-185.24,7.69-204.11s9.79-107,9.79-107H293s1.1,10,2.57,23.9c.09.82.18,1.66.27,2.51v.11c.18,1.73.36,3.51.55,5.32l0,.28.27,2.62a.41.41,0,0,1,0,.11c.1.93.2,1.86.29,2.81l0,.28c.08.81.17,1.62.25,2.44l.06.6c.08.8.17,1.61.25,2.42,0,.12,0,.25,0,.37.09,1,.19,1.91.28,2.87l0,.22c.08.86.17,1.73.26,2.6l.06.62c.07.74.14,1.49.22,2.24l.07.67.27,2.81,0,.35.24,2.41c0,.27,0,.54.08.81.06.68.13,1.36.19,2,0,.28.06.57.08.85.09.87.17,1.75.25,2.61,0,.26.05.51.07.77.06.65.13,1.31.19,2l.09,1c.05.59.11,1.17.16,1.76l.09.95c.08.85.15,1.7.23,2.54,0,.19,0,.38.05.56.06.68.12,1.34.18,2,0,.32.05.64.08,1l.15,1.69c0,.29.05.58.07.87l.21,2.39c0,.18,0,.35,0,.53l.15,1.83c0,.31.05.61.08.91q.06.78.12,1.53l.06.79c.06.74.12,1.47.17,2.18l0,.43c.05.58.09,1.14.13,1.7,0,.25,0,.51.05.76,0,.47.07.92.1,1.37,0,.24,0,.48.05.71,0,.63.08,1.25.12,1.85,0,.12,0,.23,0,.35q0,.76.09,1.5c0,.2,0,.4,0,.6,0,.4,0,.8.06,1.18l0,.55c0,.51.05,1,.07,1.47,0,.09,0,.17,0,.26,0,.43,0,.84.05,1.24,0,.16,0,.31,0,.46,0,.31,0,.61,0,.89s0,.28,0,.41c0,.38,0,.74,0,1.07V582c0,6.48.91,32.59,2.1,64.07v.17q.12,3.13.24,6.35v.17c.06,1.38.11,2.76.16,4.16,0,.11,0,.22,0,.33.05,1.4.1,2.8.16,4.21,2.22,57.55,5,124.65,5,124.65h0c.92.22,1.88.41,2.86.59l.16,0c17.42,3.1,41.7-.63,41.7-.63S358,612,360.11,580.55,358.37,368.74,358.37,368.74Z"></path><path class="cls-4" d="M390,379.92l-.59.8a29.55,29.55,0,0,1-12.7,9.86h0l-11.38-1.81"></path><path class="cls-6" d="M237.44,267s6.29,79.69-11.53,101.71c0,0-3.85,180.35-1.75,211.81s4.9,205.51,4.9,205.51,2.39.37,6.21.78c-.47-28.26-2.93-172.36-4.82-200.7-2.09-31.46,1.75-211.81,1.75-211.81,17.83-22,11.53-101.7,11.53-101.7"></path><path class="cls-4" d="M293,475s9.78,88.08,9.78,107,7.69,204.11,7.69,204.11c17.48,4.2,44.74,0,44.74,0S358,612,360.11,580.55s-1.74-211.81-1.74-211.81l-.69-1.05c-18.88-31.45-19.58-103.8-19.58-103.8L237.44,267s6.29,79.69-11.53,101.71c0,0-3.85,180.35-1.75,211.81s4.89,205.51,4.89,205.51,27.27,4.2,44.74,0c0,0,7.69-185.24,7.69-204.11s9.79-107,9.79-107"></path><path class="cls-7" d="M253.05,252,242,254.48a4.69,4.69,0,0,0-3.55,5.61l.6,2.68a4.71,4.71,0,0,0,5.62,3.55,4.69,4.69,0,0,1,5.62,3.54l.86,3.82a4.7,4.7,0,0,0,5.62,3.55l.38-.08,3.82-.87.38-.08a4.7,4.7,0,0,0,3.55-5.62l-.86-3.82a4.7,4.7,0,0,1,3.55-5.62,4.68,4.68,0,0,0,3.54-5.61l-.6-2.68a4.7,4.7,0,0,0-5.62-3.55l-11.07,2.5"></path><path class="cls-8" d="M263.09,198.28s13.52-12.12,9.27-33.5"></path><path class="cls-8" d="M316.45,161.46s-3.32,21.67,8.91,34.08"></path><path class="cls-4" d="M61.57,184.23l-5.86-4.18s-11.42-10.88-16.85-14.87a3.74,3.74,0,0,0-4.55.11h0a3.73,3.73,0,0,0-.89,4.79l7.32,12.63L29,176.18a5.44,5.44,0,0,0-7.38,2.08c-2.1,3.73-4.7,8.42-4.93,9.14-.39,1.23,29.64,25,29.64,25l6.9,8.6s33.29,75.28,46.83,79.8,82.16-22.25,82.16-22.25"></path><line class="cls-4" x1="21.26" y1="180.31" x2="36.61" y2="190.35"></line><line class="cls-4" x1="47.1" y1="184.67" x2="35.75" y2="195.82"></line><path class="cls-9" d="M239.9,100.07s3.84,16,14.32,25.86a23.05,23.05,0,0,0,24.16,4.4L293,124.58v45.67s-35.86,2-46.8-38.23"></path><path class="cls-9" d="M344.64,100.07s-3.69,15.41-13.71,25.26a23.23,23.23,0,0,1-24.79,5l-14.63-5.74v45.67s35.86,2,46.79-38.23"></path><path class="cls-8" d="M310.42,37.21a54.42,54.42,0,0,0-18-3h0a54.48,54.48,0,0,0-18,3c-25.72,9-40.3,36.23-34.53,62.86l7.54,34.79c2.95,11.48,14.78,35.39,45,35.39h0c30.19,0,42-23.91,45-35.39L345,100.07C350.73,73.44,336.15,46.2,310.42,37.21Z"></path><path class="cls-8" d="M243.17,120.39h-8.92c-4.47,0-8.13-4.51-8.13-10v-3.64c0-5.51,3.66-10,8.13-10h4.44"></path><circle class="cls-8" cx="264.78" cy="95.92" r="19.24"></circle><circle class="cls-8" cx="318.28" cy="95.92" r="19.24"></circle><path class="cls-10" d="M250.2,95.92a14.59,14.59,0,0,1,14.58-14.59"></path><path class="cls-10" d="M303.84,95.92a14.59,14.59,0,0,1,14.59-14.59"></path><path d="M296.19,114.59A7.88,7.88,0,0,1,285,125.74Z"></path><line class="cls-11" x1="263.95" y1="97.68" x2="269.31" y2="97.68"></line><line class="cls-3" x1="266.63" y1="89.56" x2="266.63" y2="96.34"></line><line class="cls-11" x1="313.76" y1="97.68" x2="319.11" y2="97.68"></line><line class="cls-3" x1="316.43" y1="89.56" x2="316.43" y2="96.34"></line><line class="cls-3" x1="283.74" y1="88.48" x2="299.04" y2="88.48"></line><path d="M238.06,112.21h0a3.79,3.79,0,0,1-4.46-2.93l-3.17-15.1a3.78,3.78,0,0,1,2.92-4.46h0a3.8,3.8,0,0,1,4.47,2.93l3.17,15.1A3.79,3.79,0,0,1,238.06,112.21Z"></path><path d="M345.54,112.21h0a3.79,3.79,0,0,0,4.46-2.93l3.17-15.1a3.79,3.79,0,0,0-2.93-4.46h0a3.79,3.79,0,0,0-4.46,2.93l-3.17,15.1A3.78,3.78,0,0,0,345.54,112.21Z"></path><path class="cls-8" d="M341.29,120.39h8.92c4.47,0,8.13-4.51,8.13-10v-3.64c0-5.51-3.66-10-8.13-10h-4.44"></path><circle cx="292.7" cy="161.43" r="2.51"></circle><path class="cls-3" d="M287.13,139.67s11.59,3.94,21.86-6.34"></path><line class="cls-3" x1="308.34" y1="130.27" x2="311.84" y2="133.33"></line><path d="M294.34,16.34S275.08,8.68,265.7,22.9c-6.78,10.28-2.41,28.65,17.93,29.08s29.19-10.93,27.88-29.84"></path><path d="M285.82,21.37s5.57-9.51,1.64-17.06A4.1,4.1,0,0,1,290.74.05c3.6-1,26.56,12.79,20,33.78"></path><path class="cls-12" d="M282.75,23.89s8-4.38,3.39-17.39"></path><path d="M275.88,24s-19.24-3.06-26.24,14.66c0,0-7.12,1.74-15.32,10.6-7,7.61-9.19,19.35-2.17,24.82,0,0-11.15,5.47-.66,23.18l9.19,8.09S238.93,82.82,242,74.51c0,0,21-4.38,17.49-21.43,0,0,18.37,4.15,26.68-8.53"></path><path d="M307.56,24s19.24-3.06,26.24,14.66c0,0,7.12,1.74,15.32,10.6,7.05,7.61,9.19,19.35,2.17,24.82,0,0,11.15,5.47.66,23.18l-9.19,8.09s1.75-22.52-1.31-30.83c0,0-21-4.38-17.49-21.43,0,0-18.37,4.15-26.68-8.53"></path><path class="cls-13" d="M257.77,78.12A17.74,17.74,0,0,1,275,76.64"></path><path class="cls-13" d="M326.75,78.12a17.74,17.74,0,0,0-17.22-1.48"></path><path class="cls-3" d="M218.57,277.87l-32.16,11.88L167.6,232.57s30.28-19.79,61.13-30.33A298.93,298.93,0,0,1,258.08,194s32.36,24.83,73-3"></path><line class="cls-4" x1="168.24" y1="236.63" x2="107.59" y2="260.94"></line><rect class="cls-2" x="61.84" y="85.46" width="21.82" height="115.88" rx="3" transform="translate(86.02 -16.85) rotate(31.64)"></rect><rect class="cls-9" x="87.51" y="99.98" width="16.9" height="11.5" transform="translate(69.71 -34.62) rotate(31.64)"></rect><rect class="cls-14" x="78.48" y="114.63" width="16.9" height="11.5" transform="translate(76.06 -27.7) rotate(31.64)"></rect><rect class="cls-15" x="69.45" y="129.29" width="16.9" height="11.5" transform="translate(82.4 -20.79) rotate(31.64)"></rect><rect class="cls-16" x="60.42" y="143.95" width="16.9" height="11.5" transform="matrix(0.85, 0.52, -0.52, 0.85, 88.75, -13.88)"></rect><rect x="51.39" y="158.6" width="16.9" height="11.5" transform="translate(95.1 -6.96) rotate(31.64)"></rect><rect class="cls-2" x="59.56" y="81.34" width="21.82" height="115.88" rx="3" transform="translate(59.91 -16.45) rotate(22.96)"></rect><rect class="cls-9" x="79.28" y="92.79" width="16.9" height="11.5" transform="translate(45.39 -26.41) rotate(22.96)"></rect><rect class="cls-14" x="72.56" y="108.64" width="16.9" height="11.5" transform="translate(51.04 -22.54) rotate(22.96)"></rect><rect class="cls-15" x="65.85" y="124.49" width="16.9" height="11.5" transform="translate(56.69 -18.66) rotate(22.96)"></rect><rect class="cls-16" x="59.13" y="140.34" width="16.9" height="11.5" transform="translate(62.34 -14.79) rotate(22.96)"></rect><rect x="52.42" y="156.19" width="16.9" height="11.5" transform="translate(67.99 -10.91) rotate(22.96)"></rect><rect class="cls-2" x="51.53" y="77.18" width="21.82" height="115.88" rx="3" transform="translate(37.14 -11.57) rotate(15.02)"></rect><rect class="cls-9" x="65.46" y="86.64" width="16.9" height="11.5" transform="translate(26.46 -15.99) rotate(15.02)"></rect><rect class="cls-14" x="61" y="103.27" width="16.9" height="11.5" transform="translate(30.62 -14.27) rotate(15.02)"></rect><rect class="cls-15" x="56.54" y="119.89" width="16.9" height="11.5" transform="translate(34.77 -12.55) rotate(15.02)"></rect><rect class="cls-16" x="52.08" y="136.52" width="16.9" height="11.5" transform="translate(38.93 -10.82) rotate(15.02)"></rect><rect x="47.62" y="153.14" width="16.9" height="11.5" transform="translate(43.09 -9.1) rotate(15.02)"></rect><rect class="cls-2" x="38.18" y="76.59" width="21.82" height="115.88" rx="3"></rect><rect class="cls-9" x="40.65" y="84.53" width="16.9" height="11.5"></rect><rect class="cls-14" x="40.65" y="101.75" width="16.9" height="11.5"></rect><rect class="cls-15" x="40.64" y="118.96" width="16.9" height="11.5"></rect><rect class="cls-16" x="40.64" y="136.17" width="16.9" height="11.5"></rect><rect x="40.63" y="153.39" width="16.9" height="11.5"></rect><rect class="cls-2" x="20.8" y="82.66" width="21.82" height="115.88" rx="3" transform="translate(-46.14 19.3) rotate(-19.98)"></rect><rect class="cls-17" x="8.14" y="93.27" width="16.9" height="11.5" transform="translate(-32.84 11.63) rotate(-19.98)"></rect><rect class="cls-18" x="14.02" y="109.44" width="16.9" height="11.5" transform="translate(-38.01 14.61) rotate(-19.98)"></rect><rect class="cls-19" x="19.91" y="125.62" width="16.9" height="11.5" transform="translate(-43.19 17.6) rotate(-19.98)"></rect><rect class="cls-20" x="25.79" y="141.8" width="16.9" height="11.5" transform="translate(-48.36 20.58) rotate(-19.98)"></rect><rect class="cls-6" x="31.67" y="157.98" width="16.9" height="11.5" transform="translate(-53.54 23.57) rotate(-19.98)"></rect><path class="cls-2" d="M56.92,196.63c1.27-4.67,5.63-12,5.63-12l-2.22-13.14a4,4,0,0,1,3.46-4.63l.27,0a4,4,0,0,1,4.28,2.74l6.16,19.16c3.06,6.66,1,18.33,1,18.33l38.09,50.91"></path><polygon class="cls-21" points="228.01 196.43 245.6 259.69 264.47 254.8 247.58 190.84 228.01 196.43"></polygon><path class="cls-7" d="M332.81,250.12l11.29,1.23a4.69,4.69,0,0,1,4.16,5.17l-.29,2.73a4.7,4.7,0,0,1-5.18,4.16,4.7,4.7,0,0,0-5.18,4.17l-.42,3.89a4.7,4.7,0,0,1-5.18,4.16l-.39,0-3.89-.42-.39,0a4.7,4.7,0,0,1-4.16-5.18l.42-3.89a4.7,4.7,0,0,0-4.17-5.18,4.7,4.7,0,0,1-4.16-5.18l.3-2.72a4.7,4.7,0,0,1,5.17-4.17L332,250"></path><polygon class="cls-21" points="351.38 192.09 341.1 256.94 321.79 254.23 331.3 188.76 351.38 192.09"></polygon><path class="cls-3" d="M229.75,771.62a224.06,224.06,0,0,0,43.81.93"></path><path class="cls-3" d="M234.41,789.32s3.27,36.82-15.16,44c-14,5.44-20.92,11.07-22.15,20.5l-.2,4.1a7.17,7.17,0,0,0,3.87,6.72,38.23,38.23,0,0,0,15.71,4.07,30.17,30.17,0,0,0,25.21-11.89c2.61-3.36,6.2-6.75,10.77-8.33,10.66-3.69,16.4-7,16.81-12.71s2-49.23,2-49.23"></path><path class="cls-3" d="M198,854.69a38.21,38.21,0,0,0,15.72,4.08,30.2,30.2,0,0,0,25.2-11.89c2.61-3.36,6.2-6.75,10.77-8.33,10.67-3.7,20.11-8.8,20.11-17.19"></path><path class="cls-3" d="M227.13,829.58a19,19,0,0,1,12.24,1.92"></path><path class="cls-3" d="M231.68,821.36a19,19,0,0,1,12.23,1.93"></path><path class="cls-3" d="M235,813.5a19,19,0,0,1,12.23,1.92"></path><path class="cls-3" d="M235,805.11A19,19,0,0,1,247.23,807"></path><path class="cls-3" d="M235,796.72a19,19,0,0,1,12.23,1.92"></path><path class="cls-3" d="M354.52,771.62a224,224,0,0,1-43.81.93"></path><path class="cls-3" d="M349.86,789.32s-3.26,36.82,15.17,44c14,5.44,20.91,11.07,22.14,20.5l.21,4.1a7.19,7.19,0,0,1-3.87,6.72,38.28,38.28,0,0,1-15.72,4.07,30.17,30.17,0,0,1-25.2-11.89c-2.61-3.36-6.2-6.75-10.78-8.33-10.66-3.69-16.4-7-16.81-12.71s-2-49.23-2-49.23"></path><path class="cls-3" d="M386.3,854.69a38.21,38.21,0,0,1-15.71,4.08,30.2,30.2,0,0,1-25.21-11.89c-2.61-3.36-6.2-6.75-10.77-8.33-10.66-3.7-20.11-8.8-20.11-17.19"></path><path class="cls-3" d="M357.14,829.58a19,19,0,0,0-12.23,1.92"></path><path class="cls-3" d="M352.6,821.36a19,19,0,0,0-12.23,1.93"></path><path class="cls-3" d="M349.28,813.5A19,19,0,0,0,337,815.42"></path><path class="cls-3" d="M349.28,805.11A19,19,0,0,0,337,807"></path><path class="cls-3" d="M349.28,796.72A19,19,0,0,0,337,798.64"></path><line class="cls-3" x1="218.1" y1="264.12" x2="227.95" y2="364.43"></line><path class="cls-4" d="M286.38,474.65a142.7,142.7,0,0,0,15.72-5.25"></path><line class="cls-3" x1="356.98" y1="257.6" x2="351.38" y2="351.73"></line><rect class="cls-21" x="296.25" y="287.53" width="10.58" height="49.37" transform="matrix(0.95, 0.31, -0.31, 0.95, 111.08, -77.82)"></rect><circle class="cls-21" cx="313.38" cy="275.74" r="20.72"></circle><line class="cls-21" x1="292.08" y1="326.54" x2="300.84" y2="329.38"></line><circle class="cls-2" cx="313.38" cy="275.74" r="14.74"></circle><path class="cls-10" d="M304.27,272.79a9.58,9.58,0,0,1,12.06-6.16"></path><rect class="cls-1" x="270.3" y="241.52" width="22.37" height="111.84" rx="3" transform="translate(99.57 -69.45) rotate(17.05)"></rect><line class="cls-22" x1="283.72" y1="255.72" x2="294.04" y2="258.88"></line><line class="cls-22" x1="280.99" y1="264.63" x2="285.29" y2="265.95"></line><line class="cls-22" x1="278.4" y1="273.1" x2="288.71" y2="276.26"></line><line class="cls-22" x1="275.66" y1="282.01" x2="279.96" y2="283.33"></line><line class="cls-22" x1="273.07" y1="290.47" x2="283.38" y2="293.64"></line><line class="cls-22" x1="270.33" y1="299.39" x2="274.63" y2="300.7"></line><line class="cls-22" x1="267.74" y1="307.85" x2="278.05" y2="311.01"></line><line class="cls-22" x1="265.01" y1="316.76" x2="269.3" y2="318.08"></line><line class="cls-22" x1="262.41" y1="325.23" x2="272.72" y2="328.39"></line><line class="cls-22" x1="259.68" y1="334.14" x2="263.98" y2="335.46"></line><rect class="cls-4" x="270.3" y="241.52" width="22.37" height="111.84" rx="3" transform="translate(99.57 -69.45) rotate(17.05)"></rect><path class="cls-23" d="M254,304.36l72-2.42a2.19,2.19,0,0,1,2.25,2c.48,6.67,1.71,27.53-.62,37-2.25,9.17-25.63,20-37.75,19.58s-35-6.29-36.82-18.88c-1-6.66-1.13-28.29-1.16-35.16A2.2,2.2,0,0,1,254,304.36Z"></path><line class="cls-3" x1="251.89" y1="312.82" x2="253.89" y2="312.76"></line><line class="cls-24" x1="262.36" y1="312.5" x2="321.62" y2="310.68"></line><line class="cls-3" x1="325.85" y1="310.55" x2="327.85" y2="310.49"></line><rect class="cls-25" x="230.7" y="213.67" width="28.91" height="14.24" rx="4.16" transform="translate(-52.75 79.01) rotate(-16.56)"></rect><rect class="cls-25" x="322.39" y="213.16" width="28.91" height="14.24" rx="4.16" transform="translate(32.32 -42.88) rotate(7.65)"></rect></g></g></svg>