<svg xmlns="http://www.w3.org/2000/svg" viewBox="0 0 415.47 854.39"><defs></defs><g id="Capa_2" data-name="Capa 2"><g id="Capa_2-2" data-name="Capa 2"><path class="cls-1" d="M151.17,853.39c-19,0-20.67-7.22-22.15-13.58-.16-.69-.31-1.35-.48-2-1.73-6.5,3.13-15.06,14.86-26.17a26.83,26.83,0,0,0,6.53-10.22l.25-.65-.52-.45c-.25-.23-.49-.46-.72-.7-2.65-2.77-3.89-6.69-3.67-11.66.31-7.17-1.93-62.21-4.1-115.44v-.13c-1-25.47-2.11-51.81-2.88-72.58-2.12-56.56,1.76-113.33,4.27-142.14,1.62-18.63,3.58-36.17,5.5-49.37.88-6,1.7-10.8,2.44-14.2a21.66,21.66,0,0,1,1.47-5l.18-.35-.11-.38a5.14,5.14,0,0,1-.17-.89l-1.4-12.54-.42-.26c-5.19-3.17-8.85-7.67-11.53-14.14l-.82-2-6.06,11.8a6.59,6.59,0,0,1-5.88,3.6l-.51,0-9.38-.72a7.41,7.41,0,0,1-6.64-9.06l.42-1.81-.53-.39a30.71,30.71,0,0,1-8.31-9.31l-.5-.85a1.17,1.17,0,0,1-.13-.28l-.15-.45-10.18-3.87-.27-.14-.33-.21-.38.06a76.14,76.14,0,0,1-12.2.9,92.88,92.88,0,0,1-21.88-2.6A79.55,79.55,0,0,1,6.89,312.61c-28-40,54.52-105.86,85.58-130.65,17.82-14.22,33.08-16.34,40.59-16.34,1.17,0,2.3,0,3.36.15l1.17.1-.08-1.17a15.18,15.18,0,0,1,4.22-12c6.15-6.29,15.9-7.75,18.74-8l.41,0,.26-.32a22.83,22.83,0,0,1,9.38-6.29l1.39-.52-1-1.09a55,55,0,0,1-12.27-22.19l-3-13.34h-8.7c-5.31,0-9.63-5.17-9.63-11.52V85.73c0-6.34,4.32-11.51,9.63-11.51H148L148,73.1c-1.26-10.44-2.17-25.9.59-40.26a34.88,34.88,0,0,1,22.11-26A104.13,104.13,0,0,1,203.42,1h2.84a105.23,105.23,0,0,1,32.19,5.63,35.55,35.55,0,0,1,22.88,27c2.59,14.16,1.67,29.28.45,39.47l-.14,1.12h1.13c5.39,0,9.71,5.17,9.71,11.51v3.64c0,6.35-4.32,11.52-9.63,11.52h-8.31l-3,13.3a55.74,55.74,0,0,1-10,19.59l-.87,1.09,1.31.48c3.77,1.36,9.18,4.58,13.55,12.23l.18.31.33.13c3.53,1.37,15.08,6.66,15.74,17.31l.05,1.21,1.07-.13a56.89,56.89,0,0,1,6.48-.36c11,0,27.55,2.76,44,15.91,31.05,24.79,113.54,90.63,85.57,130.65-22.24,31.83-56.2,35.27-69.78,35.27h0a70.55,70.55,0,0,1-12.17-1l-.39-.06-.33.21-.27.14-10.18,3.87-.15.45a2.39,2.39,0,0,1-.13.28l-.5.85a30.74,30.74,0,0,1-8.32,9.31l-.52.39.42,1.81A7.41,7.41,0,0,1,300,373.2l-9.37.72-.51,0a6.59,6.59,0,0,1-5.88-3.6l-3.29-6.42-1,1.13a35.41,35.41,0,0,1-12.37,9.59c-.25.11-.52.21-.78.31l-.48.18-.64.25V386.2a5.79,5.79,0,0,1-.94,3.13l-.33.49.28.52c7.58,14.39,19.64,44.83,28.68,83.25,13.69,58.16,19.63,97.88,11.9,141.11-7.16,40-28.46,136.71-37.29,176.44a12.66,12.66,0,0,1-4.08,6.92l-.94.82,1,.74c3.29,2.42,8.54,5.09,15.18,7.73l.08,0,.08,0a1.46,1.46,0,0,1,.48.19l.07,0,.09,0c5.4,2.11,11.44,4.11,18,5.94,7.25,2,12.47,7.14,14,13.63l.09.42a18.09,18.09,0,0,1,.33,2.7,14.83,14.83,0,0,1-9.86,14.76c-3.77,1.38-8.93,2.07-15.32,2.07-16,0-34.62-4.39-35.4-4.58-8.89-2.12-19.89-2.21-25.79-2.25l-2.8,0c-.35,0-.7,0-1-.06a13.15,13.15,0,0,1-11.86-13.41c.29-16.22,4.92-27.73,7.65-33.14l.22-.43-.2-.44c-2.89-6.27-3.25-21.17-1.06-44.28,2.33-24.56,7.5-57,14.18-89,3.85-18.41,8.06-33.81,12.52-45.76a28.67,28.67,0,0,0,.46-18.65c-10.4-32.38-19.06-72.65-24.49-100.73l-2,.05c-3.42,25.43-8.44,54.77-12.05,74.91A229.27,229.27,0,0,0,203,631c3.8,41.28-2,103-5.08,136.16-1,10.33-1.67,17.78-1.67,20.4a14.94,14.94,0,0,1-1.51,6.77l-.2.39.15.4a27.29,27.29,0,0,1,1.41,9.52v1h.12a52.22,52.22,0,0,1-.87,8.77l-.17,1.41c-.73,6-1.41,11.73-.36,16.65a11,11,0,0,1-2.19,9.37c-7.75,9.81-30.41,11.35-39.79,11.55ZM114.48,325s0,.9-.08,2.3l-.08,1.05,1.06,0a1.37,1.37,0,0,1,.64.15l16,8-.66-2.22a67,67,0,0,0-4.09-10.74c-9.84-20.06-19.35-48.13-23-59.26l-.59-1.83-1.16,1.54C97.44,270.8,88.93,279.57,77.19,283l-2.07.6,1.79,1.19A97.93,97.93,0,0,1,94,299.54c3.34,3.56,7.8,9.24,10,16.12l.13.4.37.19a1.78,1.78,0,0,1,.27.17l9.62,7.89Zm195.66-62.35c-1.3,19.82-6.12,41.51-8.13,49.92-1.23,5.12-2.37,9.78-3.94,14.95l-.67,2.23,2.44-1.23a1.34,1.34,0,0,1,.64-.15l1,0-.07-1.05c-.1-1.4-.08-2.27-.08-2.3l0-.69,9.62-7.89a1.58,1.58,0,0,1,.27-.18l.37-.18.13-.4c2.24-6.88,6.69-12.56,10-16.12A97.21,97.21,0,0,1,339,284.78l1.79-1.19-2.07-.6c-13.25-3.86-22.42-14.72-26.71-20.85l-1.63-2.33Z"></path><path class="cls-2" d="M177.73,143.06s-3.72-6.06-9.32-1.4-12.11,5.59-16.31,6.06-20,9.32-11.18,23.76,9.32,3.27,6.52-1.39-21.9-4.66-35.88,2.79-50.8,38.68-61,48.47-29.36,29.82-38.68,44.27-12.93,33.09-3.9,46.14,28.14,29.35,48.17,32.62,21.91,1.86,27.5,2.33,16.78-7,19.11-13.52-.82-26.09-10-32.62S68.88,284,79.5,280.65a41.89,41.89,0,0,0,22-17.13c3.52-5.82,3-3.49,5.85,6.29s13,36.82,19.1,47.07,7.93,40.08,14.92,47.54,9.78,7.45,10.25,13-4.1,11.36,5.64,13.6,82.9-4.28,95-1.48,11.38.7,11.75-4.78-2.78-10.6,2.75-11.53,16.72-9.79,12.06-16.78-8.39-14.44-1.4-16.31,17.91-4.66,20.14-17.94,10.62-52,11.09-56.15,2.33-8.86,6.52-1.4,15.84,14.91,20.51,16.77,7,1.87.93,7-20,18.18-21.91,24.24-7.45,8.39-9.78,10.72-4.2,8.38-1.4,13.51,10.21,10.25,14.66,10.49,16.56-.7,30.08-1.17,41.94-14,51.73-27.49,16.31-18.18,9.32-41-53.13-67.11-77.83-87.15-39.14-22.37-48-22.37-15.18-.23-14.58-5.71-2.93-8.5-7.69-9.78-24.8-29.25-26.66-8.74,14,25.16,2.33,35.42-29.83,15.84-50.8,8.85-16.77-13-10.72-22.37a24,24,0,0,0,3.27-18.64"></path><path class="cls-3" d="M141.37,174.05c0,1-16.08-3.5-37.4,11.18s-79.34,65.36-88.08,88.43-6.64,31.8,4.19,45.44S44.2,339,65.52,344.61s22,0,25.87,1.75,9.43,3.14,13.28.35,8.73-14.33,7.69-18.88-7.34-7-9.79-12.58-12.23-17.48-17.83-21.67-17.12-7.69-5.24-12.93,19.23-12.93,22-17.13,4.54-3.49,5.59,4.55,7.34,26.56,13.63,38.79,9.44,16.43,11.54,25.17,6.29,34.6,15,39.49l9.78,5.24,3.15,13.64s21.32-.35,37-1,40.54-2.1,47.18,0,19.58,2.79,19.58-4.55-2.33-9.78,2.85-11.53,15-10.14,12.87-14.68-9.4-14.13-3.3-16.68,19.38-6.39,21.13-19.67,9.44-38.8,10.48-48.93,0-19.92,4.55-13.63,7,10.48,14.33,15.38,11.88,5.24,14,6.64.7,1.74,9.09-1.4,28-7,31.8-1.75c0,0-41.59,8-55.22,28.31S314,328.18,314,328.18L304.59,332s7,17.47,13.63,15.38,7.69-2.8,12.58-1.75,24.12,0,40.2-4.9,37.39-21.32,39.84-36,1.05-25.17-5.94-37.4S342,193.62,323.81,182.78s-38.1-15.72-44.74-15.72-7.69,2.44-10.13-4.55-3.85-8.39-7.69-9.78-7.69-2.45-9.44-7.34-17.47-12.94-18.52-3.85,3.49,18.18,4.19,21.32,8.74,9.44,2.45,15.38-23.77,15.38-39.15,14-28.66-10.13-30.4-12.58.69-7,3.49-10.84,4.19-11.53,4.19-17.12-11.18-4.9-17.82,3.14c0,0-3.85-2.79-9.79,1.4S141.37,165.66,141.37,174.05Z"></path><path class="cls-4" d="M153.56,790.82s-.47,13.52-9.32,21.91-16.31,17.7-14.45,24.69,1.4,14.92,22.84,14.45,43.34-6.06,40.54-19.11,6.06-31.22-2.79-41.94"></path><path class="cls-4" d="M129.33,833.93s4.43,7.92,26.56,5.59,31.22-7.92,34.72-16.08,3.73-11.88,4-18.87"></path><path class="cls-5" d="M153.56,821.35s7.69-2.33,14.91-1.17"></path><path class="cls-5" d="M156.59,810.86a28.34,28.34,0,0,1,14.91-.23"></path><path class="cls-4" d="M221.37,790.36s-9.4,13.36-9.81,36.52a11.68,11.68,0,0,0,10.49,11.89c.31,0,.62,0,.95.05,4.66.12,18.17-.23,28.89,2.33s37.05,7.23,49.86,2.57,12.12-24-4.42-28.66-41.94-14-38.92-22.14"></path><path class="cls-4" d="M212.28,820.88s2.8,7.46,20.27,7,29.56,4,45.67,6.29c17.94,2.57,31.46-2.33,32.16-7.45"></path><path class="cls-5" d="M267.82,815.89s1.56-4.32,11-7"></path><path class="cls-5" d="M256.78,809.46s3.73-5.12,9.56-5.82"></path><path class="cls-6" d="M154,390.51c-2.24-14.48-18.36,105-14.45,209.24C142,663.6,147,777.31,146.57,788s6.06,15.37,19.57,15.37,28.43-2.79,28.43-15.84c0-11.08,11.76-102.09,6.75-156.42a231.07,231.07,0,0,1,2.52-62c4.83-26.93,10.94-63.29,14-90.74,6.56,35.9,16,80.74,27.4,116.32a30,30,0,0,1-.48,19.63c-3.82,10.25-8.12,24.83-12.45,45.55-13,62.45-21,129.55-11.19,134.68s41.48,13.05,45.21-3.73,29.36-132.11,37.28-176.39,1.16-85-11.88-140.5-29.6-84.82-29.6-84.82"></path><path class="cls-7" d="M155.19,190.59c11.49,18.8,38.35,54.21,38.35,54.21"></path><path class="cls-7" d="M260.28,186.16c-11.49,18.8-40.59,59.19-40.59,59.19"></path><line class="cls-5" x1="206.82" y1="241.19" x2="206.82" y2="236.48"></line><line class="cls-5" x1="202.11" y1="233.65" x2="211.54" y2="233.65"></line><circle class="cls-7" cx="206.82" cy="259.05" r="17.86"></circle><circle class="cls-3" cx="206.82" cy="259.05" r="11.46"></circle><path class="cls-8" d="M204.4,253.66l1.84,4.33a1.16,1.16,0,0,0,1.51.61l8.31-3.52"></path><path class="cls-5" d="M104,259.05s11.86,38.26,24.45,63.89c11.37,23.16,4.19,49.4,34.95,55S216,373.74,229.06,363"></path><path class="cls-5" d="M295,331.52c2.42-7.26,3.8-12.92,5.33-19.3,5.12-21.44,14.44-70.83,2.79-84.35"></path><path class="cls-5" d="M210.42,374.2s37.28,7.46,56.38-.93c5.46-2.4,10.12-6.66,14.11-12"></path><line class="cls-5" x1="130.73" y1="307.56" x2="133.99" y2="337.85"></line><path class="cls-5" d="M270.76,168.22s26.1-5.36,51.5,14.91c31.25,25,112.31,89.95,85.28,128.63s-71.3,35.41-81.09,33.55-25.63-21.44-3.72-44.74,40.07-25.16,55.45-25.63"></path><path class="cls-5" d="M309.21,255.13s12.35,24.47,34.72,27.5"></path><path class="cls-5" d="M311.77,317.58,302.69,325s-.47,17.24,12.81,24.46l9.79-3.73"></path><path class="cls-5" d="M151.7,374.2l1.45,13.11a4.22,4.22,0,0,0,4.13,3.75,388.19,388.19,0,0,0,42.88-1.48c24.41-2.51,49.1-.32,59.16.81A4.22,4.22,0,0,0,264,386.2V375.6"></path><path class="cls-4" d="M168.71,175.21s13.51-12.11,9.26-33.49"></path><path class="cls-4" d="M234.07,138.4s-3.32,21.67,8.91,34.07"></path><path class="cls-4" d="M177.09,157.27s-10.48-2.62-15.55,4.37,11.19,27.79,41.94,30.76a54.38,54.38,0,0,0,23.94-5.07c12.59-5.83,21.44-20.27,20.28-25.63s-8.16-7-12.12-6.29"></path><path class="cls-4" d="M238.61,136.07s9.32.93,15.84,13c0,0,14.92,4.9,15.62,16.32.62,10.15-13.75,36.58-63.15,37.51-10.25.19-23.92.76-43.11-8.39-20-9.55-31.45-30.29-21.2-40.77,7-7.12,18.87-7.69,18.87-7.69,4-5.6,11.89-7.46,11.89-7.46"></path><path class="cls-5" d="M158.45,152.14a23.75,23.75,0,0,1,15.85-13.28"></path><path class="cls-9" d="M249.09,141.89a17.15,17.15,0,0,1,5.13,15.61"></path><path class="cls-9" d="M300.32,329.86l-23.95,12.05a4.63,4.63,0,0,0-2,6.25l11,21.5a5.11,5.11,0,0,0,4.94,2.76l9.37-.72a5.91,5.91,0,0,0,5.31-7.22l-.33-1.42"></path><path class="cls-9" d="M314.07,351l-.5.86A29.56,29.56,0,0,1,302,363.06h0l-11.51-.56"></path><path class="cls-5" d="M138.61,167.62s-20-4.76-45.4,15.51C62,208.08-19.1,273.08,7.93,311.76S79.23,347.17,89,345.31s25.63-21.44,3.73-44.74-40.08-25.16-55.46-25.63"></path><path class="cls-5" d="M106.26,255.13s-12.35,24.47-34.72,27.5"></path><path class="cls-5" d="M90.18,345.77,100,349.5c13.28-7.22,12.81-24.46,12.81-24.46l-9.08-7.46"></path><path class="cls-9" d="M137.16,355.89l-7.06,13.77a5.11,5.11,0,0,1-4.94,2.76l-9.37-.72a5.9,5.9,0,0,1-5.3-7.22l.32-1.42"></path><line class="cls-9" x1="115.15" y1="329.86" x2="134.05" y2="339.37"></line><path class="cls-9" d="M101.4,351l.5.86a29.52,29.52,0,0,0,11.56,11.18h0l11.5-.56"></path><path class="cls-10" d="M154.8,87.2s5.36,13.75,14,20.27"></path><path class="cls-10" d="M254.76,87.2s-5.35,13.75-14,20.27"></path><path class="cls-4" d="M154.35,89.46l5.54,24.4c3,11.48,14.78,35.39,45,35.39h0c30.19,0,42-23.91,45-35.39l5.54-24.4"></path><path class="cls-4" d="M155.62,99.39H146.7c-4.47,0-8.13-4.51-8.13-10V85.73c0-5.5,3.66-10,8.13-10h4.44"></path><path d="M208.64,93.59a7.88,7.88,0,0,1-11.15,11.15Z"></path><line class="cls-10" x1="176.4" y1="76.68" x2="181.75" y2="76.68"></line><line class="cls-5" x1="179.08" y1="68.56" x2="179.08" y2="75.34"></line><line class="cls-10" x1="226.21" y1="76.68" x2="231.56" y2="76.68"></line><line class="cls-5" x1="228.88" y1="68.56" x2="228.88" y2="75.34"></line><path class="cls-4" d="M253.73,99.39h8.92c4.48,0,8.13-4.51,8.13-10V85.73c0-5.5-3.65-10-8.13-10h-4.43"></path><circle cx="205.15" cy="140.43" r="2.51"></circle><path class="cls-5" d="M199.58,118.67s11.59,3.94,21.86-6.34"></path><line class="cls-5" x1="220.79" y1="109.27" x2="224.29" y2="112.33"></line><path class="cls-11" d="M170.22,57.11s6.14,2.71,17.22-1.47"></path><path class="cls-9" d="M154.1,88.83s-5.86-35.82,8-58.21c0,0,9.15-17.09,22.19-8"></path><path class="cls-9" d="M255.7,88.83A127.08,127.08,0,0,0,256.6,62a95.41,95.41,0,0,0-1.82-13"></path><path class="cls-9" d="M257.56,88.13s6.73-28.89,2.11-54.23A33.88,33.88,0,0,0,237.75,8c-7.61-2.73-18-5.12-31.68-5.54h-2.8c-14,.43-24.64,3-32.3,5.77a33.22,33.22,0,0,0-21.15,24.85c-4.91,25.53,2,55,2,55"></path><path class="cls-9" d="M185.67,22.61s4.43-6.29,11.42-2.09,22.14,43.8,45,43.57a29.15,29.15,0,0,1-4.43-12.82S245.79,60.36,257,62"></path><path class="cls-7" d="M214.68,24.2a75.77,75.77,0,0,0,9.79,15.72"></path><path class="cls-7" d="M224.12,24.2a69.79,69.79,0,0,0,4.14,7.72"></path></g></g></svg>