<svg xmlns="http://www.w3.org/2000/svg" viewBox="0 0 328.93 825.78"><defs></defs><g id="Capa_2" data-name="Capa 2"><g id="Capa_2-2" data-name="Capa 2"><path class="cls-1" d="M66.48,823.78a44.48,44.48,0,0,1-5.3-.31c-10.81-1.27-17.55-5-21.31-7.9l-2.45-1.9-1.54,6.5-10.13-1.84L25.7,818c-.07-.5-1.69-12.44-.85-22.55.49-5.89,1.68-13.56,2.59-18.95l.39-2.33h-.54L25.8,538.86l0-.1C11,409.07,17.61,357.45,25.77,337l.73-1.82-1.81-.76a.66.66,0,0,1-.2-.14.51.51,0,0,1-.1-.41L29.05,311a.54.54,0,0,1,.05-.11l.16-.36,0-.39a.46.46,0,0,1,.23-.39,38.45,38.45,0,0,1,6.92-3.17l1-.37.26-1c.74-2.85,1.39-5.74,1.95-8.59l.31-1.6-1.51-.63A11.81,11.81,0,0,1,34,291.08L34,291l-.07-.07a29.07,29.07,0,0,1-6.05-9.14l0-.12-.07-.1-.91-1.4a.5.5,0,0,1-.09-.29v-.47l-.54-1.17c-.51-1.06-1.23-2.45-2.07-4.06C18.24,262.91,6,239.46,2.36,207.49c-3.73-32.69,22-40.87,39-46.29,2.33-.74,4.5-1.43,6.4-2.12a26.48,26.48,0,0,0,16.8-18.38.52.52,0,0,1,.3-.36.35.35,0,0,1,.17,0,.48.48,0,0,1,.26.07l2.22,1.22.67-2.44a38.73,38.73,0,0,0,.55-17.74l-.14-.74-.6-.47c-.72-.55-1.42-1.11-2.11-1.7l-.75-.63-1,.2a40.42,40.42,0,0,1-6.87.81L52.9,119l3,3.22c.59.62,1.14,1.15,1.67,1.62a.52.52,0,0,1,.17.35.53.53,0,0,1-.12.36.51.51,0,0,1-.38.17.47.47,0,0,1-.33-.13,21.62,21.62,0,0,1-1.88-1.84l-.5-.53-.73-.09c-1.77-.21-3.79-.5-5.57-.8l-4.57-.77,2.58,3.85a.5.5,0,0,1-.42.77.45.45,0,0,1-.34-.14,22,22,0,0,1-4.92-7.77l-.34-.84-.85-.3a36,36,0,0,1-14.22-9C12.83,93.91,14,74.66,28.35,54.32,32.42,48.56,37,42.24,42,35.52l.13-.17.09-.2A72.76,72.76,0,0,1,55,15.9C63.78,6.68,73.79,2,84.78,2c1,0,2,0,3,.11h4c1-.07,2-.11,2.93-.11,28.64,0,42.28,32.26,43.22,34.57l0,.13.1.33.2.27c4.48,6.06,8.62,11.78,12.32,17,14.36,20.34,15.52,39.59,3.17,52.82a35.58,35.58,0,0,1-13.53,8.77l-.84.32-.32.83a24.73,24.73,0,0,1-3.49,6.33.49.49,0,0,1-.4.19.47.47,0,0,1-.3-.1.5.5,0,0,1-.19-.41l.05-2.47-2.42.46c-2.06.39-4.83.81-7.21,1.1l-.73.09-.5.53a25,25,0,0,1-1.88,1.84.49.49,0,0,1-.7,0,.5.5,0,0,1-.13-.36.52.52,0,0,1,.17-.35c.54-.47,1.08-1,1.67-1.62l3-3.22-4.42-.15a39.05,39.05,0,0,1-7.21-.89l-1-.21-.76.64c-.35.3-.71.59-1.07.88l-.93.74v1.06a38.52,38.52,0,0,0,.7,18.75l.51,1.72,1.77-.32.13,0,.12,0a.54.54,0,0,1,.31.3c.05.14,5.63,14.42,15,15.76,1.47.21,3.1.4,4.85.61,3.24.38,6.18.74,9.29,1.26l2.33.38V132a5.51,5.51,0,0,1,5.5-5.5H321.43a5.51,5.51,0,0,1,5.5,5.5V278.28a5.51,5.51,0,0,1-5.5,5.5H149.18l.06,2.06c0,1.19.09,2.37.17,3.52a49.58,49.58,0,0,0,.88,6.49l.43,2.12,2.08-.6,2.42-.71.15,0a.42.42,0,0,1,.24.07.47.47,0,0,1,.24.31l4.66,19.11a.5.5,0,0,1-.22.54l-.38.22-1.53.86.65,1.63a103.68,103.68,0,0,1,7.16,31.52c1.77,21.74-6.07,109.89-11.8,174.25-1,11.37-2,22.18-2.83,32v.08L150.19,773l-1.36-.08.33,2.41c2.42,17.63,17.6,25.44,24,28a7.38,7.38,0,0,1,.2,13.61A47.85,47.85,0,0,1,154.1,821a46.86,46.86,0,0,1-5.31-.3c-10.8-1.27-17.55-5-21.3-7.91l-2.46-1.9-1.53,6.51-10.14-1.85,0-.35c-.07-.51-1.69-12.44-.85-22.55.72-8.66,2.94-21.13,3.61-24.75l0-.24-20.46-341-1.72-.16c-.37,0-.75-.05-1.13-.05a11.62,11.62,0,0,0-4.89,1.06l-1.08.5L63.28,774.14H61.17l.18,2.17c1.6,18.86,17.47,27.11,24.21,29.78a7.38,7.38,0,0,1,.2,13.61,47.85,47.85,0,0,1-19.27,4.08Z"></path><path class="cls-1" d="M277.58,178.42c0-1.4-6.64-9.78-14.33-5.59s-15.38,28.66-15.38,28.66L264,219.67l15.38-28.32"></path><path class="cls-2" d="M259.06,168.52s-.7-4.19-1.64-4-6.29-.47-11-.93-5.59-5.13-2.79-6.29,7.92-3.5,7.92-3.5a18,18,0,0,1,5.82,1.17c3,1.16,10,3.49,10.72,8.62"></path><path class="cls-2" d="M274.67,161.3s-3.27-10-7.23-11.65a100.17,100.17,0,0,0-11.88-3.5c-2.56-.7-6.29,4.43-4,7.69s10.72,3.73,10.72,3.73,4.19,3.73,3.73,6.76-.7,4.66-.7,4.66"></path><path class="cls-2" d="M272.34,204.29s8.39-10.37,9.78-18.76-.23-20.74,0-23.07-4-10.23-5.82-13.51c-3-5.6-9.09-2.57-7.46,3a56.79,56.79,0,0,0,4.2,10.25l-1.17,8.85"></path><path class="cls-2" d="M251.13,196.25c0-.7,2.8-6.06-1.63-9.32s-7.22-8.86-7.45-11.65-4.66-11.65-1.17-11.42,8.39,4.43,10,7.69,3.5-.47,7.46-1.63,12.35,1.63,12.35,1.63"></path><path class="cls-3" d="M145.48,160.08c7.4,1.39,15.05,3.77,20.6,8.56,10.14,8.73,45.09,67.1,45.09,67.1l39.15-42.64s6.29,14.33,22,11.19c0,0-29.36,58.37-55.23,74.44,0,0-9.43,6.29-20.27-4.54-8.56-8.57-18.87-22-18.87-22s-8.79-23.34-25.8-16.54-23.64-23.5-23.64-23.5"></path><path class="cls-4" d="M29.77,310.19s7.69-4.89,22.72-7S63,317.88,63,317.88"></path><path d="M155.6,239.59S150,269,151.41,289.22s14,27.26,16.77,61.51S150.71,575.82,150,604.48L99.44,430.42s-8.38-5.59-14.68,2.1S34,615,34,615s-35.65-222.3-9.09-281c0,0,17.48-32.86,14.68-67.11"></path><polyline points="23.2 445.85 25.3 776.14 65.15 776.14 89.66 415.98"></polyline><polyline points="154.27 443.75 152.18 775.09 114.43 772.99 92.92 414.58"></polyline><path class="cls-5" d="M29.16,769.64s-3,15.66-3.81,25.83.84,22.43.84,22.43l9.32,1.7,1.69-7.2s6.67,8.54,24,10.57a47.06,47.06,0,0,0,24.33-3.73h0a6.89,6.89,0,0,0,4-7.54h0a6.85,6.85,0,0,0-4.19-5.15c-8-3.16-26.81-13.24-24.47-37.33"></path><path class="cls-5" d="M116.77,766.84s-3,15.67-3.81,25.83.84,22.44.84,22.44l9.32,1.69,1.69-7.2s6.67,8.54,24,10.58a47,47,0,0,0,24.32-3.74h0a6.88,6.88,0,0,0,4-7.53h0a6.82,6.82,0,0,0-4.19-5.15c-8-3.17-26.81-13.24-24.47-37.34"></path><path class="cls-6" d="M125.54,21.32s12.53,16.26,24.55,33.29C162,71.43,167.3,91.8,153.31,106.8c-12.45,13.34-35.56,13.48-44,8.92"></path><path class="cls-6" d="M53.31,21.32S40.78,37.58,28.76,54.61C16.88,71.43,11.55,91.8,25.54,106.8c12.45,13.34,35.56,13.48,44,8.92"></path><path class="cls-7" d="M93.64,7.84c3.29-.09,20.67,2.42,33.06,19,14.41,19.29,10.09,49.91,5.15,64-3.73,10.6-14.41,25.09-26.57,32.27-6.5,3.84-12.54,5.71-14.82,5.84H87.93c-2.27-.13-8.32-2-14.82-5.84C61,115.9,50.28,101.41,46.55,90.81c-4.94-14.06-9.26-44.68,5.15-64,12.39-16.58,29.77-19.09,33.06-19Z"></path><line class="cls-8" x1="113.19" y1="67.93" x2="107.84" y2="67.93"></line><line class="cls-9" x1="110.52" y1="61.81" x2="110.52" y2="66.59"></line><path class="cls-10" d="M119.38,55a17.73,17.73,0,0,0-17.22-1.47"></path><path d="M95.64,82.38a7.07,7.07,0,0,1-10,10Z"></path><path class="cls-9" d="M75.27,102.81s4.89,5.83,15.11,5.18"></path><path class="cls-11" d="M69.19,121c4.25,21.38-9.26,33.49-9.26,33.49l-.8.68a50.19,50.19,0,0,0,4.39,6.92,32.17,32.17,0,0,0,52.24,0,50.92,50.92,0,0,0,4.45-7l-.85-.59s-13.52-12.11-9.27-33.49"></path><line class="cls-8" x1="65.2" y1="67.93" x2="70.56" y2="67.93"></line><line class="cls-9" x1="67.88" y1="61.81" x2="67.88" y2="66.59"></line><path class="cls-10" d="M59,55a17.72,17.72,0,0,1,17.22-1.47"></path><line class="cls-9" x1="84.76" y1="56.21" x2="94.08" y2="56.21"></line><line class="cls-9" x1="51.68" y1="56.21" x2="42.12" y2="59.01"></line><line class="cls-9" x1="126.41" y1="56.21" x2="135.96" y2="59.01"></line><path class="cls-6" d="M86.57,15.9S84.82,35.3,72.24,46.13c0,0-19.75,1.22-30.23-9.26,0,0,14-36.7,45.78-34.25h3.85c31.8-2.45,45.78,34.25,45.78,34.25-10.48,10.48-33.2,9.44-33.2,9.44,1-16.78-9.61-32.51-9.61-32.51"></path><path class="cls-6" d="M86.4,13.45s4.89,21-4.2,32.86c0,0,7,2.09,13.28,1a64.14,64.14,0,0,0-1.4-34.25"></path><path class="cls-12" d="M65.42,37.92S51.09,63.26,48.3,79.86s7.86,43.51,9.44,44.39S44.1,123,42.88,122.15,24.71,59.76,45.5,35.65"></path><path class="cls-10" d="M55.87,47.35s-21.9,56.39,1.4,76.9"></path><line class="cls-10" x1="73.11" y1="16.95" x2="51.44" y2="63.43"></line><path class="cls-12" d="M113.43,37.92s14.33,25.34,17.12,41.94-7.86,43.51-9.44,44.39,13.64-1.23,14.86-2.1,18.17-62.39-2.62-86.5"></path><path class="cls-10" d="M123,47.35s21.9,56.39-1.4,76.9"></path><line class="cls-10" x1="105.74" y1="16.95" x2="127.41" y2="63.43"></line><path class="cls-9" d="M78.14,77.18a47.6,47.6,0,0,1-20.91,0,7,7,0,0,1-4.92-6.4V52.12a7,7,0,0,1,4.92-6.39,47.3,47.3,0,0,1,20.91,0,7,7,0,0,1,4.93,6.39V70.78A7,7,0,0,1,78.14,77.18Z"></path><path class="cls-13" d="M78.07,70.78A2.3,2.3,0,0,1,77,72.32a42.54,42.54,0,0,1-9.27,1"></path><path class="cls-13" d="M120.87,70.78a2.27,2.27,0,0,1-1.11,1.54,42.47,42.47,0,0,1-9.27,1"></path><path class="cls-9" d="M100.25,77.18a47.64,47.64,0,0,0,20.92,0,7,7,0,0,0,4.92-6.4V52.12a7,7,0,0,0-4.92-6.39,47.34,47.34,0,0,0-20.92,0,7,7,0,0,0-4.92,6.39V70.78A7,7,0,0,0,100.25,77.18Z"></path><path class="cls-6" d="M38.86,72.05s-6.29,39.85,7,52.66"></path><path class="cls-6" d="M139.06,70.42s7.92,37.52-4,52.66"></path><path class="cls-14" d="M38.4,53.65s-11.89,14.21-11,28.66"></path><path class="cls-14" d="M149.07,63.67s9.79,14,5.6,28.19"></path><path class="cls-15" d="M29.54,311.12s73.17,1.87,125.83-14L160,316.25s-33.09,20-135.15,17.71Z"></path><path d="M60.65,307.16A153.28,153.28,0,0,0,58.2,340l-6.29.35s-2.1-24.11,3.84-36.35"></path><path d="M132,298.84a154,154,0,0,1,2.94,32.82l6.29.25s1.74-24.15-4.39-36.29"></path><path d="M142.67,230.5c-8.39,8.39,3.38,27.5,3.38,27.5s-77.13,33.67-94.61,36.46-21-8.39-24.81-16.43-19.57-33.9-23.77-70.6S32,165.33,48,159.55a27.1,27.1,0,0,0,17.13-18.76c23.76,15.38,48.58.93,48.58.93S119.25,156.4,129,157.8c4.42.63,10.34,1.12,16.44,2.28"></path><path class="cls-10" d="M142.67,230.5c-8.39,8.39,3.38,27.5,3.38,27.5s-77.13,33.67-94.61,36.46-21-8.39-24.81-16.43-19.57-33.9-23.77-70.6S32,165.33,48,159.55a27.1,27.1,0,0,0,17.13-18.76c23.76,15.38,48.58.93,48.58.93S119.25,156.4,129,157.8c4.42.63,10.34,1.12,16.44,2.28"></path><path class="cls-10" d="M38.16,202.54a101.68,101.68,0,0,0,5.59,18.52c5.14,12.15,9.09,22,11.42,31.81"></path><path class="cls-10" d="M77.31,207.08s15,4.55,17.82,17.13"></path><path class="cls-2" d="M193.81,223s8.62-1.63,7.46,6.3-6.29,7.22-6.29,7.22"></path><path class="cls-1" d="M158.63,224s-12.58,5.12-15.38,13.51,0,19.11,11.18,18.64,25.17-7,25.17-7"></path><path class="cls-2" d="M145.11,231.43a96.08,96.08,0,0,0,16.78-8.85c9.32-6.06,23.77-6.53,23.77-6.53l23.76-17.71s4.66-1.39,4.2,3.27S192.18,224,192.18,224s.47,7.45.93,17.24S181.46,258.46,174.94,258s-12.58-11.66-12.58-11.66"></path><path class="cls-2" d="M172.14,240.75s6.06,11.65,4.2,14.92"></path><path class="cls-2" d="M180.07,231.43s8.85,16.31,4.66,22.84"></path><path class="cls-2" d="M187.29,225.84s8.85,8.85,4.66,19.57"></path><path class="cls-10" d="M45.39,255.67s15.37-2.8,32.15-7,64.31-18.17,64.31-18.17-6.06,11.65,4.2,27.5c0,0-36.82,15.37-74.1,29.35s-35.42,6.53-44.74-7.45"></path><line class="cls-7" x1="147.91" y1="259.39" x2="166.08" y2="253.34"></line><path class="cls-15" d="M108.41,335.72a50.17,50.17,0,0,1-22.09,1.44,7.43,7.43,0,0,1-5.64-6.42L79.39,311a7.43,7.43,0,0,1,4.76-7.09,50.18,50.18,0,0,1,22.09-1.44,7.42,7.42,0,0,1,5.64,6.41l1.29,19.72A7.43,7.43,0,0,1,108.41,335.72Z"></path><path class="cls-16" d="M92.85,329.7a37.58,37.58,0,0,1-4-.4,1.79,1.79,0,0,1-.58-.79l-1.06-16.3a1.67,1.67,0,0,1,.52-.82,36.7,36.7,0,0,1,15.87-1,1.6,1.6,0,0,1,.63.8l1.06,16.3a1.71,1.71,0,0,1-.52.82A36.87,36.87,0,0,1,92.85,329.7Z"></path><rect class="cls-17" x="146.08" y="127.04" width="180.35" height="156.23" rx="5"></rect><rect class="cls-18" x="146.08" y="127.04" width="180.35" height="156.23" rx="5"></rect><rect class="cls-18" x="165.19" y="144.75" width="142.14" height="13.51"></rect><line class="cls-18" x1="257.46" y1="188.56" x2="307.32" y2="188.56"></line><line class="cls-18" x1="257.46" y1="202.09" x2="307.32" y2="202.09"></line><line class="cls-18" x1="257.46" y1="215.62" x2="307.32" y2="215.62"></line><line class="cls-18" x1="257.46" y1="229.15" x2="307.32" y2="229.15"></line><line class="cls-18" x1="257.46" y1="242.68" x2="307.32" y2="242.68"></line><rect class="cls-18" x="166.93" y="188.56" width="69.32" height="41.18"></rect></g></g></svg>