<svg xmlns="http://www.w3.org/2000/svg" viewBox="0 0 226.2 226.2"><defs></defs><g id="Capa_2" data-name="Capa 2"><g id="Capa_2-2" data-name="Capa 2"><path class="cls-1" d="M135.55,182.63a38.68,38.68,0,0,1-5.88-18.46c-5.49,2.72-10.39,4-15.2,4l-1.06,0h-1.85c-5.17.2-10.39-1.09-16.27-4a38.69,38.69,0,0,1-7,20.12c-.77,1.09-1.49,2-2.1,2.7,3,2.9,11,8.84,25.29,9.18h2c12.46-.29,20.13-4.9,23.89-8,.52-.42,1-.82,1.34-1.18q-.5-.57-1.08-1.32A36.74,36.74,0,0,1,135.55,182.63Z"></path><path class="cls-1" d="M63.85,112.76h0s0,0,0,0l0,0a0,0,0,0,0,0,0Z"></path><path class="cls-1" d="M58.66,125.73a5.89,5.89,0,0,1-1.57-1.94,6.22,6.22,0,0,1-.57-1.66c0-.43,0-.85,0-1.26A4.7,4.7,0,0,1,57,119a9.08,9.08,0,0,1,1.81-2.65,9.29,9.29,0,0,1,1.29-1.13,6.31,6.31,0,0,1-.58-.25,11,11,0,0,1-2.83-1.82,7.86,7.86,0,0,0-1.22,4.29v3.29a8.32,8.32,0,0,0,.08,1.12,7.89,7.89,0,0,0,.85,2.67,5.89,5.89,0,0,0,1.6,1.93,3.84,3.84,0,0,0,2.32.82h.85a7.08,7.08,0,0,1-.73-.36A11.39,11.39,0,0,1,58.66,125.73Z"></path><path class="cls-1" d="M168,112.24a8.78,8.78,0,0,1-2,2.59,12.52,12.52,0,0,1-2.09,1.52,13,13,0,0,1,2.05,1.3,7.59,7.59,0,0,1,1.92,2.17,6.93,6.93,0,0,1,.85,2.76,5.92,5.92,0,0,1-1.71,4.14,7,7,0,0,0,2.93-6v-3.29A7.53,7.53,0,0,0,168,112.24Z"></path><path class="cls-1" d="M154.71,109.7h-.38a1.07,1.07,0,0,1-.22-.11,5.18,5.18,0,0,1-.66-.43q-.36-.24-.69-.51a10.47,10.47,0,0,1-.76-.74,5.67,5.67,0,0,1-.72-.9,9.79,9.79,0,0,1-.64-1.14,7.94,7.94,0,0,1-.67-2.55,8.13,8.13,0,0,1,.26-2.65,11.75,11.75,0,0,1,.46-1.25s0,0,0,0a8.06,8.06,0,0,1,.56-1,8.82,8.82,0,0,1,1.23-1.5,6.91,6.91,0,0,1,.57-.51l.09-.07h0l0,0a.07.07,0,0,0,0-.09.13.13,0,0,0-.08,0h0a7.3,7.3,0,0,1-1.19-.77,7.72,7.72,0,0,1-1.09-1,12.61,12.61,0,0,1-.85-1.08c-.26-.38-.44-.78-.66-1.17,0,0-2.43-4-1.3-7.44-7.19-5.85-18.54-11.26-35.93-11.26h-1c-21.1,0-33.3,8-40,15,0,.17-.07.34-.1.51l.5.22A13.46,13.46,0,0,1,71,90.49c-.13.22-.24.44-.37.66-.19,1.21-.36,2.42-.49,3.64.21.2.43.41.63.64l.34.4c.13.17.25.36.37.54a1,1,0,0,0,.1.17,7.17,7.17,0,0,1,.93,2.24,9.68,9.68,0,0,1,.22,1.31,11.82,11.82,0,0,1,0,1.33,7.48,7.48,0,0,1-.68,2.49,5.4,5.4,0,0,1-.56,1c-.19.29-.4.57-.61.84a12.25,12.25,0,0,1-1.14,1.14h0c0,.46,0,.92,0,1.37l.27.2a5.89,5.89,0,0,1,.63.51c.23.23.46.48.68.72l.32.38c.11.16.22.33.32.5a8.83,8.83,0,0,1,.56,1c.09.24.15.49.22.74A8.19,8.19,0,0,1,73,114c0,.27,0,.55,0,.82a5.76,5.76,0,0,1-.26,1.52,11.37,11.37,0,0,1-.48,1.19,5.33,5.33,0,0,1-.45.74q-.27.39-.57.75a3.93,3.93,0,0,1-.4.41c0,.24.08.46.12.69.17,1,.36,2,.55,2.87s.45,2,.68,2.9c.18.65.35,1.27.53,1.85.28.88.56,1.67.84,2.34l.17.41.83,2c.07.18.15.37.23.55.91,2.23,1.85,4.47,2.93,6.69.49,1,1,2,1.58,3s1,1.77,1.62,2.64a38.08,38.08,0,0,0,8.81,9.48q1.32,1,2.82,2c.85.55,1.74,1.09,2.68,1.61l.51.3c5.89,3.2,10.87,4.6,15.66,4.4h2.17c4.78.21,9.77-1.2,15.66-4.4.17-.09.32-.19.49-.29.94-.52,1.83-1.06,2.68-1.61s1.93-1.3,2.81-2c8.69-6.65,12-14.65,15.2-22.43.34-.81.67-1.62,1-2.42a46,46,0,0,0,2.41-8.92l-.28-.29-.27-.31-.27-.4a6.93,6.93,0,0,1-1.12-3.72,6.24,6.24,0,0,1,.28-2c.1-.32.22-.64.35-1a7,7,0,0,1,.42-.77q.23-.36.48-.72c.16-.19.3-.35.46-.52l.48-.51.39-.33.06-.09a1.56,1.56,0,0,0,.33-.47.28.28,0,0,0-.1-.26A.65.65,0,0,0,154.71,109.7Zm-30-24.78a21.43,21.43,0,0,1,20.93,1.94,4.5,4.5,0,0,1-5.41,7.19,12.4,12.4,0,0,0-11.89-.89,4.5,4.5,0,0,1-3.63-8.24Zm3.26,59c0,3.38-6.24,8.87-15.75,8.89s-15.72-5.51-15.74-8.89a18.38,18.38,0,0,1-1.61-1.14A2.5,2.5,0,0,1,98,138.93a17,17,0,0,0,2.41,1.53c3-.75,7.35-.65,11.75-.74,4.42.09,8.75,0,11.78.74a16.67,16.67,0,0,0,2.38-1.52,2.5,2.5,0,1,1,3.2,3.84A18.38,18.38,0,0,1,127.93,143.92Zm-11.09-8.69a5.91,5.91,0,0,1-8.36,0l8.36-8.36A5.91,5.91,0,0,1,116.84,135.23Zm-37-48.37a21.43,21.43,0,0,1,20.93-1.94,4.5,4.5,0,1,1-3.63,8.24A12.44,12.44,0,0,0,85.25,94a4.5,4.5,0,1,1-5.45-7.17Zm6.11,22.21a2.5,2.5,0,0,1,2.5-2.5h0v-5a2.5,2.5,0,0,1-3.75-2.68,2.44,2.44,0,0,1,.66-1.19,7.84,7.84,0,0,1,11-.11,2.48,2.48,0,0,1,.38,3.29,1.31,1.31,0,0,1-.17.24,2.47,2.47,0,0,1-1.87.84,2.53,2.53,0,0,1-1.22-.32v4.89h.05a2.5,2.5,0,0,1,0,5h-5.1A2.5,2.5,0,0,1,85.91,109.07Zm49.69,2.5h-5.09a2.5,2.5,0,0,1,0-5h0v-4.86a2.46,2.46,0,0,1-3-.55,2.5,2.5,0,0,1,.2-3.53,7.83,7.83,0,0,1,11,.11,2.49,2.49,0,0,1,0,3.53,2.26,2.26,0,0,1-.65.46,2.44,2.44,0,0,1-1.45.24,2.62,2.62,0,0,1-1.06-.39v5h0a2.5,2.5,0,0,1,0,5Z"></path><path class="cls-2" d="M0,0V226.2H11.75a96.14,96.14,0,0,1,7-9c.89-1.05,1.83-2.19,2.82-3.4,10.12-12.29,27-32.74,60.28-29.42a33.37,33.37,0,0,0,8.52-23,43.64,43.64,0,0,1-12-10.94c-.39.65-.79,1.28-1.18,1.86a38.91,38.91,0,0,1-11.65,11.36l-2.9,1.64-.77-3.24a59,59,0,0,1-1.67-18.36A39.25,39.25,0,0,1,45.59,147h-.2l-3.33-.08,1-3.17a57.89,57.89,0,0,1,8.62-17.45,13,13,0,0,1-1.23-5.57v-3.29a12.34,12.34,0,0,1,3.7-9c0-.38,0-.75.05-1.1a11,11,0,0,1-8.46-14.85,11,11,0,0,1-6.22-19.58,12.92,12.92,0,0,1,4.39-17.77A12.95,12.95,0,0,1,55.63,36.6,12.75,12.75,0,0,1,58.8,37,15.46,15.46,0,0,1,83.73,19.88,15.47,15.47,0,0,1,110.34,15a15.45,15.45,0,0,1,28.11,7.85h.16a15.47,15.47,0,0,1,28.51,8.32,15.24,15.24,0,0,1-.29,3,12.94,12.94,0,0,1,10.42,17.44,13,13,0,0,1,5.5,19.92A11,11,0,0,1,179,92.49a11,11,0,0,1-9,14.93,12,12,0,0,1,5,10v3.29c0,6.36-4.42,11.54-9.85,11.54h-1.39a6.7,6.7,0,0,1,2.39,2.3,2.36,2.36,0,0,1,.29.9,1.16,1.16,0,0,1,0,.68c-.11.36-.28.51-.47.52-.41,0-.81-.42-1.46-.56s-1.8-.32-3.73-.63a11.82,11.82,0,0,1-1.63-.37l-.47-.15-.52-.21a6,6,0,0,1-1.14-.63,3.92,3.92,0,0,1-.63-.52,3.23,3.23,0,0,1-.61-.69l0-.06c-.21.5-.42,1-.62,1.51-3.71,9-7.89,19.15-20.44,27a33.38,33.38,0,0,0,8.45,22.88l2.2.48c6.75.81,23.76,3.45,33.85,10.43,7.15,5,14.3,14.84,22.4,31h24.7V0Z"></path><path class="cls-2" d="M176.25,199.31c-6.18-4.28-15.65-6.81-23.08-8.23-4.35,6.41-17.74,18.89-40.09,18.89a62.92,62.92,0,0,1-7.47-.45c-26.4-3.13-32.26-17.47-33.2-20.48C47.63,190,34.47,206,25.41,217c-1,1.23-2,2.39-2.88,3.46-2,2.37-3.54,4.29-4.65,5.77h178C188.73,212.32,182.29,203.49,176.25,199.31Z"></path><path class="cls-2" d="M81.53,189.36c-1.28-.13-2.53-.23-3.75-.28,1.84,3.88,8.27,13.09,28.42,15.48,23.33,2.76,36.32-8.66,41.14-14.21l-2.84-.62-1.28-.15c-2.85,3-12.17,11.17-29.65,11.57h-2.14C93.46,200.74,84.11,192.16,81.53,189.36Z"></path><path class="cls-2" d="M75.28,145.81A76.64,76.64,0,0,1,71,136.87a40.17,40.17,0,0,1-5.46,4.07A48.72,48.72,0,0,0,66,157.29,35.78,35.78,0,0,0,75.28,145.81Z"></path><path class="cls-2" d="M61.31,133.42a4.75,4.75,0,0,1,.63-1.14H60.31a8.79,8.79,0,0,1-5.42-1.91,52.38,52.38,0,0,0-5.84,11.38,35.66,35.66,0,0,0,12-4,33.49,33.49,0,0,0,3-1.82,34.68,34.68,0,0,0,3.19-2.44l-.28.09c-1,.31-1.76.54-2.39.72s-1,.32-1.34.45c-.65.21-1,.71-1.42.76a.29.29,0,0,1-.18,0,.77.77,0,0,1-.39-.42,1.93,1.93,0,0,1-.13-.32c0-.11,0-.24,0-.38a4.42,4.42,0,0,1,0-.49C61.2,133.75,61.25,133.6,61.31,133.42Z"></path><path class="cls-2" d="M112,68.48c19.58,0,32.2,6.42,40.08,13.21A46.54,46.54,0,0,1,155.58,85h0l.85.36A74.47,74.47,0,0,0,151.88,73a52.2,52.2,0,0,0-9.72-14.25C135,51.4,125.89,47.45,115,47h-6.93c-15.62.66-27.54,8.48-35.48,23.25-.48.89-.95,1.8-1.4,2.75A75.69,75.69,0,0,0,66.84,84.6c-.15.55-.3,1.09-.44,1.62l.09-.1A47.5,47.5,0,0,1,70,82.53c1.09-1,2.29-2,3.58-3,8-6,19.92-11.1,37.46-11.1Z"></path><path class="cls-3" d="M135.6,106.57h0v1.23a2.5,2.5,0,1,1-5,0v-1.23h0a2.5,2.5,0,0,0,0,5h5.09a2.5,2.5,0,0,0,0-5Z"></path><path class="cls-3" d="M93.51,106.57h-.05v1.23a2.5,2.5,0,0,1-5,0v-1.23h0a2.5,2.5,0,0,0,0,5h5.1a2.5,2.5,0,0,0,0-5Z"></path><path class="cls-3" d="M88.46,101.61a2.12,2.12,0,0,0,.42-.32,2.83,2.83,0,0,1,4.14.08,3.19,3.19,0,0,0,.44.31,2.53,2.53,0,0,0,1.22.32,2.47,2.47,0,0,0,1.87-.84,1.31,1.31,0,0,0,.17-.24,2.48,2.48,0,0,0-.38-3.29,7.84,7.84,0,0,0-11,.11,2.44,2.44,0,0,0-.66,1.19,2.5,2.5,0,0,0,3.75,2.68Z"></path><path class="cls-3" d="M138.71,97.74a7.83,7.83,0,0,0-11-.11,2.5,2.5,0,0,0-.2,3.53,2.46,2.46,0,0,0,3,.55,2.16,2.16,0,0,0,.51-.34,2.83,2.83,0,0,1,4.14-.08,3.17,3.17,0,0,0,.35.29,2.62,2.62,0,0,0,1.06.39,2.44,2.44,0,0,0,1.45-.24,2.26,2.26,0,0,0,.65-.46A2.49,2.49,0,0,0,138.71,97.74Z"></path><path class="cls-3" d="M111,143.25l1.19,0,1.16,0a2.26,2.26,0,0,1,.26,0,24.17,24.17,0,0,0,10.34-2.8c-3-.75-7.36-.65-11.78-.74-4.4.09-8.72,0-11.75.74a24.41,24.41,0,0,0,10.26,2.8A1.71,1.71,0,0,1,111,143.25Z"></path><path class="cls-3" d="M112.18,148.28l-.41,0a28.78,28.78,0,0,1-15.33-4.38c0,3.38,6.23,8.87,15.74,8.89s15.73-5.51,15.75-8.89a28.78,28.78,0,0,1-15.33,4.38Z"></path><path d="M116.84,135.23a5.91,5.91,0,0,0,0-8.36l-8.36,8.36A5.91,5.91,0,0,0,116.84,135.23Z"></path><path d="M131.06,101.37a2.16,2.16,0,0,1-.51.34v6.09a2.5,2.5,0,1,0,5,0v-6.22a3.17,3.17,0,0,1-.35-.29A2.83,2.83,0,0,0,131.06,101.37Z"></path><path d="M93.46,107.8v-6.12a3.19,3.19,0,0,1-.44-.31,2.83,2.83,0,0,0-4.14-.08,2.12,2.12,0,0,1-.42.32v6.19a2.5,2.5,0,0,0,5,0Z"></path><path d="M97.1,93.16a4.5,4.5,0,1,0,3.63-8.24A21.43,21.43,0,0,0,79.8,86.86,4.5,4.5,0,1,0,85.25,94,12.44,12.44,0,0,1,97.1,93.16Z"></path><path d="M128.3,93.16a12.4,12.4,0,0,1,11.89.89,4.5,4.5,0,0,0,5.41-7.19,21.43,21.43,0,0,0-20.93-1.94,4.5,4.5,0,0,0,3.63,8.24Z"></path><path d="M179.1,195.2c-10.09-7-27.1-9.62-33.85-10.43l-2.2-.48a33.38,33.38,0,0,1-8.45-22.88c12.55-7.89,16.73-18,20.44-27,.2-.51.41-1,.62-1.51l0,.06a3.23,3.23,0,0,0,.61.69,3.92,3.92,0,0,0,.63.52,6,6,0,0,0,1.14.63l.52.21.47.15a11.82,11.82,0,0,0,1.63.37c1.93.31,3.09.43,3.73.63s1.05.59,1.46.56c.19,0,.36-.16.47-.52a1.16,1.16,0,0,0,0-.68,2.36,2.36,0,0,0-.29-.9,6.7,6.7,0,0,0-2.39-2.3h1.39c5.43,0,9.85-5.18,9.85-11.54v-3.29a12,12,0,0,0-5-10,11,11,0,0,0,9-14.93,11,11,0,0,0,3.75-21.06,13,13,0,0,0-5.5-19.92,12.94,12.94,0,0,0-10.42-17.44,15.24,15.24,0,0,0,.29-3,15.47,15.47,0,0,0-28.51-8.32h-.16A15.45,15.45,0,0,0,110.34,15a15.47,15.47,0,0,0-26.61,4.93A15.47,15.47,0,0,0,58.8,37a12.75,12.75,0,0,0-3.17-.41A12.95,12.95,0,0,0,43.92,55.14a12.92,12.92,0,0,0-4.39,17.77,11,11,0,0,0,6.22,19.58,11,11,0,0,0,8.46,14.85c0,.35,0,.72-.05,1.1a12.34,12.34,0,0,0-3.7,9v3.29a13,13,0,0,0,1.23,5.57,57.89,57.89,0,0,0-8.62,17.45l-1,3.17,3.33.08h.2a39.25,39.25,0,0,0,14.59-3.3,59,59,0,0,0,1.67,18.36l.77,3.24,2.9-1.64a38.91,38.91,0,0,0,11.65-11.36c.39-.58.79-1.21,1.18-1.86a43.64,43.64,0,0,0,12,10.94,33.37,33.37,0,0,1-8.52,23c-33.31-3.32-50.16,17.13-60.28,29.42-1,1.21-1.93,2.35-2.82,3.4a96.14,96.14,0,0,0-7,9h6.13c1.11-1.48,2.63-3.4,4.65-5.77.91-1.07,1.87-2.23,2.88-3.46,9.06-11,22.22-27,47-27.93.94,3,6.8,17.35,33.2,20.48a62.92,62.92,0,0,0,7.47.45c22.35,0,35.74-12.48,40.09-18.89,7.43,1.42,16.9,3.95,23.08,8.23s12.48,13,19.64,26.89h5.61C193.4,210,186.25,200.15,179.1,195.2Zm-31.76-4.85c-4.82,5.55-17.81,17-41.14,14.21-20.15-2.39-26.58-11.6-28.42-15.48,1.22,0,2.47.15,3.75.28,2.58,2.8,11.93,11.38,29.9,11.79h2.14c17.48-.4,26.8-8.56,29.65-11.57l1.28.15ZM80.92,145.4c-.57-.87-1.12-1.75-1.62-2.64s-1.09-2-1.58-3c-1.08-2.22-2-4.46-2.93-6.69-.08-.18-.16-.37-.23-.55l-.83-2-.17-.41c-.28-.67-.56-1.46-.84-2.34-.18-.58-.35-1.2-.53-1.85-.23-.9-.46-1.87-.68-2.9s-.38-1.87-.55-2.87c0-.23-.08-.45-.12-.69a3.93,3.93,0,0,0,.4-.41q.3-.36.57-.75a5.33,5.33,0,0,0,.45-.74,11.37,11.37,0,0,0,.48-1.19,5.76,5.76,0,0,0,.26-1.52c0-.27,0-.55,0-.82a8.19,8.19,0,0,0-.3-1.6c-.07-.25-.13-.5-.22-.74a8.83,8.83,0,0,0-.56-1c-.1-.17-.21-.34-.32-.5l-.32-.38c-.22-.24-.45-.49-.68-.72a5.89,5.89,0,0,0-.63-.51l-.27-.2c0-.45,0-.91,0-1.37h0a12.25,12.25,0,0,0,1.14-1.14c.21-.27.42-.55.61-.84a5.4,5.4,0,0,0,.56-1,7.48,7.48,0,0,0,.68-2.49,11.82,11.82,0,0,0,0-1.33,9.68,9.68,0,0,0-.22-1.31,7.17,7.17,0,0,0-.93-2.24,1,1,0,0,1-.1-.17c-.12-.18-.24-.37-.37-.54l-.34-.4c-.2-.23-.42-.44-.63-.64.13-1.22.3-2.43.49-3.64.13-.22.24-.44.37-.66a13.46,13.46,0,0,0,.51-1.27L71,89c0-.17.06-.34.1-.51,6.67-7,18.87-15,40-15h1c17.39,0,28.74,5.41,35.93,11.26-1.13,3.42,1.3,7.44,1.3,7.44.22.39.4.79.66,1.17a12.61,12.61,0,0,0,.85,1.08,7.72,7.72,0,0,0,1.09,1,7.3,7.3,0,0,0,1.19.77h0a.13.13,0,0,1,.08,0,.07.07,0,0,1,0,.09l0,0h0l-.09.07a6.91,6.91,0,0,0-.57.51,8.82,8.82,0,0,0-1.23,1.5,8.06,8.06,0,0,0-.56,1s0,0,0,0a11.75,11.75,0,0,0-.46,1.25,8.13,8.13,0,0,0-.26,2.65,7.94,7.94,0,0,0,.67,2.55,9.79,9.79,0,0,0,.64,1.14,5.67,5.67,0,0,0,.72.9,10.47,10.47,0,0,0,.76.74q.33.27.69.51a5.18,5.18,0,0,0,.66.43,1.07,1.07,0,0,0,.22.11h.38a.65.65,0,0,1,.32.11.28.28,0,0,1,.1.26,1.56,1.56,0,0,1-.33.47l-.06.09-.39.33-.48.51c-.16.17-.3.33-.46.52s-.33.48-.48.72a7,7,0,0,0-.42.77c-.13.31-.25.63-.35,1a6.84,6.84,0,0,0,0,3.94,6.16,6.16,0,0,0,.82,1.76l.27.4.27.31.28.29a46,46,0,0,1-2.41,8.92c-.33.8-.66,1.61-1,2.42-3.2,7.78-6.51,15.78-15.2,22.43-.88.67-1.82,1.33-2.81,2s-1.74,1.09-2.68,1.61c-.17.1-.32.2-.49.29-5.89,3.2-10.88,4.61-15.66,4.4H111.4c-4.79.2-9.77-1.2-15.66-4.4l-.51-.3c-.94-.52-1.83-1.06-2.68-1.61s-1.94-1.3-2.82-2A38.08,38.08,0,0,1,80.92,145.4ZM66,157.29a48.72,48.72,0,0,1-.44-16.35A40.17,40.17,0,0,0,71,136.87a76.64,76.64,0,0,0,4.31,8.94A35.78,35.78,0,0,1,66,157.29Zm104-36.55a7,7,0,0,1-2.93,6,5.92,5.92,0,0,0,1.71-4.14,6.93,6.93,0,0,0-.85-2.76,7.59,7.59,0,0,0-1.92-2.17,13,13,0,0,0-2.05-1.3,12.52,12.52,0,0,0,2.09-1.52,8.78,8.78,0,0,0,2-2.59,7.53,7.53,0,0,1,2,5.21Zm-106.1-8h0a0,0,0,0,1,0,0l0,0S63.82,112.75,63.85,112.77Zm2.64-26.65-.09.1c.14-.53.29-1.07.44-1.62A75.69,75.69,0,0,1,71.2,73c.45-.95.92-1.86,1.4-2.75C80.54,55.47,92.46,47.65,108.08,47H115c10.88.46,20,4.41,27.15,11.75A52.2,52.2,0,0,1,151.88,73a74.47,74.47,0,0,1,4.58,12.39l-.85-.36h0a46.54,46.54,0,0,0-3.48-3.32C144.22,74.9,131.6,68.48,112,68.48h-1c-17.54,0-29.49,5.15-37.46,11.1-1.29,1-2.49,2-3.58,3A47.5,47.5,0,0,0,66.49,86.12Zm-11,34.62v-3.29a7.86,7.86,0,0,1,1.22-4.29A11,11,0,0,0,59.51,115a6.31,6.31,0,0,0,.58.25,9.29,9.29,0,0,0-1.29,1.13A9.08,9.08,0,0,0,57,119a4.7,4.7,0,0,0-.43,1.86c0,.41,0,.83,0,1.26a6.22,6.22,0,0,0,.57,1.66,5.89,5.89,0,0,0,1.57,1.94,11.39,11.39,0,0,0,1.77,1.19,7.08,7.08,0,0,0,.73.36h-.85a3.84,3.84,0,0,1-2.32-.82,5.89,5.89,0,0,1-1.6-1.93,7.89,7.89,0,0,1-.85-2.67A8.32,8.32,0,0,1,55.46,120.74Zm-.57,9.63a8.79,8.79,0,0,0,5.42,1.91h1.63a4.75,4.75,0,0,0-.63,1.14c-.06.18-.11.33-.15.49a4.42,4.42,0,0,0,0,.49c0,.14,0,.27,0,.38a1.93,1.93,0,0,0,.13.32.77.77,0,0,0,.39.42.29.29,0,0,0,.18,0c.43-.05.77-.55,1.42-.76.31-.13.75-.27,1.34-.45s1.41-.41,2.39-.72l.28-.09A34.68,34.68,0,0,1,64.09,136a33.49,33.49,0,0,1-3,1.82,35.66,35.66,0,0,1-12,4A52.38,52.38,0,0,1,54.89,130.37Zm40.4,33.79c5.88,2.92,11.1,4.21,16.27,4h1.85l1.06,0c4.81,0,9.71-1.3,15.2-4a38.68,38.68,0,0,0,5.88,18.46,36.74,36.74,0,0,0,2.12,3q.59.75,1.08,1.32c-.37.36-.82.76-1.34,1.18-3.76,3.09-11.43,7.7-23.89,8h-2c-14.25-.34-22.24-6.28-25.29-9.18.61-.7,1.33-1.61,2.1-2.7A38.69,38.69,0,0,0,95.29,164.16Z"></path><path d="M126.34,138.94a16.67,16.67,0,0,1-2.38,1.52,24.17,24.17,0,0,1-10.34,2.8,2.26,2.26,0,0,0-.26,0l-1.16,0-1.19,0a1.71,1.71,0,0,0-.32,0,24.41,24.41,0,0,1-10.26-2.8A17,17,0,0,1,98,138.93a2.5,2.5,0,0,0-3.19,3.85,18.38,18.38,0,0,0,1.61,1.14,28.78,28.78,0,0,0,15.33,4.38l.41,0,.42,0a28.78,28.78,0,0,0,15.33-4.38,18.38,18.38,0,0,0,1.61-1.14,2.5,2.5,0,1,0-3.2-3.84Z"></path></g></g></svg>