<svg xmlns="http://www.w3.org/2000/svg" viewBox="0 0 226.2 226.2"><defs></defs><g id="Capa_2" data-name="Capa 2"><g id="Capa_2-2" data-name="Capa 2"><path class="cls-1" d="M70,188.69c-14.26,2-39.51,9.63-57.47,37.51h90.86C82.29,208.34,71.81,191.77,70,188.69Z"></path><path class="cls-1" d="M0,0V226.2H6.62a2.26,2.26,0,0,1,.11-.22C17,209,29.7,198.88,41.14,192.79c3.17-14.45,14.19-65.34,19.75-99,7.6-46.08,32.6-65.41,50.25-57.4h2.77c12.55-5.3,27.57,2.54,37.92,24.43a53.72,53.72,0,0,1,5.64,15,148.34,148.34,0,0,1,4.08,18c5.93,36,20.15,91.55,22.71,101.45q5,3.18,10.26,7.13a183.67,183.67,0,0,1,25.2,23.24,2.65,2.65,0,0,1,.38.62h6.1V0Z"></path><path class="cls-1" d="M112.13,216.59a112,112,0,0,0,27.39-29.38,38.52,38.52,0,0,1-10.12-30,37.19,37.19,0,0,1-15.78,5.19h-3.45a37,37,0,0,1-15.28-4.91A38.45,38.45,0,0,1,84.75,187.2,112.34,112.34,0,0,0,112.13,216.59Z"></path><path class="cls-1" d="M142,182.46l.42.48.33,0Z"></path><path class="cls-1" d="M148.17,189l1-1.4a33.84,33.84,0,0,0-3.49,0l-.59,0c-1.78,3.18-11.66,19.75-31.46,34a2.52,2.52,0,0,1-2.93,0A114.14,114.14,0,0,1,79.37,188c-.69,0-1.62,0-2.74.07l-.71.43h-.16a171,171,0,0,0,34.39,36.88,2.6,2.6,0,0,1,.67.85h3a2.49,2.49,0,0,1,.59-.72A197.64,197.64,0,0,0,148.17,189Z"></path><path class="cls-1" d="M97.18,98.26c-4.9-1.37-7.22,1.48-7.24,1.51a2.52,2.52,0,0,1-2,.94h-.11c-.6,4.61-1.1,9.45-1.46,14.49a221.57,221.57,0,0,1-3.13,24.25c3.51,5.14,8,10.14,13.5,13.4a32.69,32.69,0,0,0,13.61,4.59h3A32.69,32.69,0,0,0,127,152.85c6-3.54,10.77-9.15,14.39-14.76a223.06,223.06,0,0,1-2.88-22.89c-.36-5-.86-9.88-1.46-14.5h-.13a2.47,2.47,0,0,1-1.94-.92c-.27-.31-2.59-2.83-7.26-1.53a2.5,2.5,0,1,1-1.35-4.81,12.32,12.32,0,0,1,9.8,1c-.43-2.78-.89-5.45-1.37-8H90.11q-.72,3.85-1.37,8a12.28,12.28,0,0,1,9.78-1,2.5,2.5,0,1,1-1.34,4.81Zm19.06,20.93a6.21,6.21,0,0,1-8.78,8.78Zm-15.59,14a3.18,3.18,0,0,1,.4-.23,6.21,6.21,0,0,1,.93-.37,8.17,8.17,0,0,1,1-.16,8.28,8.28,0,0,1,1-.09,5.67,5.67,0,0,1,1,0,7,7,0,0,1,1,.27,8.78,8.78,0,0,1,1,.27,9.33,9.33,0,0,1,.88.48,7.27,7.27,0,0,1,.87.49,6.83,6.83,0,0,1,.73.69,7.62,7.62,0,0,1,.67.73,6.53,6.53,0,0,1,.64.77c.1.16.17.33.26.5.52,0,1.07,0,1.63,0a2.5,2.5,0,1,1,.32,5c-.59,0-1.17.06-1.73.06l-.35,0a1.6,1.6,0,0,1-.1.23,5.28,5.28,0,0,1-.69.73,4.63,4.63,0,0,1-.76.63,5.66,5.66,0,0,1-.82.56,6,6,0,0,1-1,.31,7.15,7.15,0,0,1-1,.29,6.65,6.65,0,0,1-1,0,8.53,8.53,0,0,1-1,0c-.32-.05-.63-.21-1-.29s-.67-.1-1-.22a8.44,8.44,0,0,1-.9-.46,8,8,0,0,1-.82-.57,8.75,8.75,0,0,1-.84-.56,8.07,8.07,0,0,1-.68-.75,6.36,6.36,0,0,1-.56-.83,5.44,5.44,0,0,1-.44-.91,6.58,6.58,0,0,1-.25-1,6.87,6.87,0,0,1-.18-1c0-.11,0-.22,0-.33a13.59,13.59,0,0,1-2.21-2,2.5,2.5,0,0,1,3.82-3.23A7.88,7.88,0,0,0,100.65,133.22Z"></path><path class="cls-1" d="M154.47,188.18a2.53,2.53,0,0,1-.4,1.1c-.49.73-1,1.45-1.49,2.16a201.28,201.28,0,0,1-31.35,34.76h92.28c-.77-.81-1.7-1.78-2.79-2.88C200.61,213.1,177.33,192,154.47,188.18Z"></path><path class="cls-2" d="M97.92,137.75a6.87,6.87,0,0,0,.18,1,6.58,6.58,0,0,0,.25,1,5.44,5.44,0,0,0,.44.91,6.36,6.36,0,0,0,.56.83,8.07,8.07,0,0,0,.68.75,8.75,8.75,0,0,0,.84.56,8,8,0,0,0,.82.57,8.44,8.44,0,0,0,.9.46c.31.12.66.13,1,.22s.64.24,1,.29a8.53,8.53,0,0,0,1,0,6.65,6.65,0,0,0,1,0,7.15,7.15,0,0,0,1-.29,6,6,0,0,0,1-.31,5.66,5.66,0,0,0,.82-.56,4.63,4.63,0,0,0,.76-.63,5.28,5.28,0,0,0,.69-.73,1.6,1.6,0,0,0,.1-.23,21.76,21.76,0,0,1-12.89-4.13C97.93,137.53,97.92,137.64,97.92,137.75Z"></path><path class="cls-2" d="M110.7,136.06a6.53,6.53,0,0,0-.64-.77,7.62,7.62,0,0,0-.67-.73,6.83,6.83,0,0,0-.73-.69,7.27,7.27,0,0,0-.87-.49,9.33,9.33,0,0,0-.88-.48,8.78,8.78,0,0,0-1-.27,7,7,0,0,0-1-.27,5.67,5.67,0,0,0-1,0,8.28,8.28,0,0,0-1,.09,8.17,8.17,0,0,0-1,.16,6.21,6.21,0,0,0-.93.37,3.18,3.18,0,0,0-.4.23A16.61,16.61,0,0,0,111,136.56C110.87,136.39,110.8,136.22,110.7,136.06Z"></path><path d="M219.72,225.58a183.67,183.67,0,0,0-25.2-23.24q-5.22-4-10.26-7.13c-2.56-9.9-16.78-65.48-22.71-101.45a148.34,148.34,0,0,0-4.08-18,53.72,53.72,0,0,0-5.64-15c-10.35-21.89-25.37-29.73-37.92-24.43h-2.77c-17.65-8-42.65,11.32-50.25,57.4-5.56,33.69-16.58,84.58-19.75,99C29.7,198.88,17,209,6.73,226a2.26,2.26,0,0,0-.11.22h5.87c18-27.88,43.21-35.49,57.47-37.51,1.85,3.08,12.33,19.65,33.39,37.51h7.47a2.6,2.6,0,0,0-.67-.85,171,171,0,0,1-34.39-36.88h.16l.71-.43c1.12-.05,2.05-.07,2.74-.07a114.14,114.14,0,0,0,31.3,33.74,2.52,2.52,0,0,0,2.93,0c19.8-14.29,29.68-30.86,31.46-34l.59,0a33.84,33.84,0,0,1,3.49,0l-1,1.4a197.64,197.64,0,0,1-33.78,36.45,2.49,2.49,0,0,0-.59.72h7.43a201.28,201.28,0,0,0,31.35-34.76c.5-.71,1-1.43,1.49-2.16a2.53,2.53,0,0,0,.4-1.1c22.86,3.77,46.14,24.92,56.25,35.14,1.09,1.1,2,2.07,2.79,2.88h6.59A2.65,2.65,0,0,0,219.72,225.58ZM83.27,139.45A221.57,221.57,0,0,0,86.4,115.2c.36-5,.86-9.88,1.46-14.49H88a2.52,2.52,0,0,0,2-.94s2.34-2.88,7.24-1.51a2.5,2.5,0,1,0,1.34-4.81,12.28,12.28,0,0,0-9.78,1q.65-4.17,1.37-8h44.71c.48,2.58.94,5.25,1.37,8a12.32,12.32,0,0,0-9.8-1,2.5,2.5,0,1,0,1.35,4.81c4.67-1.3,7,1.22,7.26,1.53a2.47,2.47,0,0,0,1.94.92h.13c.6,4.62,1.1,9.46,1.46,14.5a223.06,223.06,0,0,0,2.88,22.89c-3.62,5.61-8.39,11.22-14.39,14.76a32.69,32.69,0,0,1-13.61,4.59h-3a32.69,32.69,0,0,1-13.61-4.59C91.25,149.59,86.78,144.59,83.27,139.45Zm59.11,43.49-.42-.48.75.45Zm-30.25,33.65A112.34,112.34,0,0,1,84.75,187.2a38.45,38.45,0,0,0,10.14-29.67,37,37,0,0,0,15.28,4.91h3.45a37.19,37.19,0,0,0,15.78-5.19,38.52,38.52,0,0,0,10.12,30A112,112,0,0,1,112.13,216.59Z"></path><path d="M116.24,128a6.2,6.2,0,0,0,0-8.78L107.46,128A6.2,6.2,0,0,0,116.24,128Z"></path><path d="M110.83,141.55l.35,0c.56,0,1.14,0,1.73-.06a2.5,2.5,0,1,0-.32-5c-.56,0-1.11,0-1.63,0a16.61,16.61,0,0,1-10.31-3.34,7.88,7.88,0,0,1-1.1-1,2.5,2.5,0,0,0-3.82,3.23,13.59,13.59,0,0,0,2.21,2A21.76,21.76,0,0,0,110.83,141.55Z"></path></g></g></svg>