<svg xmlns="http://www.w3.org/2000/svg" viewBox="0 0 231.2 231.2"><defs></defs><g id="Capa_2" data-name="Capa 2"><g id="Capa_2-2" data-name="Capa 2"><rect class="cls-1" width="231.2" height="231.2"></rect><rect class="cls-1" x="0.74" y="0.15" width="230.46" height="230.46"></rect><path class="cls-2" d="M169.09,125.65a3.31,3.31,0,0,1-.61-.19l-1.27,5.87h6.55c3.06,0,5.64-3.44,5.64-7.51v-3.64c0-3.23-1.63-6.05-3.82-7.09l-2,9.64A3.79,3.79,0,0,1,169.09,125.65Z"></path><path class="cls-2" d="M57.16,122.73l-1.93-9.19a8.19,8.19,0,0,0-3,6.64v3.64c0,4.07,2.58,7.51,5.63,7.51h7l-1.42-6.56a3.75,3.75,0,0,1-6.18-2Z"></path><path class="cls-2" d="M141.84,92.62A16.81,16.81,0,1,0,149,94.26l-.12-.06A16.63,16.63,0,0,0,141.84,92.62Zm.83,21h-5.35a2.5,2.5,0,0,1,0-5h.17V103a2.5,2.5,0,0,1,5,0v5.62h.18a2.5,2.5,0,0,1,0,5Z"></path><path class="cls-2" d="M22.41,231.2H54.9l-3.49-12.55A256.4,256.4,0,0,0,22.41,231.2Z"></path><path class="cls-2" d="M81.34,94.55a3.38,3.38,0,0,1-.63-.07,16.71,16.71,0,1,0,7.63-1.86,16.3,16.3,0,0,0-3.58.4,11.64,11.64,0,0,0-1.63.94A3,3,0,0,1,81.34,94.55Zm6.17,14.07h.18V103a2.5,2.5,0,0,1,5,0v5.62h.18a2.5,2.5,0,0,1,0,5H87.51a2.5,2.5,0,1,1,0-5Z"></path><path class="cls-2" d="M102.39,218.8a61.1,61.1,0,0,1-21.29-8.7c-1.1.25-3,.7-5.49,1.33l5.22,19.77h67.29l3.15-21.69C131.49,221.32,114,221.19,102.39,218.8Z"></path><path class="cls-2" d="M77.78,139.37a23.05,23.05,0,0,0,24.16,4.4l8.39-3.29a7.87,7.87,0,0,1-1.73-1.29L119.75,128a7.88,7.88,0,0,1,0,11.15c-.17.16-.34.32-.52.47l10.18,4a2.41,2.41,0,0,1,.61-1.58,2.49,2.49,0,0,1,3.52-.24l3.5,3.06a2.61,2.61,0,0,1,.41.47,23.13,23.13,0,0,0,17-6.58,47.3,47.3,0,0,0,8.61-12.08l3-13.72c.3-1.35.52-2.71.71-4.06.15-7.13-.05-16.3-1.77-21,0,0-21-4.37-17.49-21.43,0,0-14.25,3.22-23.33-4.68-4.34,2.48-10,3.74-17,3.59a29.6,29.6,0,0,1-5.46-.61c-8.6,4-18.69,1.7-18.69,1.7,3,14.72-12.18,20-16.41,21.16A52.63,52.63,0,0,0,65.9,113l3.2,14.75A45.4,45.4,0,0,0,77.78,139.37Zm-11.17-30A21.76,21.76,0,0,1,79,89.76a2.84,2.84,0,0,1,.56-.59,20.69,20.69,0,0,1,20.25-1.83,3,3,0,0,1,1.54,4,3.14,3.14,0,0,1-.25.44,22,22,0,0,1,6.62,7.69h14.84A22,22,0,0,1,130.25,91a3,3,0,0,1,1.63-3.64,20.69,20.69,0,0,1,20.25,1.83,3,3,0,0,1,1.08,1.67,21.74,21.74,0,1,1-32.54,13.58H109.51a21.74,21.74,0,1,1-42.9,4.94Z"></path><path class="cls-2" d="M137.09,181.73A48.86,48.86,0,0,1,116,186.2a50.65,50.65,0,0,1-16.86-2.74,39,39,0,0,1-7.73,26.65c10.42,4.69,29.79,9.6,53.06-2.51C138.3,199.26,137.09,188.66,137.09,181.73Z"></path><path class="cls-2" d="M50.07,213.82l-.91-3.27a2.5,2.5,0,0,1,1.72-3.08l19.57-5.59a2.5,2.5,0,0,1,3.11,1.77l.77,2.94c4.13-1,6.72-1.61,6.78-1.62l1.13-.25.92.71a35.86,35.86,0,0,0,3.71,2.38c3.14-3.84,8.87-12.95,7-26.58-18.8-9.46-24.56-29.41-25.3-32.3l-2.73-12.6h-8c-5.86,0-10.63-5.61-10.63-12.51v-3.64c0-5.26,2.78-9.76,6.69-11.61-8.4-16,1.84-21.06,1.84-21.06-7-5.46-4.88-17.21,2.17-24.81,8.2-8.86,15.32-10.61,15.32-10.61A22.11,22.11,0,0,1,88.12,38.35a16.52,16.52,0,0,1,1.14-2c5.09-7.71,13.09-9,19.34-8.53a19.21,19.21,0,0,0-1.26-7,2.49,2.49,0,0,1,3.72-2.92l0-.1a4.13,4.13,0,0,1,3.28-4.27c2.89-.78,18.12,7.87,20.78,22.09h0c.1.55.18,1.1.25,1.66,6.06.19,17.1,2.34,22,14.84,0,0,7.12,1.75,15.32,10.61,7,7.6,9.19,19.35,2.17,24.81,0,0,10.08,5,2,20.71,4.35,1.56,7.53,6.33,7.53,12v3.64c0,6.9-4.77,12.51-10.64,12.51h-7.63l-2.71,12.51c-.7,2.73-5.68,20-21.24,30.06-.28,5.9.12,17.78,6.69,26.23,1.11-.67,2.22-1.38,3.35-2.12l.17-1.17a2.49,2.49,0,0,1,2.88-2.1l20.08,3.33a2.49,2.49,0,0,1,2.06,2.86l-.24,1.5c10.81,4,25.82,11.34,38.38,23.77H231.2V0H0V231.2H11.58A279.54,279.54,0,0,1,50.07,213.82Z"></path><path class="cls-2" d="M173.4,231.2h34.8c-10.65-9.28-22.68-15.16-31.83-18.68Z"></path><path class="cls-3" d="M154.49,138.78a23.13,23.13,0,0,1-17,6.58,2.5,2.5,0,0,1-2,3.92,2.44,2.44,0,0,1-1.39-.44,25.1,25.1,0,0,1-17.42,7.52h-.37c-.4,0-.78,0-1.16,0a20.21,20.21,0,0,1-5.18-.86,2.5,2.5,0,0,1,1.6-4.73,15.57,15.57,0,0,0,3.58.59q.72,0,1.53,0a20.21,20.21,0,0,0,13.62-5.81,2.5,2.5,0,0,1-.8-1.91l-10.18-4a7.79,7.79,0,0,1-2.64,1.45,8,8,0,0,1-1.53.33,7.88,7.88,0,0,1-4.73-1l-8.39,3.29a23.05,23.05,0,0,1-24.16-4.4,45.4,45.4,0,0,1-8.68-11.64l4.34,20c.68,2.64,6.27,22,24.88,30l.05,0a43.92,43.92,0,0,0,16.69,3.4c.31,0,.6,0,.92,0l.61,0a42.73,42.73,0,0,0,20.78-5.27c.64-.36,1.27-.73,1.88-1.12,14.17-9,18.68-24.69,19.3-27.11l4.55-21A47.3,47.3,0,0,1,154.49,138.78Zm-37.9,38.58c-.11,0-.21,0-.33,0a2.52,2.52,0,0,1,0-5c.12,0,.22,0,.33,0a2.5,2.5,0,0,1,0,5Z"></path><path class="cls-3" d="M87.51,113.62h5.36a2.5,2.5,0,0,0,0-5h-.18v1.16a2.5,2.5,0,0,1-5,0v-1.16h-.18a2.5,2.5,0,1,0,0,5Z"></path><path class="cls-3" d="M137.32,113.62h5.35a2.5,2.5,0,0,0,0-5h-.18v1.16a2.53,2.53,0,0,1-.39,1.34,2.49,2.49,0,0,1-4.21,0,2.46,2.46,0,0,1-.4-1.34v-1.16h-.17a2.5,2.5,0,0,0,0,5Z"></path><path class="cls-1" d="M111.06,17.86a2.49,2.49,0,0,0-3.72,2.92,19.21,19.21,0,0,1,1.26,7,31.19,31.19,0,0,1,3.29.4A15.23,15.23,0,0,0,111.06,17.86Z"></path><path class="cls-1" d="M105.09,35.15a2.5,2.5,0,0,0,1.22,4.68,2.47,2.47,0,0,0,1.2-.31,11.91,11.91,0,0,0,3.8-3.74l-1.94-1a26,26,0,0,0,2.52-6.6,31.19,31.19,0,0,0-3.29-.4C108.43,33.05,105.31,35,105.09,35.15Z"></path><path class="cls-1" d="M111.89,28.21c.61.1,1.19.22,1.73.33a24.21,24.21,0,0,0-1.56-9.43,2.45,2.45,0,0,0-1-1.25A15.23,15.23,0,0,1,111.89,28.21Z"></path><path class="cls-1" d="M111.89,28.21a26,26,0,0,1-2.52,6.6l1.94,1a14.56,14.56,0,0,0,2.31-7.24C113.08,28.43,112.5,28.31,111.89,28.21Z"></path><polygon class="cls-4" points="69.5 207.86 69.37 207.39 54.64 211.6 54.81 212.21 56.15 217.04 60.09 231.2 75.66 231.2 70.77 212.69 69.5 207.86"></polygon><polygon class="cls-4" points="159.76 205.55 157.02 205.09 156.97 205.09 156.93 205.38 153.17 231.2 168.34 231.2 171.58 210.79 172.08 207.59 159.76 205.55"></polygon><path d="M177.17,207.43l.24-1.5a2.49,2.49,0,0,0-2.06-2.86l-20.08-3.33a2.49,2.49,0,0,0-2.88,2.1l-.17,1.17c-1.13.74-2.24,1.45-3.35,2.12-6.57-8.45-7-20.33-6.69-26.23,15.56-10.08,20.54-27.33,21.24-30.06l2.71-12.51h7.63c5.87,0,10.64-5.61,10.64-12.51v-3.64c0-5.63-3.18-10.4-7.53-12,8.06-15.75-2-20.71-2-20.71,7-5.46,4.88-17.21-2.17-24.81-8.2-8.86-15.32-10.61-15.32-10.61-4.94-12.5-16-14.65-22-14.84-.07-.56-.15-1.11-.25-1.66h0c-2.66-14.22-17.89-22.87-20.78-22.09A4.13,4.13,0,0,0,111,17.76l0,.1a2.45,2.45,0,0,1,1,1.25,24.21,24.21,0,0,1,1.56,9.43,14.56,14.56,0,0,1-2.31,7.24,11.91,11.91,0,0,1-3.8,3.74,2.49,2.49,0,0,1-3.39-1,2.49,2.49,0,0,1,1-3.38c.22-.13,3.34-2.1,3.51-7.34-6.25-.45-14.25.82-19.34,8.53a16.52,16.52,0,0,0-1.14,2A22.11,22.11,0,0,0,73.2,52.09S66.08,53.84,57.88,62.7c-7.05,7.6-9.19,19.35-2.17,24.81,0,0-10.24,5-1.84,21.06-3.91,1.85-6.69,6.35-6.69,11.61v3.64c0,6.9,4.77,12.51,10.63,12.51h8l2.73,12.6c.74,2.89,6.5,22.84,25.3,32.3,1.86,13.63-3.87,22.74-7,26.58a35.86,35.86,0,0,1-3.71-2.38l-.92-.71-1.13.25c-.06,0-2.65.58-6.78,1.62l-.77-2.94a2.5,2.5,0,0,0-3.11-1.77l-19.57,5.59a2.5,2.5,0,0,0-1.72,3.08l.91,3.27A279.54,279.54,0,0,0,11.58,231.2H22.41a256.4,256.4,0,0,1,29-12.55L54.9,231.2h5.19L56.15,217l-1.34-4.83-.17-.61,14.73-4.21.13.47,1.27,4.83,4.89,18.51h5.17l-5.22-19.77c2.48-.63,4.39-1.08,5.49-1.33a61.1,61.1,0,0,0,21.29,8.7c11.57,2.39,29.1,2.52,48.88-9.29l-3.15,21.69h5l3.76-25.83,0-.28H157l2.74.45,12.32,2-.5,3.2-3.24,20.41h5.06l3-18.68c9.15,3.52,21.18,9.4,31.83,18.68h7.35C203,218.77,188,211.46,177.17,207.43ZM65.9,113a52.63,52.63,0,0,1,.73-25.3C70.86,86.51,86.06,81.24,83,66.52c0,0,10.09,2.28,18.69-1.7a29.6,29.6,0,0,0,5.46.61c7,.15,12.66-1.11,17-3.59,9.08,7.9,23.33,4.68,23.33,4.68C144,83.58,165,88,165,88c1.72,4.67,1.92,13.84,1.77,21-.19,1.35-.41,2.71-.71,4.06l-3,13.72-4.55,21c-.62,2.42-5.13,18.08-19.3,27.11-.61.39-1.24.76-1.88,1.12a42.73,42.73,0,0,1-20.78,5.27l-.61,0c-.32,0-.61,0-.92,0a43.92,43.92,0,0,1-16.69-3.4l-.05,0c-18.61-8-24.2-27.33-24.88-30l-4.34-20Zm113.5,7.2v3.64c0,4.07-2.58,7.51-5.64,7.51h-6.55l1.27-5.87a3.31,3.31,0,0,0,.61.19,3.79,3.79,0,0,0,4.47-2.92l2-9.64C177.77,114.13,179.4,117,179.4,120.18ZM57.81,131.33c-3.05,0-5.63-3.44-5.63-7.51v-3.64a8.19,8.19,0,0,1,3-6.64l1.93,9.19a3.75,3.75,0,0,0,6.18,2l1.42,6.56Zm33.6,78.78a39,39,0,0,0,7.73-26.65A50.65,50.65,0,0,0,116,186.2a48.86,48.86,0,0,0,21.09-4.47c0,6.93,1.21,17.53,7.38,25.87C121.2,219.71,101.83,214.8,91.41,210.11Z"></path><path d="M110.08,109.36a21.75,21.75,0,0,0-.57-4.94h11.16a21.74,21.74,0,1,0,32.54-13.58,3,3,0,0,0-1.08-1.67,20.69,20.69,0,0,0-20.25-1.83A3,3,0,0,0,130.25,91a22,22,0,0,0-7.74,8.44H107.67a22,22,0,0,0-6.62-7.69,3.14,3.14,0,0,0,.25-.44,3,3,0,0,0-1.54-4,20.69,20.69,0,0,0-20.25,1.83,2.84,2.84,0,0,0-.56.59,21.74,21.74,0,1,0,31.13,19.6Zm31.76-16.74a16.63,16.63,0,0,1,7,1.58l.12.06a16.69,16.69,0,1,1-7.17-1.64ZM71.61,109.36a16.74,16.74,0,0,1,9.1-14.88,3.38,3.38,0,0,0,.63.07A3,3,0,0,0,83.13,94,11.64,11.64,0,0,1,84.76,93a16.3,16.3,0,0,1,3.58-.4,16.74,16.74,0,1,1-16.73,16.74Z"></path><path d="M115.06,141.44a8,8,0,0,0,1.53-.33,7.79,7.79,0,0,0,2.64-1.45c.18-.15.35-.31.52-.47a7.88,7.88,0,0,0,0-11.15L108.6,139.19a8,8,0,0,0,6.46,2.25Z"></path><path d="M90.19,112.28a2.52,2.52,0,0,0,2.5-2.5V103a2.5,2.5,0,0,0-5,0v6.78a2.52,2.52,0,0,0,2.5,2.5Z"></path><path d="M140,112.28a2.5,2.5,0,0,0,2.11-1.16,2.53,2.53,0,0,0,.39-1.34V103a2.5,2.5,0,0,0-5,0v6.78a2.52,2.52,0,0,0,2.5,2.5Z"></path><path d="M116.59,172.39c-.11,0-.21,0-.33,0a2.52,2.52,0,0,0,0,5c.12,0,.22,0,.33,0a2.5,2.5,0,0,0,0-5Z"></path><path d="M137,144.89l-3.5-3.06a2.49,2.49,0,0,0-3.52.24,2.41,2.41,0,0,0-.61,1.58,2.5,2.5,0,0,0,.8,1.91,20.21,20.21,0,0,1-13.62,5.81q-.81,0-1.53,0a15.57,15.57,0,0,1-3.58-.59,2.5,2.5,0,0,0-1.6,4.73,20.21,20.21,0,0,0,5.18.86c.38,0,.76,0,1.16,0h.37A25.1,25.1,0,0,0,134,148.84a2.44,2.44,0,0,0,1.39.44,2.5,2.5,0,0,0,2-3.92A2.61,2.61,0,0,0,137,144.89Z"></path></g></g></svg>