<svg xmlns="http://www.w3.org/2000/svg" viewBox="0 0 231.2 231.2"><defs></defs><g id="Capa_2" data-name="Capa 2"><g id="Capa_2-2" data-name="Capa 2"><path class="cls-1" d="M47,190.33a16,16,0,0,1,4.48-12.69c6.28-6.42,15.93-8,19.3-8.32a24.2,24.2,0,0,1,10.33-6.78,49.62,49.62,0,0,1-10.46-20L68,130.83H60.65c-5.6,0-10.15-5.35-10.15-11.92v-3.43c0-6.53,4.49-11.85,10-11.92-1.23-10.36-2-24.69.59-38.08a33.91,33.91,0,0,1,21.5-25.26,99.17,99.17,0,0,1,31.19-5.59h2.71A99.56,99.56,0,0,1,147.19,40a34.53,34.53,0,0,1,22.25,26.24c2.4,13.17,1.66,27.15.45,37.32,5.55.06,10.06,5.38,10.06,11.92v3.43c0,6.57-4.56,11.92-10.16,11.92h-6.95l-2.65,11.68a50.09,50.09,0,0,1-8.33,17.36c3.49,1.13,9.73,4.28,14.62,12.84,3.56,1.38,15.64,6.88,16.33,18.13v.36c1.34,0,3.27,0,5.69.05h0c9.59.41,26.6,2.63,42.67,12.19V0H0V208.58l2.5-1.92C23.16,190.18,40.39,189.73,47,190.33Z"></path><path class="cls-1" d="M150.72,137.93a2.5,2.5,0,1,1-3-4c7.46-5.65,12.29-17.88,12.34-18a2.49,2.49,0,0,1,1.16-1.29,121.47,121.47,0,0,0,.52-19.52A33.83,33.83,0,0,1,150.53,90a24.11,24.11,0,0,0,1.95,3.74,2.49,2.49,0,0,1-2,3.9h-.22C134,97.61,122,78.72,114,66.21c-2.83-4.47-5.76-9.09-7.25-10a5.27,5.27,0,0,0-7.41,1.27,2.48,2.48,0,0,1-2.71,1,2.43,2.43,0,0,1-2.08-.35c-2.64-1.83-5.14-2.43-7.65-1.83-5.65,1.36-9.57,8.42-9.61,8.5l-.08.13C67.16,81.25,68.73,106,69.68,114.79a2.56,2.56,0,0,1,.93,1.16c0,.12,4.89,12.36,12.33,18a2.5,2.5,0,1,1-3,4,34.78,34.78,0,0,1-6.87-7.25L75.5,141.4c.81,3.15,9,31.36,39.9,31.36s39.11-28.21,39.93-31.43l2.5-11A35.17,35.17,0,0,1,150.72,137.93ZM93.64,109.45h-5a2.5,2.5,0,0,1,0-5h0V99.31a2.5,2.5,0,0,1,5,0v5.14h0a2.5,2.5,0,0,1,0,5ZM100,89.8a33.83,33.83,0,0,1-11.91,2.39,16.88,16.88,0,0,1-6.45-1.06,2.83,2.83,0,0,1,2.25-5.2c.17.07,5.19,1.94,14.11-1.43a2.83,2.83,0,0,1,2,5.3Zm19,33.07a7.42,7.42,0,0,1-10.49,10.5Zm-3.28,46.46A2.37,2.37,0,1,1,118,167,2.37,2.37,0,0,1,115.67,169.33Zm19.89-27.17a2.51,2.51,0,0,1-3.18.49,23.73,23.73,0,0,1-16.75,7,20.13,20.13,0,0,1-6-.84,2.5,2.5,0,0,1,1.59-4.74c.42.14,9.19,2.86,17.38-4.75a2.5,2.5,0,0,1,3.44-3.61l3.3,2.88A2.51,2.51,0,0,1,135.56,142.16Zm5-32.71h-5a2.5,2.5,0,0,1,0-5h0V99.31a2.5,2.5,0,0,1,5,0v5.14h0a2.5,2.5,0,0,1,0,5Z"></path><path class="cls-1" d="M175,118.91v-3.43c0-3.75-2.36-6.93-5.16-6.93h-.57c-.85,5.66-1.69,9.35-1.78,9.75a2.49,2.49,0,0,1-2.19,1.91L164,125.83h5.81C172.59,125.83,175,122.66,175,118.91Z"></path><path class="cls-1" d="M63,118.3c-.09-.41-.94-4.09-1.78-9.75h-.56c-2.79,0-5.15,3.18-5.15,6.93v3.43c0,3.75,2.36,6.92,5.15,6.92h6.19l-1.28-5.6A2.5,2.5,0,0,1,63,118.3Z"></path><path class="cls-1" d="M85.77,51.42a13.72,13.72,0,0,1,10.62,1.92c2.47-2.46,7.22-4.85,13-1.39,2.5,1.5,5.18,5.73,8.89,11.58C124.83,73.88,134.38,88.94,146,92a27.16,27.16,0,0,1-2.23-8.82,2.5,2.5,0,0,1,4.35-1.84,34,34,0,0,0,13.18,8.46c-.33-2.92-.77-5.73-1.34-8.37a2.5,2.5,0,0,1,4.88-1.06c.47,2.15.85,4.41,1.16,6.74a103.57,103.57,0,0,0-1.46-20,29.53,29.53,0,0,0-19-22.43,94.8,94.8,0,0,0-29-5.07H113.9a93.86,93.86,0,0,0-29.54,5.28A28.87,28.87,0,0,0,66,66.43a106,106,0,0,0-1.52,23.5c1-9.28,3.34-19.3,8.44-27.59C73.48,61.4,78.17,53.24,85.77,51.42Z"></path><path class="cls-1" d="M81.34,202.23C88,208.15,99,213.92,114.18,215.39a50.91,50.91,0,0,0,16.43-2.46,67.93,67.93,0,0,0,11.71-5.7,40.86,40.86,0,0,0,8.35-8.38c-8.06-8.93-9.27-21.46-9.16-28.91a44.8,44.8,0,0,1-26.09,7.82,45.28,45.28,0,0,1-23.79-6.32C93.37,189.33,83.5,200.11,81.34,202.23Z"></path><path class="cls-2" d="M142.32,207.23a67.93,67.93,0,0,1-11.71,5.7,51.1,51.1,0,0,0,6.15-2.37A32.35,32.35,0,0,0,142.32,207.23Z"></path><path class="cls-2" d="M155.57,187.81c-.67-3.09-4.56-4.36-7.47-4.44a30,30,0,0,0,5.4,11.09C155.1,191.54,155.84,189.07,155.57,187.81Z"></path><path class="cls-2" d="M75.48,217.77c18,8.59,30.71,8.34,40.9,8.14l.94,0c13.54-.25,38.41-3,52.85-18.65,5.59-6.06,7.87-12.45,7.65-16.09-.4-6.49-6.61-10.62-10.58-12.62a18.34,18.34,0,0,1-.29,5.15,2.51,2.51,0,0,1-2.43,1.92,2.3,2.3,0,0,1-.58-.07,2.51,2.51,0,0,1-1.86-3,14.5,14.5,0,0,0-4.38-13.16,2.64,2.64,0,0,1-.35-.4c-4.46-4.26-8.59-4.73-8.64-4.74l.06-.62c-.64.7-1.32,1.37-2,2a54.71,54.71,0,0,0,.32,12.75c5.22-.29,12,2.2,13.38,8.37,1.54,7.12-8.85,22.44-21.6,28.35a57.94,57.94,0,0,1-23.51,5.32c-.92,0-1.48,0-1.57,0a67.17,67.17,0,0,1-29-9.43c-7-4.34-12.33-9.87-14.72-15.17-1.78-3.95-1.75-7.51.07-10,4.69-6.47,12.89-6.13,16.44-5.62a37.94,37.94,0,0,0-.49-12.28l.39-.08c-.33-.27-.65-.55-1-.83a21,21,0,0,0-14.08,11.7,2.52,2.52,0,0,1-2.35,1.61,2.39,2.39,0,0,1-.87-.16,2.49,2.49,0,0,1-1.47-3.2,19.13,19.13,0,0,1,1-2c-3.74.81-9,2.54-12.61,6.24-2.67,2.74-3.63,6.36-2.85,10.76C53.89,201.4,63.46,212.05,75.48,217.77Z"></path><path class="cls-2" d="M74.16,188.69c-.71,1-.54,2.86.44,5a21.83,21.83,0,0,0,3.24,4.94,31.65,31.65,0,0,0,7.71-13.62C82.86,184.71,77.15,184.57,74.16,188.69Z"></path><path class="cls-2" d="M182.18,196.23a34.49,34.49,0,0,1-8.34,14.4c-8.23,8.91-24.7,19.66-56.43,20.26l-.93,0c-1.56,0-3.21.06-5,.06a83.61,83.61,0,0,1-38.2-8.68c-12.49-6-22.32-16.46-25.38-26.8-3.74-.54-21.1-1.86-42.36,15.11L0,214.88V231.2H231.2V209.33C210.77,196,187.21,196.05,182.18,196.23Z"></path><path class="cls-2" d="M70.12,118.47l.16,0,.46,2,.66,2.94,1.66,7.32a34.78,34.78,0,0,0,6.87,7.25,2.5,2.5,0,1,0,3-4c-7.44-5.64-12.29-17.88-12.33-18a2.56,2.56,0,0,0-.93-1.16c.21,2,.4,3.14.41,3.2A3.87,3.87,0,0,1,70.12,118.47Z"></path><path class="cls-2" d="M149.21,138.44a2.5,2.5,0,0,0,1.51-.51,35.17,35.17,0,0,0,7.11-7.6l1.71-7.51.62-2.77.37-1.62.22,0a2.05,2.05,0,0,1,0-.49s.2-1.26.42-3.33A2.49,2.49,0,0,0,160,116c0,.12-4.88,12.35-12.34,18a2.5,2.5,0,0,0,1.51,4.49Z"></path><path class="cls-2" d="M88.61,109.45h5a2.5,2.5,0,0,0,0-5h0v1.24a2.5,2.5,0,0,1-5,0v-1.24h0a2.5,2.5,0,0,0,0,5Z"></path><path class="cls-2" d="M135.49,109.45h5a2.5,2.5,0,0,0,0-5h0v1.24a2.46,2.46,0,0,1-.35,1.26,2.51,2.51,0,0,1-4.65-1.26v-1.24h0a2.5,2.5,0,0,0,0,5Z"></path><path d="M188.53,191.25h0l-.6,0h0c-2.12-.08-3.83-.07-5.05,0v-.36c-.69-11.25-12.77-16.75-16.33-18.13-4.89-8.56-11.13-11.71-14.62-12.84a50.09,50.09,0,0,0,8.33-17.36l2.65-11.68h6.95c5.6,0,10.16-5.35,10.16-11.92v-3.43c0-6.54-4.51-11.86-10.06-11.92,1.21-10.17,2-24.15-.45-37.32A34.53,34.53,0,0,0,147.19,40a99.56,99.56,0,0,0-30.66-5.37h-2.71a99.17,99.17,0,0,0-31.19,5.59,33.91,33.91,0,0,0-21.5,25.26c-2.58,13.39-1.82,27.72-.59,38.08-5.55.07-10,5.39-10,11.92v3.43c0,6.57,4.55,11.92,10.15,11.92H68l2.67,11.74a49.62,49.62,0,0,0,10.46,20,24.2,24.2,0,0,0-10.33,6.78c-3.37.35-13,1.9-19.3,8.32A16,16,0,0,0,47,190.33c-6.6-.6-23.83-.15-44.49,16.33L0,208.58v6.3l5.58-4.28c21.26-17,38.62-15.65,42.36-15.11,3.06,10.34,12.89,20.84,25.38,26.8a83.61,83.61,0,0,0,38.2,8.68c1.75,0,3.4,0,5-.06l.93,0c31.73-.6,48.2-11.35,56.43-20.26a34.49,34.49,0,0,0,8.34-14.4c5-.18,28.59-.2,49,13.1v-5.89C215.13,193.88,198.12,191.66,188.53,191.25ZM77.84,198.67a21.83,21.83,0,0,1-3.24-4.94c-1-2.18-1.15-4.07-.44-5,3-4.12,8.7-4,11.39-3.64A31.65,31.65,0,0,1,77.84,198.67Zm36.34,16.72C99,213.92,88,208.15,81.34,202.23c2.16-2.12,12-12.9,10.29-30.79a45.28,45.28,0,0,0,23.79,6.32,44.8,44.8,0,0,0,26.09-7.82c-.11,7.45,1.1,20,9.16,28.91a40.86,40.86,0,0,1-8.35,8.38,32.35,32.35,0,0,1-5.56,3.33,53.09,53.09,0,0,1-22.58,4.83Zm39.32-20.93a30,30,0,0,1-5.4-11.09c2.91.08,6.8,1.35,7.47,4.44C155.84,189.07,155.1,191.54,153.5,194.46Zm16.29-85.91c2.8,0,5.16,3.18,5.16,6.93v3.43c0,3.75-2.36,6.92-5.16,6.92H164l1.27-5.62a2.49,2.49,0,0,0,2.19-1.91c.09-.4.93-4.09,1.78-9.75ZM66,66.43A28.87,28.87,0,0,1,84.36,44.91a93.86,93.86,0,0,1,29.54-5.28h2.56a94.8,94.8,0,0,1,29,5.07,29.53,29.53,0,0,1,19,22.43,103.57,103.57,0,0,1,1.46,20c-.31-2.33-.69-4.59-1.16-6.74a2.5,2.5,0,0,0-4.88,1.06c.57,2.64,1,5.45,1.34,8.37a34,34,0,0,1-13.18-8.46,2.5,2.5,0,0,0-4.35,1.84A27.16,27.16,0,0,0,146,92c-11.6-3.09-21.15-18.15-27.72-28.5-3.71-5.85-6.39-10.08-8.89-11.58-5.76-3.46-10.51-1.07-13,1.39a13.72,13.72,0,0,0-10.62-1.92c-7.6,1.82-12.29,10-12.81,10.92-5.1,8.29-7.47,18.31-8.44,27.59A106,106,0,0,1,66,66.43Zm-5.39,59.4c-2.79,0-5.15-3.17-5.15-6.92v-3.43c0-3.75,2.36-6.93,5.15-6.93h.56c.84,5.66,1.69,9.34,1.78,9.75a2.5,2.5,0,0,0,2.57,1.93l1.28,5.6ZM75.5,141.4l-2.44-10.72-1.66-7.32-.66-2.94-.46-2-.16,0a3.87,3.87,0,0,0,0-.48c0-.06-.2-1.23-.41-3.2-1-8.75-2.52-33.54,7.57-49.88l.08-.13c0-.08,4-7.14,9.61-8.5,2.51-.6,5,0,7.65,1.83a2.43,2.43,0,0,0,2.08.35,2.48,2.48,0,0,0,2.71-1,5.27,5.27,0,0,1,7.41-1.27c1.49.89,4.42,5.51,7.25,10C122,78.72,134,97.61,150.22,97.6h.22a2.49,2.49,0,0,0,2-3.9A24.11,24.11,0,0,1,150.53,90a33.83,33.83,0,0,0,11.19,5.18,121.47,121.47,0,0,1-.52,19.52c-.22,2.07-.42,3.29-.42,3.33a2.05,2.05,0,0,0,0,.49l-.22,0-.37,1.62-.62,2.77-1.71,7.51-2.5,11c-.82,3.22-9,31.43-39.93,31.43S76.31,144.55,75.5,141.4Zm94.67,65.84c-14.44,15.63-39.31,18.4-52.85,18.65l-.94,0c-10.19.2-22.89.45-40.9-8.14-12-5.72-21.59-16.37-23.28-25.88-.78-4.4.18-8,2.85-10.76,3.62-3.7,8.87-5.43,12.61-6.24a19.13,19.13,0,0,0-1,2,2.49,2.49,0,0,0,1.47,3.2,2.39,2.39,0,0,0,.87.16,2.52,2.52,0,0,0,2.35-1.61,21,21,0,0,1,14.08-11.7c.32.28.64.56,1,.83l-.39.08a37.94,37.94,0,0,1,.49,12.28c-3.55-.51-11.75-.85-16.44,5.62-1.82,2.52-1.85,6.08-.07,10,2.39,5.3,7.75,10.83,14.72,15.17a67.17,67.17,0,0,0,29,9.43c.09,0,.65,0,1.57,0a57.94,57.94,0,0,0,23.51-5.32c12.75-5.91,23.14-21.23,21.6-28.35-1.34-6.17-8.16-8.66-13.38-8.37a54.71,54.71,0,0,1-.32-12.75c.69-.66,1.37-1.33,2-2l-.06.62s4.18.48,8.64,4.74a2.64,2.64,0,0,0,.35.4,14.5,14.5,0,0,1,4.38,13.16,2.51,2.51,0,0,0,1.86,3,2.3,2.3,0,0,0,.58.07,2.51,2.51,0,0,0,2.43-1.92,18.34,18.34,0,0,0,.29-5.15c4,2,10.18,6.13,10.58,12.62C178,194.79,175.76,201.18,170.17,207.24Z"></path><path d="M119,133.37a7.42,7.42,0,0,0,0-10.5l-10.49,10.5A7.43,7.43,0,0,0,119,133.37Z"></path><path d="M91.13,96.81a2.5,2.5,0,0,0-2.5,2.5v6.38A2.46,2.46,0,0,0,89,107a2.51,2.51,0,0,0,4.65-1.26V99.31A2.5,2.5,0,0,0,91.13,96.81Z"></path><path d="M138,108.19a2.48,2.48,0,0,0,2.15-1.24,2.46,2.46,0,0,0,.35-1.26V99.31a2.5,2.5,0,0,0-5,0v6.38a2.55,2.55,0,0,0,2.5,2.5Z"></path><path d="M115.67,164.59A2.37,2.37,0,1,0,118,167,2.37,2.37,0,0,0,115.67,164.59Z"></path><path d="M109.62,148.85a20.13,20.13,0,0,0,6,.84,23.73,23.73,0,0,0,16.75-7,2.5,2.5,0,0,0,3-4l-3.3-2.88a2.5,2.5,0,0,0-3.44,3.61c-8.19,7.61-17,4.89-17.38,4.75a2.5,2.5,0,0,0-1.59,4.74Z"></path><path d="M100,89.8a2.83,2.83,0,0,0-2-5.3c-8.92,3.37-13.94,1.5-14.11,1.43a2.83,2.83,0,0,0-2.25,5.2,16.88,16.88,0,0,0,6.45,1.06A33.83,33.83,0,0,0,100,89.8Z"></path></g></g></svg>