<svg xmlns="http://www.w3.org/2000/svg" viewBox="0 0 226.2 226.2"><defs></defs><g id="Capa_2" data-name="Capa 2"><g id="Capa_2-2" data-name="Capa 2"><path class="cls-1" d="M0,0V226.2H18.24c9.2-19.72,29.84-26.52,45-31.52,2.56-.84,5-1.64,7.21-2.44A24.4,24.4,0,0,0,86,175.33a2.49,2.49,0,0,1,3.65-1.68,36.65,36.65,0,0,0,.51-16.82c-.74-.57-1.46-1.16-2.18-1.77a42.27,42.27,0,0,1-7.22.85c.49.52,1,1,1.54,1.5a2.51,2.51,0,0,1,.22,3.53,2.52,2.52,0,0,1-3.53.22c-.71-.63-1.39-1.29-2-2-1.76-.21-3.81-.5-5.65-.82a2.5,2.5,0,0,1-2.08,3.89,2.49,2.49,0,0,1-1.74-.7,24.14,24.14,0,0,1-5.39-8.47,37.92,37.92,0,0,1-15-9.54c-13.05-14-12-34.15,3-55.34,4.73-6.69,9.55-13.29,13.67-18.84C67.07,62,82.1,33,111.26,35.15h3.66C148.11,32.69,163,70.63,163.14,71c0,0,0,.08,0,.12,3.81,5.16,8.12,11.07,12.35,17.06,15,21.19,16.05,41.36,3,55.34a37.49,37.49,0,0,1-14.29,9.28,26.58,26.58,0,0,1-3.78,6.84,2.51,2.51,0,0,1-2,1,2.49,2.49,0,0,1-2.49-2.56c-2.18.42-5,.84-7.34,1.12-.64.69-1.32,1.35-2,2a2.5,2.5,0,0,1-3.31-3.75c.54-.48,1-1,1.54-1.5a41,41,0,0,1-7.58-.93c-.42.36-.86.71-1.29,1.06a2.72,2.72,0,0,1-.05.49,36.5,36.5,0,0,0,.66,17.79,2.47,2.47,0,0,1,2.79,1.55c0,.13,4.94,12.75,13.07,15.42,22.42,7.36,43,15.6,48.85,34.91H226.2V0Z"></path><path class="cls-1" d="M130.36,160c-.14.09-.28.19-.43.27-6.49,3.84-12.93,6-16,6.18h-2.81c-2.94-.16-9.13-2.24-15.44-5.88a40.08,40.08,0,0,1-1.62,15.6c15.53,7.62,31,3.07,37.88.21A40.27,40.27,0,0,1,130.36,160Z"></path><path class="cls-1" d="M98.61,90.89A15.12,15.12,0,0,0,83.9,92.08a2.56,2.56,0,0,1-1,.43,2.22,2.22,0,0,1-.51.06,2.48,2.48,0,0,1-1.74-.72l-2.48,5.32v8.65a4.56,4.56,0,0,0,3,4,43.28,43.28,0,0,0,4.82.81,45.08,45.08,0,0,0,14.92-.81,4.56,4.56,0,0,0,3-4V87.16a4.56,4.56,0,0,0-3-4c-1.05-.23-2.12-.42-3.19-.58-.16.15-.32.31-.49.45a2.49,2.49,0,0,1-1.48.6,56.4,56.4,0,0,1-11-.6L83,86.79a20.14,20.14,0,0,1,17.6-.47,2.5,2.5,0,1,1-2,4.57Zm-4.68,14.57H88.58a2.5,2.5,0,0,1,0-5h.17V96.85a2.5,2.5,0,0,1,5,0v3.61h.18a2.5,2.5,0,0,1,0,5Z"></path><path class="cls-1" d="M121.21,105.82a4.57,4.57,0,0,0,3,4,45.22,45.22,0,0,0,15.39.74,43.46,43.46,0,0,0,4.4-.75,4.55,4.55,0,0,0,3-4V96.2l-2.17-4.68,0,.07a2.49,2.49,0,0,1-2,1h-.07a2.47,2.47,0,0,1-1.43-.49,15.14,15.14,0,0,0-14.71-1.19,2.5,2.5,0,1,1-2-4.57,20.13,20.13,0,0,1,18.21.8L140.82,83a77.86,77.86,0,0,1-11.36.87c-1.12,0-1.83,0-2,0a2.51,2.51,0,0,1-1.75-.83.61.61,0,0,0-.07-.1c-.49.1-1,.18-1.48.29a4.56,4.56,0,0,0-3,4Zm10-5.36h.17V96.85a2.5,2.5,0,0,1,5,0v3.61h.18a2.5,2.5,0,0,1,0,5h-5.35a2.5,2.5,0,0,1,0-5Z"></path><path class="cls-1" d="M116.21,88.75V87.16a8.25,8.25,0,0,1,.26-2c-.47,0-.94.05-1.41.05a38,38,0,0,1-6.55-.61,8.47,8.47,0,0,1,.43,2.59v1.59Z"></path><path class="cls-1" d="M123,78.33c.7-.15,1.4-.28,2.11-.41A47.12,47.12,0,0,0,123,65.58a66.65,66.65,0,0,1-.79,13A6.82,6.82,0,0,1,123,78.33Z"></path><path class="cls-1" d="M108.21,67.31a46.22,46.22,0,0,1-6.38,11l.24,0a7.74,7.74,0,0,1,2,.8A26.7,26.7,0,0,0,108.21,67.31Z"></path><path class="cls-1" d="M152.86,125c.08-.21.15-.43.22-.64a116.34,116.34,0,0,0-1.89-15.08,9.37,9.37,0,0,1-6.06,5.34,49.54,49.54,0,0,1-6.42,1c-1.54.14-3.09.23-4.64.23a50,50,0,0,1-11-1.22h0a9.47,9.47,0,0,1-6.83-8.82V93.75h-7.27v12.07a9.48,9.48,0,0,1-6.83,8.82h0a50.21,50.21,0,0,1-11,1.22c-1.39,0-2.78-.08-4.16-.19a49.22,49.22,0,0,1-6.85-1A9.31,9.31,0,0,1,74.29,110a112.43,112.43,0,0,0-1.81,15.54c2.68,7.26,8.91,16.79,16.81,24.06.7.64,1.41,1.27,2.14,1.87s1.46,1.18,2.2,1.74A46.64,46.64,0,0,0,97.76,156c6.53,3.85,12,5.36,13.63,5.48h2.37c1.6-.12,7.1-1.63,13.63-5.48a47.22,47.22,0,0,0,4.31-2.91c.73-.56,1.46-1.13,2.18-1.73s1.42-1.23,2.11-1.87C144,142.05,150.3,132.29,152.86,125Zm-39,20.5c-.59,0-1.17.06-1.73.06-10.18,0-15.23-5.86-15.45-6.12a2.5,2.5,0,0,1,3.82-3.24c.19.23,4.35,4.86,13,4.31a2.5,2.5,0,1,1,.32,5ZM119,127.41a7.07,7.07,0,0,1-10,0l10-10A7.06,7.06,0,0,1,119,127.41Z"></path><path class="cls-2" d="M171.42,91.09c-3.78-5.37-7.64-10.68-11.13-15.43l0,0c-.1-.18-.21-.35-.32-.53-.32-.55-.66-1.08-1-1.6a1.63,1.63,0,0,1-.11-.17c-.44-.64-.9-1.26-1.37-1.86l.37-.28a70.43,70.43,0,0,0-8.94-14.56c-.5-.61-1-1.23-1.55-1.85l-.2-.22C140,46.54,129.46,39,115.21,40.15H111C100.16,39.31,91.5,43.41,84.84,49a52.4,52.4,0,0,0-6.08,6c-.67.78-1.31,1.55-1.91,2.33a70.71,70.71,0,0,0-8.47,14v0c-.52.64-1,1.3-1.5,2-.35.51-.69,1-1,1.58l-.19.32c-.05.08-.1.15-.14.23l0,0C62,80.2,58,85.62,54.18,91.09c-6.37,9-19.46,31.86-3.43,49a31,31,0,0,0,9.43,6.75c-2.5-10.6-2.11-23.24-1.41-31.49.41-4.88.92-8.23,1-8.69a2.5,2.5,0,0,1,2.86-2.08,2.72,2.72,0,0,1,.49.13,2.5,2.5,0,0,1,1.59,2.73s-.31,2-.64,5.08c-.15,1.44-.3,3.14-.44,5-.24,3.27-.41,7.09-.38,11.08.07,8.29,1,15.16,2.69,20.41.33,1,.69,2,1.08,2.89a21.57,21.57,0,0,0,1.52,2.92l0,.08A15.77,15.77,0,0,0,71,158a2.63,2.63,0,0,1,.35.41c1.84.32,3.89.61,5.65.82a29.31,29.31,0,0,1-2.74-3.46A28.49,28.49,0,0,1,72.57,153c-.48-.89-.92-1.8-1.33-2.74-3.1-7.13-4-15.56-3.81-24,.06-2.45.23-4.91.48-7.34s.6-5.08,1-7.54a157.09,157.09,0,0,1,3.76-16.83l.5-1.77V87.16a9.39,9.39,0,0,1,2.6-6.24,9.55,9.55,0,0,1,2.39-1.87A8.46,8.46,0,0,1,80,78.33l.44-.08L81.59,78l.28-.6,2.33-5,10-21.5A2.5,2.5,0,1,1,98.75,53L87.47,77.25a50.5,50.5,0,0,1,8.52.11c9.84-10.28,11.45-26.48,11.47-26.65a2.18,2.18,0,0,1,.1-.52c-.13-.7-.22-1.11-.22-1.14a2.5,2.5,0,1,1,4.87-1.13c0,.06.05.22.09.45.09.4.21,1,.36,1.86.93,5.42,2.51,19.18-3,29.45a29.69,29.69,0,0,0,7.22.44,63.77,63.77,0,0,0-1.56-30.57c-.07-.22-.12-.43-.19-.65a2.39,2.39,0,0,1-.11-.65A2.49,2.49,0,0,1,119.68,47a2.14,2.14,0,0,1,.37.42c.42.62,9.46,14.14,10.08,29.85a49.94,49.94,0,0,1,8,0L126.85,53a2.5,2.5,0,1,1,4.53-2.11l10,21.5,2.31,4.95.34.74c.35.07.7.13,1,.21h0a8,8,0,0,1,2,.79A9.44,9.44,0,0,1,149.48,81,9.32,9.32,0,0,1,152,87.16v4.08c.34,1.11.68,2.3,1,3.55,1.22,4.39,2.48,9.59,3.45,15.17.44,2.48.82,5,1.11,7.62s.48,5,.58,7.44c.37,8.89-.52,17.8-3.77,25.27-.41.94-.85,1.85-1.33,2.74a28.49,28.49,0,0,1-1.65,2.69,29.31,29.31,0,0,1-2.74,3.46c2.32-.28,5.16-.7,7.34-1.12a2.49,2.49,0,0,1,.52-1.48,16.62,16.62,0,0,0,1.25-1.85,22.68,22.68,0,0,0,1.14-2.14c.12-.26.23-.52.35-.79.38-.91.73-1.89,1-2.92,1.79-5.8,2.52-13.45,2.12-22.66-.16-3.53-.46-6.87-.8-9.79-.17-1.43-.35-2.76-.52-4-.57-3.94-1.1-6.46-1.11-6.5a2.51,2.51,0,0,1,1.93-3l.25,0a2.5,2.5,0,0,1,2.72,2c.11.55,1.11,5.41,1.85,12.17.92,8.4,1.42,19.75-.68,29.48a30.69,30.69,0,0,0,8.8-6.46C190.88,123,177.79,100.11,171.42,91.09Z"></path><path class="cls-2" d="M72.57,133.81c.09,1.25.21,2.47.38,3.68a37.93,37.93,0,0,0,4.16,13.42c.15.26.3.52.46.78-.09-.25-.19-.51-.28-.77a44.39,44.39,0,0,0,6.07-.18,78.55,78.55,0,0,1-9.78-12.27C73.21,137,72.88,135.39,72.57,133.81Z"></path><path class="cls-2" d="M153,133.74c-.23,1.22-.49,2.43-.76,3.62a79.44,79.44,0,0,1-10.45,13.34,42.53,42.53,0,0,0,6.48.22l-.28.78c.16-.26.31-.52.46-.79a38.62,38.62,0,0,0,4.29-14.39C152.89,135.6,153,134.67,153,133.74Z"></path><path d="M72.57,133.81c.31,1.58.64,3.14,1,4.66a78.55,78.55,0,0,0,9.78,12.27c.74.76,1.5,1.51,2.27,2.23s1.55,1.42,2.35,2.09,1.44,1.2,2.18,1.77a36.65,36.65,0,0,1-.51,16.82l.16.08a44.63,44.63,0,0,0,4.3,2.44,40.08,40.08,0,0,0,1.62-15.6c6.31,3.64,12.5,5.72,15.44,5.88H114c3-.17,9.46-2.34,16-6.18.15-.08.29-.18.43-.27A40.27,40.27,0,0,0,132,176.38a38.34,38.34,0,0,0,3.79-1.78,2.32,2.32,0,0,1,.8-.28,36.5,36.5,0,0,1-.66-17.79A2.72,2.72,0,0,0,136,156c.43-.35.87-.7,1.29-1.06.79-.67,1.56-1.36,2.32-2.08s1.52-1.45,2.25-2.2a79.44,79.44,0,0,0,10.45-13.34c.27-1.19.53-2.4.76-3.62.07-1,.12-2.06.14-3.11,0-2.06,0-4.16-.1-6.25-.07.21-.14.43-.22.64-2.56,7.27-8.85,17-16.87,24.44-.69.64-1.4,1.27-2.11,1.87s-1.45,1.17-2.18,1.73a47.22,47.22,0,0,1-4.31,2.91c-6.53,3.85-12,5.36-13.63,5.48h-2.37c-1.6-.12-7.1-1.63-13.63-5.48a46.64,46.64,0,0,1-4.13-2.78c-.74-.56-1.48-1.14-2.2-1.74s-1.44-1.23-2.14-1.87c-7.9-7.27-14.13-16.8-16.81-24.06q-.14,3.08,0,6.1C72.48,132.35,72.52,133.08,72.57,133.81Z"></path><path d="M133.89,104.12a2.5,2.5,0,0,0,2.5-2.5V96.85a2.5,2.5,0,0,0-5,0v4.77A2.5,2.5,0,0,0,133.89,104.12Z"></path><path d="M119,117.42l-10,10a7.07,7.07,0,0,0,10-10Z"></path><path d="M100.55,136.22a2.5,2.5,0,0,0-3.82,3.24c.22.26,5.27,6.12,15.45,6.12.56,0,1.14,0,1.73-.06a2.5,2.5,0,1,0-.32-5C104.9,141.08,100.74,136.45,100.55,136.22Z"></path><path d="M91.25,94.35a2.49,2.49,0,0,0-2.5,2.5v4.77a2.5,2.5,0,0,0,5,0V96.85A2.49,2.49,0,0,0,91.25,94.35Z"></path><path d="M74.29,110a9.31,9.31,0,0,0,5.76,4.67,49.22,49.22,0,0,0,6.85,1c1.38.11,2.77.19,4.16.19a50.21,50.21,0,0,0,11-1.22h0a9.48,9.48,0,0,0,6.83-8.82V93.75h7.27v12.07a9.47,9.47,0,0,0,6.83,8.82h0a50,50,0,0,0,11,1.22c1.55,0,3.1-.09,4.64-.23a49.54,49.54,0,0,0,6.42-1,9.37,9.37,0,0,0,6.06-5.34,9.11,9.11,0,0,0,.72-2.58c0-.3.05-.6.05-.9V87.16A9.32,9.32,0,0,0,149.48,81a9.44,9.44,0,0,0-2.37-1.91,8,8,0,0,0-2-.79h0c-.34-.08-.69-.14-1-.21-.7-.14-1.4-.28-2.1-.39q-1.38-.21-2.76-.36l-1-.08a49.94,49.94,0,0,0-8,0c-.83.07-1.66.15-2.5.26s-1.66.23-2.48.38-1.41.26-2.11.41a6.82,6.82,0,0,0-.84.27,8.81,8.81,0,0,0-2.87,1.79,10,10,0,0,0-1.77,2.17,9.7,9.7,0,0,0-1.09,2.57,8.25,8.25,0,0,0-.26,2v1.59h-7.27V87.16a8.47,8.47,0,0,0-.43-2.59A9.81,9.81,0,0,0,107,81.71a8.5,8.5,0,0,0-.93-1.06,8.83,8.83,0,0,0-2-1.52,7.74,7.74,0,0,0-2-.8l-.24,0c-.93-.21-1.87-.38-2.81-.53s-2-.29-3-.39a50.5,50.5,0,0,0-8.52-.11c-.35,0-.69,0-1,.09-1,.09-2.09.22-3.13.38q-.85.14-1.71.3l-1.14.23-.44.08a8.46,8.46,0,0,0-1.84.72,9.55,9.55,0,0,0-2.39,1.87,9.39,9.39,0,0,0-2.6,6.24v18.66a8.29,8.29,0,0,0,.23,1.85A9.66,9.66,0,0,0,74.29,110ZM124.18,83.2c.49-.11,1-.19,1.48-.29a45.27,45.27,0,0,1,15-.32l1.34.21H142c.64.12,1.29.24,1.93.38l.05,0,.28.1A4.63,4.63,0,0,1,147,87.16v18.66a4.55,4.55,0,0,1-3,4,43.46,43.46,0,0,1-4.4.75,45.22,45.22,0,0,1-15.39-.74,4.57,4.57,0,0,1-3-4V87.16A4.56,4.56,0,0,1,124.18,83.2Zm-20.24,4v18.66a4.56,4.56,0,0,1-3,4,45.08,45.08,0,0,1-14.92.81,43.28,43.28,0,0,1-4.82-.81,4.56,4.56,0,0,1-3-4V87.16a4.57,4.57,0,0,1,3-4l.14,0,.33-.06,1.55-.31.51-.09L85,82.53a45.61,45.61,0,0,1,6.06-.43,45,45,0,0,1,6.67.51c1.07.16,2.14.35,3.19.58A4.56,4.56,0,0,1,103.94,87.16Z"></path><path d="M150.88,196A18.3,18.3,0,0,1,145,192.7c-4.58-3.78-7.69-9.3-9.22-12.51-.57.27-1.24.57-2,.88-7.72,3.24-24.34,8.1-41.52-.22-.81-.38-1.61-.79-2.42-1.24a29.44,29.44,0,0,1-17.71,17.32c-2.3.84-4.76,1.65-7.36,2.5-14.48,4.76-32.26,10.62-41,26.77H196C190.89,211.7,176,204.29,150.88,196Z"></path><path class="cls-3" d="M62.1,153.08a24.14,24.14,0,0,0,5.39,8.47,2.49,2.49,0,0,0,1.74.7,2.5,2.5,0,0,0,2.08-3.89A2.63,2.63,0,0,0,71,158a15.77,15.77,0,0,1-2.37-3l0-.08A21.57,21.57,0,0,1,67,152c-.39-.9-.75-1.87-1.08-2.89-1.7-5.25-2.62-12.12-2.69-20.41,0-4,.14-7.81.38-11.08.14-1.88.29-3.58.44-5,.33-3.1.63-5,.64-5.08a2.5,2.5,0,0,0-1.59-2.73,2.72,2.72,0,0,0-.49-.13,2.5,2.5,0,0,0-2.86,2.08c-.08.46-.59,3.81-1,8.69-.7,8.25-1.09,20.89,1.41,31.49a31,31,0,0,1-9.43-6.75c-16-17.18-2.94-40,3.43-49C58,85.62,62,80.2,65.52,75.38l0,0c0-.08.09-.15.14-.23l.19-.32c.33-.54.67-1.07,1-1.58.47-.69,1-1.35,1.5-2v0a70.71,70.71,0,0,1,8.47-14c.6-.78,1.24-1.55,1.91-2.33a52.4,52.4,0,0,1,6.08-6c6.66-5.55,15.32-9.65,26.14-8.81h4.23C129.46,39,140,46.54,147.11,54.63l.2.22c.53.62,1.05,1.24,1.55,1.85a70.43,70.43,0,0,1,8.94,14.56l-.37.28c.47.6.93,1.22,1.37,1.86a1.63,1.63,0,0,0,.11.17c.35.52.69,1.05,1,1.6.11.18.22.35.32.53l0,0c3.49,4.75,7.35,10.06,11.13,15.43,6.37,9,19.46,31.86,3.43,49a30.69,30.69,0,0,1-8.8,6.46c2.1-9.73,1.6-21.08.68-29.48-.74-6.76-1.74-11.62-1.85-12.17a2.5,2.5,0,0,0-2.72-2l-.25,0a2.51,2.51,0,0,0-1.93,3s.54,2.56,1.11,6.5c.17,1.19.35,2.52.52,4,.34,2.92.64,6.26.8,9.79.4,9.21-.33,16.86-2.12,22.66-.32,1-.67,2-1,2.92-.12.27-.23.53-.35.79a22.68,22.68,0,0,1-1.14,2.14,16.62,16.62,0,0,1-1.25,1.85,2.53,2.53,0,0,0,.43,3.51,2.46,2.46,0,0,0,1.54.53,2.51,2.51,0,0,0,2-1,26.58,26.58,0,0,0,3.78-6.84,37.49,37.49,0,0,0,14.29-9.28c13.05-14,12-34.15-3-55.34-4.23-6-8.54-11.9-12.35-17.06,0,0,0-.08,0-.12-.15-.39-15-38.33-48.22-35.87h-3.66C82.1,33,67.07,62,63.76,69.36c-4.12,5.55-8.94,12.15-13.67,18.84-15,21.19-16.05,41.36-3,55.34A37.92,37.92,0,0,0,62.1,153.08Z"></path><path class="cls-3" d="M85.63,153c-.77-.72-1.53-1.47-2.27-2.23a44.39,44.39,0,0,1-6.07.18c.09.26.19.52.28.77-.16-.26-.31-.52-.46-.78A37.93,37.93,0,0,1,73,137.49c-.17-1.21-.29-2.43-.38-3.68,0-.73-.09-1.46-.11-2.19q-.12-3,0-6.1A112.43,112.43,0,0,1,74.29,110a9.66,9.66,0,0,1-.88-2.31,8.29,8.29,0,0,1-.23-1.85v-13l-.5,1.77a157.09,157.09,0,0,0-3.76,16.83c-.41,2.46-.75,5-1,7.54s-.42,4.89-.48,7.34c-.24,8.48.71,16.91,3.81,24,.41.94.85,1.85,1.33,2.74a28.49,28.49,0,0,0,1.65,2.69A29.31,29.31,0,0,0,77,159.18c.64.69,1.32,1.35,2,2a2.5,2.5,0,0,0,3.31-3.75c-.54-.48-1-1-1.54-1.5a42.27,42.27,0,0,0,7.22-.85C87.18,154.39,86.4,153.69,85.63,153Z"></path><path class="cls-3" d="M131.22,105.46h5.35a2.5,2.5,0,0,0,0-5h-.18v1.16a2.5,2.5,0,0,1-5,0v-1.16h-.17a2.5,2.5,0,0,0,0,5Z"></path><path class="cls-3" d="M126.54,90.89a15.14,15.14,0,0,1,14.71,1.19,2.47,2.47,0,0,0,1.43.49h.07a2.49,2.49,0,0,0,2-1l0-.07L147,96.2v-9a4.63,4.63,0,0,0-2.68-3.85l-.28-.1-.05,0c-.64-.14-1.29-.26-1.93-.38H142l-1.34-.21a45.27,45.27,0,0,0-15,.32.61.61,0,0,1,.07.1,2.51,2.51,0,0,0,1.75.83c.15,0,.86,0,2,0A77.86,77.86,0,0,0,140.82,83l1.91,4.11a20.13,20.13,0,0,0-18.21-.8,2.5,2.5,0,1,0,2,4.57Z"></path><path class="cls-3" d="M93.93,105.46a2.5,2.5,0,0,0,0-5h-.18v1.16a2.5,2.5,0,0,1-5,0v-1.16h-.17a2.5,2.5,0,0,0,0,5Z"></path><path class="cls-3" d="M101.9,89.61a2.48,2.48,0,0,0-1.28-3.29,20.14,20.14,0,0,0-17.6.47l1.74-3.73a56.4,56.4,0,0,0,11,.6,2.49,2.49,0,0,0,1.48-.6c.17-.14.33-.3.49-.45a45,45,0,0,0-6.67-.51,45.61,45.61,0,0,0-6.06.43l-1.32.18-.51.09-1.55.31-.33.06-.14,0a4.57,4.57,0,0,0-3,4v10l2.48-5.32a2.48,2.48,0,0,0,1.74.72,2.22,2.22,0,0,0,.51-.06,2.56,2.56,0,0,0,1-.43,15.12,15.12,0,0,1,14.71-1.19A2.48,2.48,0,0,0,101.9,89.61Z"></path><path class="cls-3" d="M127.63,77.54c.84-.11,1.67-.19,2.5-.26-.62-15.71-9.66-29.23-10.08-29.85a2.14,2.14,0,0,0-.37-.42A2.49,2.49,0,0,0,115,48.25a2.39,2.39,0,0,0,.11.65c.07.22.12.43.19.65a63.77,63.77,0,0,1,1.56,30.57,29.69,29.69,0,0,1-7.22-.44c5.56-10.27,4-24,3-29.45-.15-.83-.27-1.46-.36-1.86,0-.23-.08-.39-.09-.45a2.5,2.5,0,1,0-4.87,1.13s.09.44.22,1.14a2.18,2.18,0,0,0-.1.52c0,.17-1.63,16.37-11.47,26.65,1,.1,2,.22,3,.39s1.88.32,2.81.53a46.22,46.22,0,0,0,6.38-11,26.7,26.7,0,0,1-4.13,11.82,8.83,8.83,0,0,1,2,1.52,8.5,8.5,0,0,1,.93,1.06,9.81,9.81,0,0,1,1.51,2.86,38,38,0,0,0,6.55.61c.47,0,.94,0,1.41-.05a9.7,9.7,0,0,1,1.09-2.57,10,10,0,0,1,1.77-2.17,8.81,8.81,0,0,1,2.87-1.79,66.65,66.65,0,0,0,.79-13,47.12,47.12,0,0,1,2.16,12.34C126,77.77,126.8,77.65,127.63,77.54Z"></path><path class="cls-3" d="M86.43,77.34c.35,0,.69-.07,1-.09L98.75,53a2.5,2.5,0,1,0-4.53-2.11l-10,21.5-2.33,5-.28.6q.85-.17,1.71-.3C84.34,77.56,85.39,77.43,86.43,77.34Z"></path><path class="cls-3" d="M143.08,160.94a2.52,2.52,0,0,0,3.53.22c.71-.63,1.39-1.29,2-2a29.31,29.31,0,0,0,2.74-3.46A28.49,28.49,0,0,0,153,153c.48-.89.92-1.8,1.33-2.74,3.25-7.47,4.14-16.38,3.77-25.27-.1-2.49-.3-5-.58-7.44s-.67-5.14-1.11-7.62c-1-5.58-2.23-10.78-3.45-15.17-.35-1.25-.69-2.44-1-3.55v14.58c0,.3,0,.6-.05.9a9.11,9.11,0,0,1-.72,2.58,116.34,116.34,0,0,1,1.89,15.08c.11,2.09.15,4.19.1,6.25,0,1.05-.07,2.08-.14,3.11s-.15,1.86-.26,2.78a38.62,38.62,0,0,1-4.29,14.39c-.15.27-.3.53-.46.79l.28-.78a42.53,42.53,0,0,1-6.48-.22c-.73.75-1.48,1.49-2.25,2.2s-1.53,1.41-2.32,2.08a41,41,0,0,0,7.58.93c-.49.52-1,1-1.54,1.5A2.51,2.51,0,0,0,143.08,160.94Z"></path><path class="cls-3" d="M139.19,77.37q1.38.15,2.76.36c.7.11,1.4.25,2.1.39l-.34-.74-2.31-4.95-10-21.5A2.5,2.5,0,1,0,126.85,53l11.3,24.25Z"></path><path class="cls-3" d="M152.44,191.29c-8.13-2.67-13-15.29-13.07-15.42a2.47,2.47,0,0,0-2.79-1.55,2.32,2.32,0,0,0-.8.28,38.34,38.34,0,0,1-3.79,1.78c-6.93,2.86-22.35,7.41-37.88-.21a44.63,44.63,0,0,1-4.3-2.44l-.16-.08A2.49,2.49,0,0,0,86,175.33a24.4,24.4,0,0,1-15.53,16.91c-2.22.8-4.65,1.6-7.21,2.44-15.18,5-35.82,11.8-45,31.52h5.59c8.73-16.15,26.51-22,41-26.77,2.6-.85,5.06-1.66,7.36-2.5a29.44,29.44,0,0,0,17.71-17.32c.81.45,1.61.86,2.42,1.24,17.18,8.32,33.8,3.46,41.52.22.74-.31,1.41-.61,2-.88,1.53,3.21,4.64,8.73,9.22,12.51a18.3,18.3,0,0,0,5.85,3.34c25.1,8.25,40,15.66,45.16,30.16h5.25C195.44,206.89,174.86,198.65,152.44,191.29Z"></path></g></g></svg>